STARTFONT 2.1
COMMENT
COMMENT Converted from OpenType font "JetBrainsMono-Bold.otf" by "otf2bdf 3.0".
COMMENT
FONT -FreeType-JetBrains Mono-Bold-R-Normal--21-250-60-60-P-101-ISO10646-1
SIZE 25 60 60
FONTBOUNDINGBOX 27 31 -13 -8
STARTPROPERTIES 19
FOUNDRY "FreeType"
FAMILY_NAME "JetBrains Mono"
WEIGHT_NAME "Bold"
SLANT "R"
SETWIDTH_NAME "Normal"
ADD_STYLE_NAME ""
PIXEL_SIZE 21
POINT_SIZE 250
RESOLUTION_X 60
RESOLUTION_Y 60
SPACING "P"
AVERAGE_WIDTH 101
CHARSET_REGISTRY "ISO10646"
CHARSET_ENCODING "1"
FONT_ASCENT 20
FONT_DESCENT 5
COPYRIGHT "© 2000-2020 JetBrains s.r.o. Developed with drive and IntelliJ IDEA."
_OTF_FONTFILE "JetBrainsMono-Bold.otf"
_OTF_PSNAME "JetBrainsMono-Bold"
ENDPROPERTIES
CHARS 842
STARTCHAR 0000
ENCODING 0
SWIDTH 0 0
DWIDTH 0 0
BBX 0 0 0 0
BITMAP
ENDCHAR
STARTCHAR 000A
ENCODING 10
SWIDTH 624 0
DWIDTH 13 0
BBX 0 0 0 0
BITMAP
ENDCHAR
STARTCHAR 000D
ENCODING 13
SWIDTH 624 0
DWIDTH 13 0
BBX 0 0 0 0
BITMAP
ENDCHAR
STARTCHAR 0020
ENCODING 32
SWIDTH 624 0
DWIDTH 13 0
BBX 0 0 0 0
BITMAP
ENDCHAR
STARTCHAR 0021
ENCODING 33
SWIDTH 624 0
DWIDTH 13 0
BBX 3 15 5 0
BITMAP
E0
E0
E0
E0
E0
C0
C0
C0
C0
C0
00
00
C0
E0
E0
ENDCHAR
STARTCHAR 0022
ENCODING 34
SWIDTH 624 0
DWIDTH 13 0
BBX 7 6 3 9
BITMAP
CE
CE
CE
CE
CE
CE
ENDCHAR
STARTCHAR 0023
ENCODING 35
SWIDTH 624 0
DWIDTH 13 0
BBX 11 15 1 0
BITMAP
18C0
18C0
1880
1180
FFE0
3180
3180
3180
3100
FFC0
FFC0
6300
6300
6300
6600
ENDCHAR
STARTCHAR 0024
ENCODING 36
SWIDTH 624 0
DWIDTH 13 0
BBX 10 21 1 -3
BITMAP
0400
0400
0400
3F00
7F80
65C0
E5C0
6400
7400
7E00
3F80
07C0
05C0
04C0
E4C0
F5C0
7F80
3F00
0400
0400
0400
ENDCHAR
STARTCHAR 0025
ENCODING 37
SWIDTH 624 0
DWIDTH 13 0
BBX 12 15 0 0
BITMAP
7C30
EC60
CC60
CCC0
CD80
7D80
3300
0600
04E0
0DF0
1B30
3330
3330
63F0
C1E0
ENDCHAR
STARTCHAR 0026
ENCODING 38
SWIDTH 624 0
DWIDTH 13 0
BBX 11 15 1 0
BITMAP
3F00
7F80
7380
6000
7000
3000
7800
FC00
ECC0
CFC0
C780
C380
E380
FFC0
7CE0
ENDCHAR
STARTCHAR 0027
ENCODING 39
SWIDTH 624 0
DWIDTH 13 0
BBX 3 6 5 9
BITMAP
E0
E0
E0
C0
C0
C0
ENDCHAR
STARTCHAR 0028
ENCODING 40
SWIDTH 624 0
DWIDTH 13 0
BBX 7 19 3 -2
BITMAP
0E
1E
3C
70
70
60
60
E0
E0
E0
E0
E0
60
60
70
78
3C
1E
0E
ENDCHAR
STARTCHAR 0029
ENCODING 41
SWIDTH 624 0
DWIDTH 13 0
BBX 7 21 2 -3
BITMAP
80
E0
F0
38
1C
0C
0E
0E
0E
0E
0E
0E
0E
0E
0E
0E
1C
38
F0
E0
80
ENDCHAR
STARTCHAR 002A
ENCODING 42
SWIDTH 624 0
DWIDTH 13 0
BBX 11 11 1 2
BITMAP
0C00
0C00
0C00
CC40
F5E0
FFC0
0C00
1B00
3B00
7380
2180
ENDCHAR
STARTCHAR 002B
ENCODING 43
SWIDTH 624 0
DWIDTH 13 0
BBX 10 10 1 2
BITMAP
0E00
0E00
0E00
0E00
FFC0
FFC0
0E00
0E00
0E00
0E00
ENDCHAR
STARTCHAR 002C
ENCODING 44
SWIDTH 624 0
DWIDTH 13 0
BBX 5 6 3 -3
BITMAP
38
70
70
70
60
E0
ENDCHAR
STARTCHAR 002D
ENCODING 45
SWIDTH 624 0
DWIDTH 13 0
BBX 9 2 2 6
BITMAP
FF80
FF80
ENDCHAR
STARTCHAR 002E
ENCODING 46
SWIDTH 624 0
DWIDTH 13 0
BBX 4 3 4 0
BITMAP
F0
F0
70
ENDCHAR
STARTCHAR 002F
ENCODING 47
SWIDTH 624 0
DWIDTH 13 0
BBX 9 19 2 -2
BITMAP
0380
0380
0700
0700
0600
0E00
0E00
0C00
1C00
1C00
1800
3800
3000
7000
7000
6000
E000
E000
C000
ENDCHAR
STARTCHAR 0030
ENCODING 48
SWIDTH 624 0
DWIDTH 13 0
BBX 10 15 1 0
BITMAP
3F00
7F80
61C0
E0C0
E0C0
E0C0
ECC0
ECC0
E4C0
E0C0
E0C0
E1C0
71C0
7F80
3F00
ENDCHAR
STARTCHAR 0031
ENCODING 49
SWIDTH 624 0
DWIDTH 13 0
BBX 9 15 2 0
BITMAP
3C00
7C00
EC00
CC00
8C00
0C00
0C00
0C00
0C00
0C00
0C00
0C00
0C00
FF80
FF80
ENDCHAR
STARTCHAR 0032
ENCODING 50
SWIDTH 624 0
DWIDTH 13 0
BBX 10 15 1 0
BITMAP
3F00
7F80
71C0
E1C0
01C0
01C0
0380
0380
0700
0E00
1C00
3800
7000
7FC0
7FC0
ENDCHAR
STARTCHAR 0033
ENCODING 51
SWIDTH 624 0
DWIDTH 13 0
BBX 10 15 1 0
BITMAP
7F80
7F80
0380
0700
0E00
1E00
1F80
0780
01C0
01C0
01C0
E1C0
71C0
7F80
3F00
ENDCHAR
STARTCHAR 0034
ENCODING 52
SWIDTH 624 0
DWIDTH 13 0
BBX 10 15 1 0
BITMAP
0380
0700
0E00
0E00
1C00
3800
31C0
71C0
E1C0
E1C0
FFC0
FFC0
01C0
01C0
01C0
ENDCHAR
STARTCHAR 0035
ENCODING 53
SWIDTH 624 0
DWIDTH 13 0
BBX 10 15 1 0
BITMAP
7F80
7F80
6000
6000
6000
6F00
7F80
71C0
01C0
01C0
01C0
E1C0
71C0
7F80
3F00
ENDCHAR
STARTCHAR 0036
ENCODING 54
SWIDTH 624 0
DWIDTH 13 0
BBX 10 15 1 0
BITMAP
0700
0E00
1C00
1C00
3800
3000
7F80
7FC0
E1C0
E0C0
E0C0
E0C0
71C0
7F80
3F00
ENDCHAR
STARTCHAR 0037
ENCODING 55
SWIDTH 624 0
DWIDTH 13 0
BBX 10 15 1 0
BITMAP
FFC0
FFC0
E0C0
E1C0
0180
0380
0380
0700
0700
0600
0E00
0C00
1C00
1C00
3800
ENDCHAR
STARTCHAR 0038
ENCODING 56
SWIDTH 624 0
DWIDTH 13 0
BBX 10 15 1 0
BITMAP
3F00
7F80
61C0
E0C0
61C0
71C0
3F80
3F80
71C0
E0C0
E0C0
E0C0
F1C0
7F80
3F00
ENDCHAR
STARTCHAR 0039
ENCODING 57
SWIDTH 624 0
DWIDTH 13 0
BBX 10 15 1 0
BITMAP
3F00
7F80
E1C0
E0C0
E0C0
E0C0
E1C0
7FC0
3D80
0380
0700
0700
0E00
1C00
1C00
ENDCHAR
STARTCHAR 003A
ENCODING 58
SWIDTH 624 0
DWIDTH 13 0
BBX 4 12 4 0
BITMAP
60
F0
F0
70
00
00
00
00
00
70
F0
70
ENDCHAR
STARTCHAR 003B
ENCODING 59
SWIDTH 624 0
DWIDTH 13 0
BBX 5 15 3 -3
BITMAP
30
78
78
38
00
00
00
00
00
38
78
70
70
60
E0
ENDCHAR
STARTCHAR 003C
ENCODING 60
SWIDTH 624 0
DWIDTH 13 0
BBX 9 11 2 2
BITMAP
0180
0780
3E00
F800
E000
E000
F800
3E00
0F80
0380
0080
ENDCHAR
STARTCHAR 003D
ENCODING 61
SWIDTH 624 0
DWIDTH 13 0
BBX 9 8 2 3
BITMAP
FF80
FF80
FF80
0000
0000
FF80
FF80
FF80
ENDCHAR
STARTCHAR 003E
ENCODING 62
SWIDTH 624 0
DWIDTH 13 0
BBX 9 10 2 2
BITMAP
C000
F000
7C00
1F00
0780
0380
0F80
3E00
F800
C000
ENDCHAR
STARTCHAR 003F
ENCODING 63
SWIDTH 624 0
DWIDTH 13 0
BBX 9 15 2 0
BITMAP
FC00
FF00
0700
0300
0380
0300
3F00
3E00
3800
3000
0000
0000
3000
7800
3800
ENDCHAR
STARTCHAR 0040
ENCODING 64
SWIDTH 624 0
DWIDTH 13 0
BBX 11 19 1 -4
BITMAP
3F80
7BC0
E0E0
C060
C060
C760
CEE0
CC60
CC60
CC60
CC60
CC60
CFE0
C760
C000
E000
7000
3E00
0E00
ENDCHAR
STARTCHAR 0041
ENCODING 65
SWIDTH 624 0
DWIDTH 13 0
BBX 11 15 1 0
BITMAP
1E00
1E00
1F00
1B00
3B00
3B00
3380
3380
7180
7F80
7FC0
61C0
E0C0
E0C0
E0E0
ENDCHAR
STARTCHAR 0042
ENCODING 66
SWIDTH 624 0
DWIDTH 13 0
BBX 9 15 2 0
BITMAP
FE00
FF00
C380
C380
C380
C380
FF00
FF00
C380
C180
C180
C180
C380
FF00
FE00
ENDCHAR
STARTCHAR 0043
ENCODING 67
SWIDTH 624 0
DWIDTH 13 0
BBX 10 15 1 0
BITMAP
3F00
7F80
71C0
61C0
E000
E000
E000
E000
E000
E000
E000
61C0
71C0
7F80
3F00
ENDCHAR
STARTCHAR 0044
ENCODING 68
SWIDTH 624 0
DWIDTH 13 0
BBX 9 15 2 0
BITMAP
FE00
FF00
C780
C380
C180
C180
C180
C180
C180
C180
C180
C380
C780
FF00
FE00
ENDCHAR
STARTCHAR 0045
ENCODING 69
SWIDTH 624 0
DWIDTH 13 0
BBX 9 15 2 0
BITMAP
FF80
FF80
C000
C000
C000
C000
FF00
FF00
C000
C000
C000
C000
C000
FF80
FF80
ENDCHAR
STARTCHAR 0046
ENCODING 70
SWIDTH 624 0
DWIDTH 13 0
BBX 9 15 2 0
BITMAP
FF80
FF80
C000
C000
C000
C000
FF80
FF80
FF80
C000
C000
C000
C000
C000
C000
ENDCHAR
STARTCHAR 0047
ENCODING 71
SWIDTH 624 0
DWIDTH 13 0
BBX 10 15 1 0
BITMAP
3F00
7F80
71C0
61C0
E000
E000
E000
E7C0
E7C0
E0C0
E0C0
61C0
71C0
7F80
3F00
ENDCHAR
STARTCHAR 0048
ENCODING 72
SWIDTH 624 0
DWIDTH 13 0
BBX 9 15 2 0
BITMAP
C380
C380
C380
C380
C380
C380
FF80
FF80
C380
C380
C380
C380
C380
C380
C380
ENDCHAR
STARTCHAR 0049
ENCODING 73
SWIDTH 624 0
DWIDTH 13 0
BBX 9 15 2 0
BITMAP
FF80
FF80
1C00
1C00
1C00
1C00
1C00
1C00
1C00
1C00
1C00
1C00
1C00
FF80
FF80
ENDCHAR
STARTCHAR 004A
ENCODING 74
SWIDTH 624 0
DWIDTH 13 0
BBX 10 15 1 0
BITMAP
1FC0
1FC0
01C0
01C0
01C0
01C0
01C0
01C0
01C0
01C0
01C0
C1C0
E380
7F80
3F00
ENDCHAR
STARTCHAR 004B
ENCODING 75
SWIDTH 624 0
DWIDTH 13 0
BBX 10 15 2 0
BITMAP
C180
C380
C300
C700
C600
CE00
FE00
FC00
CE00
CE00
C700
C700
C380
C380
C1C0
ENDCHAR
STARTCHAR 004C
ENCODING 76
SWIDTH 624 0
DWIDTH 13 0
BBX 9 15 2 0
BITMAP
E000
E000
E000
E000
E000
E000
E000
E000
E000
E000
E000
E000
E000
FF80
FF80
ENDCHAR
STARTCHAR 004D
ENCODING 77
SWIDTH 624 0
DWIDTH 13 0
BBX 10 15 1 0
BITMAP
E1C0
F1C0
F3C0
D3C0
DBC0
DAC0
CEC0
EEC0
E0C0
E0C0
E0C0
E0C0
E0C0
E0C0
E0C0
ENDCHAR
STARTCHAR 004E
ENCODING 78
SWIDTH 624 0
DWIDTH 13 0
BBX 10 15 1 0
BITMAP
F0C0
F0C0
F8C0
F8C0
F8C0
ECC0
ECC0
ECC0
E6C0
E6C0
E6C0
E3C0
E3C0
E3C0
E1C0
ENDCHAR
STARTCHAR 004F
ENCODING 79
SWIDTH 624 0
DWIDTH 13 0
BBX 10 15 1 0
BITMAP
3F00
7F80
71C0
61C0
E1C0
E1C0
E1C0
E1C0
E1C0
E1C0
E1C0
61C0
71C0
7F80
3F00
ENDCHAR
STARTCHAR 0050
ENCODING 80
SWIDTH 624 0
DWIDTH 13 0
BBX 10 15 2 0
BITMAP
FF00
FF80
C380
C1C0
C1C0
C1C0
C380
FF80
FE00
C000
C000
C000
C000
C000
C000
ENDCHAR
STARTCHAR 0051
ENCODING 81
SWIDTH 624 0
DWIDTH 13 0
BBX 10 19 1 -4
BITMAP
3F00
7F80
71C0
E1C0
E1C0
E1C0
E1C0
E1C0
E1C0
E1C0
E1C0
E1C0
71C0
7F80
3F00
0300
0380
01C0
01C0
ENDCHAR
STARTCHAR 0052
ENCODING 82
SWIDTH 624 0
DWIDTH 13 0
BBX 9 15 2 0
BITMAP
FE00
FF00
C380
C180
C180
C180
C780
FF00
FE00
CE00
C600
C700
C300
C380
C380
ENDCHAR
STARTCHAR 0053
ENCODING 83
SWIDTH 624 0
DWIDTH 13 0
BBX 10 15 1 0
BITMAP
3F00
7F80
61C0
E1C0
6000
7000
7E00
3F80
07C0
01C0
00C0
E0C0
F1C0
7F80
3F00
ENDCHAR
STARTCHAR 0054
ENCODING 84
SWIDTH 624 0
DWIDTH 13 0
BBX 11 15 1 0
BITMAP
FFE0
FFE0
0E00
0E00
0E00
0E00
0E00
0E00
0E00
0E00
0E00
0E00
0E00
0E00
0E00
ENDCHAR
STARTCHAR 0055
ENCODING 85
SWIDTH 624 0
DWIDTH 13 0
BBX 10 15 1 0
BITMAP
E1C0
E1C0
E1C0
E1C0
E1C0
E1C0
E1C0
E1C0
E1C0
E1C0
E1C0
61C0
71C0
7F80
3F00
ENDCHAR
STARTCHAR 0056
ENCODING 86
SWIDTH 624 0
DWIDTH 13 0
BBX 11 15 1 0
BITMAP
E0E0
E0C0
E0C0
61C0
71C0
7180
7180
3380
3380
3B00
3B00
1B00
1F00
1E00
1E00
ENDCHAR
STARTCHAR 0057
ENCODING 87
SWIDTH 624 0
DWIDTH 13 0
BBX 12 15 0 0
BITMAP
E630
6730
6730
6730
6530
6570
6D60
6D60
6D60
6960
69E0
39E0
39E0
39E0
38E0
ENDCHAR
STARTCHAR 0058
ENCODING 88
SWIDTH 624 0
DWIDTH 13 0
BBX 11 15 1 0
BITMAP
E1C0
71C0
7380
3B80
3F00
1F00
1E00
0E00
1E00
1F00
3B00
7380
71C0
E1C0
E0E0
ENDCHAR
STARTCHAR 0059
ENCODING 89
SWIDTH 624 0
DWIDTH 13 0
BBX 11 15 1 0
BITMAP
E0E0
E0C0
61C0
7180
3380
3B00
1F00
1E00
1E00
0E00
0E00
0E00
0E00
0E00
0E00
ENDCHAR
STARTCHAR 005A
ENCODING 90
SWIDTH 624 0
DWIDTH 13 0
BBX 9 15 2 0
BITMAP
FF80
FF80
0300
0700
0E00
0E00
1C00
1C00
3800
7000
7000
E000
E000
FF80
FF80
ENDCHAR
STARTCHAR 005B
ENCODING 91
SWIDTH 624 0
DWIDTH 13 0
BBX 6 19 4 -2
BITMAP
FC
FC
C0
C0
C0
C0
C0
C0
C0
C0
C0
C0
C0
C0
C0
C0
C0
FC
FC
ENDCHAR
STARTCHAR 005C
ENCODING 92
SWIDTH 624 0
DWIDTH 13 0
BBX 9 19 2 -2
BITMAP
C000
E000
E000
6000
7000
7000
3000
3800
3800
1C00
1C00
0C00
0E00
0E00
0600
0700
0700
0380
0380
ENDCHAR
STARTCHAR 005D
ENCODING 93
SWIDTH 624 0
DWIDTH 13 0
BBX 6 19 3 -2
BITMAP
FC
FC
1C
1C
1C
1C
1C
1C
1C
1C
1C
1C
1C
1C
1C
1C
1C
FC
FC
ENDCHAR
STARTCHAR 005E
ENCODING 94
SWIDTH 624 0
DWIDTH 13 0
BBX 9 8 2 7
BITMAP
1C00
3C00
3E00
7600
6700
E300
C300
C380
ENDCHAR
STARTCHAR 005F
ENCODING 95
SWIDTH 624 0
DWIDTH 13 0
BBX 10 2 1 -3
BITMAP
FFC0
FFC0
ENDCHAR
STARTCHAR 0060
ENCODING 96
SWIDTH 624 0
DWIDTH 13 0
BBX 4 3 4 13
BITMAP
E0
70
30
ENDCHAR
STARTCHAR 0061
ENCODING 97
SWIDTH 624 0
DWIDTH 13 0
BBX 10 12 1 0
BITMAP
0E00
3F80
7BC0
61C0
01C0
3FC0
7FC0
E1C0
E1C0
E1C0
7FC0
7DC0
ENDCHAR
STARTCHAR 0062
ENCODING 98
SWIDTH 624 0
DWIDTH 13 0
BBX 9 15 2 0
BITMAP
C000
C000
C000
CC00
DF00
FF80
E380
C380
C380
C380
C380
C380
E380
FF00
DE00
ENDCHAR
STARTCHAR 0063
ENCODING 99
SWIDTH 624 0
DWIDTH 13 0
BBX 10 12 1 0
BITMAP
0E00
3F80
7FC0
61C0
E000
E000
E000
E000
61C0
71C0
7F80
3F00
ENDCHAR
STARTCHAR 0064
ENCODING 100
SWIDTH 624 0
DWIDTH 13 0
BBX 10 15 1 0
BITMAP
01C0
01C0
01C0
19C0
3FC0
7FC0
61C0
E1C0
E1C0
E1C0
E1C0
61C0
71C0
7FC0
3DC0
ENDCHAR
STARTCHAR 0065
ENCODING 101
SWIDTH 624 0
DWIDTH 13 0
BBX 10 12 1 0
BITMAP
0E00
3F80
7380
61C0
E1C0
FFC0
FFC0
E000
6000
71C0
7F80
3F00
ENDCHAR
STARTCHAR 0066
ENCODING 102
SWIDTH 624 0
DWIDTH 13 0
BBX 10 15 1 0
BITMAP
0FC0
0FC0
1C00
1C00
FFC0
FFC0
1C00
1C00
1C00
1C00
1C00
1C00
1C00
1C00
1C00
ENDCHAR
STARTCHAR 0067
ENCODING 103
SWIDTH 624 0
DWIDTH 13 0
BBX 10 16 1 -4
BITMAP
1800
3FC0
7FC0
61C0
E1C0
E1C0
E1C0
61C0
71C0
7FC0
3FC0
01C0
01C0
03C0
3F80
3E00
ENDCHAR
STARTCHAR 0068
ENCODING 104
SWIDTH 624 0
DWIDTH 13 0
BBX 9 15 2 0
BITMAP
C000
C000
C000
CC00
DF00
FF80
C380
C380
C380
C380
C380
C380
C380
C380
C380
ENDCHAR
STARTCHAR 0069
ENCODING 105
SWIDTH 624 0
DWIDTH 13 0
BBX 10 16 2 0
BITMAP
1C00
1C00
1C00
0000
0000
FC00
FC00
0C00
0C00
0C00
0C00
0C00
0C00
0C00
FFC0
FFC0
ENDCHAR
STARTCHAR 006A
ENCODING 106
SWIDTH 624 0
DWIDTH 13 0
BBX 8 20 2 -4
BITMAP
07
07
06
00
00
FF
FF
07
07
07
07
07
07
07
07
07
06
FE
FC
F8
ENDCHAR
STARTCHAR 006B
ENCODING 107
SWIDTH 624 0
DWIDTH 13 0
BBX 9 15 2 0
BITMAP
C000
C000
C000
C000
C380
C300
C700
CE00
FE00
FC00
CE00
C700
C700
C380
C380
ENDCHAR
STARTCHAR 006C
ENCODING 108
SWIDTH 624 0
DWIDTH 13 0
BBX 11 15 1 0
BITMAP
FC00
FC00
1C00
1C00
1C00
1C00
1C00
1C00
1C00
1C00
1C00
1C00
1C00
0FE0
07E0
ENDCHAR
STARTCHAR 006D
ENCODING 109
SWIDTH 624 0
DWIDTH 13 0
BBX 10 12 1 0
BITMAP
1980
FFC0
ECC0
CCC0
CCC0
CCC0
CCC0
CCC0
CCC0
CCC0
CCC0
CCC0
ENDCHAR
STARTCHAR 006E
ENCODING 110
SWIDTH 624 0
DWIDTH 13 0
BBX 9 12 2 0
BITMAP
0C00
DF00
FF80
C380
C380
C380
C380
C380
C380
C380
C380
C380
ENDCHAR
STARTCHAR 006F
ENCODING 111
SWIDTH 624 0
DWIDTH 13 0
BBX 10 12 1 0
BITMAP
0E00
3F80
7F80
61C0
E1C0
E1C0
E1C0
E1C0
61C0
71C0
7F80
3F00
ENDCHAR
STARTCHAR 0070
ENCODING 112
SWIDTH 624 0
DWIDTH 13 0
BBX 9 16 2 -4
BITMAP
0C00
DF00
FF80
E380
C380
C380
C380
C380
C380
E380
FF00
DE00
C000
C000
C000
C000
ENDCHAR
STARTCHAR 0071
ENCODING 113
SWIDTH 624 0
DWIDTH 13 0
BBX 10 16 1 -4
BITMAP
1800
3FC0
7FC0
61C0
E1C0
E1C0
E1C0
E1C0
61C0
71C0
7FC0
3DC0
01C0
01C0
01C0
01C0
ENDCHAR
STARTCHAR 0072
ENCODING 114
SWIDTH 624 0
DWIDTH 13 0
BBX 10 12 2 0
BITMAP
0E00
DF00
FF80
E180
E1C0
E000
E000
E000
E000
E000
E000
E000
ENDCHAR
STARTCHAR 0073
ENCODING 115
SWIDTH 624 0
DWIDTH 13 0
BBX 10 12 1 0
BITMAP
1E00
7F80
73C0
61C0
6000
7F00
3F80
01C0
00C0
E1C0
7FC0
3F80
ENDCHAR
STARTCHAR 0074
ENCODING 116
SWIDTH 624 0
DWIDTH 13 0
BBX 10 15 1 0
BITMAP
1C00
1C00
1C00
1C00
FFC0
FFC0
1C00
1C00
1C00
1C00
1C00
1C00
1C00
1FC0
0FC0
ENDCHAR
STARTCHAR 0075
ENCODING 117
SWIDTH 624 0
DWIDTH 13 0
BBX 9 11 2 0
BITMAP
C380
C380
C380
C380
C380
C380
C380
C380
E380
FF00
7E00
ENDCHAR
STARTCHAR 0076
ENCODING 118
SWIDTH 624 0
DWIDTH 13 0
BBX 10 11 1 0
BITMAP
E0C0
E1C0
61C0
7180
7180
3380
3B00
3B00
1F00
1E00
1E00
ENDCHAR
STARTCHAR 0077
ENCODING 119
SWIDTH 624 0
DWIDTH 13 0
BBX 11 11 1 0
BITMAP
CC60
CE60
CE60
CAC0
DAC0
DAC0
FAC0
72C0
73C0
73C0
7180
ENDCHAR
STARTCHAR 0078
ENCODING 120
SWIDTH 624 0
DWIDTH 13 0
BBX 10 11 1 0
BITMAP
71C0
7380
3B00
1F00
1E00
1E00
1F00
3B00
7380
71C0
E1C0
ENDCHAR
STARTCHAR 0079
ENCODING 121
SWIDTH 624 0
DWIDTH 13 0
BBX 10 15 1 -4
BITMAP
E0C0
61C0
71C0
7180
3380
3B80
1B00
1F00
1E00
0E00
0E00
0C00
1C00
1C00
1800
ENDCHAR
STARTCHAR 007A
ENCODING 122
SWIDTH 624 0
DWIDTH 13 0
BBX 9 11 2 0
BITMAP
FF80
FF80
0700
0E00
1C00
3800
3800
7000
E000
FF80
FF80
ENDCHAR
STARTCHAR 007B
ENCODING 123
SWIDTH 624 0
DWIDTH 13 0
BBX 9 19 2 -2
BITMAP
0780
0F80
0E00
0C00
0C00
0C00
0C00
0C00
FC00
F000
FC00
0C00
0C00
0C00
0C00
0C00
0E00
0F80
0780
ENDCHAR
STARTCHAR 007C
ENCODING 124
SWIDTH 624 0
DWIDTH 13 0
BBX 3 19 5 -2
BITMAP
E0
E0
E0
E0
E0
E0
E0
E0
E0
E0
E0
E0
E0
E0
E0
E0
E0
E0
E0
ENDCHAR
STARTCHAR 007D
ENCODING 125
SWIDTH 624 0
DWIDTH 13 0
BBX 9 19 2 -2
BITMAP
F000
F800
3800
3800
3800
3800
3800
3800
3F80
0F80
1F80
3800
3800
3800
3800
3800
3800
F800
F000
ENDCHAR
STARTCHAR 007E
ENCODING 126
SWIDTH 624 0
DWIDTH 13 0
BBX 10 5 1 5
BITMAP
3000
FCC0
CCC0
C7C0
C780
ENDCHAR
STARTCHAR 00A0
ENCODING 160
SWIDTH 624 0
DWIDTH 13 0
BBX 0 0 0 0
BITMAP
ENDCHAR
STARTCHAR 00A1
ENCODING 161
SWIDTH 624 0
DWIDTH 13 0
BBX 3 16 5 -4
BITMAP
40
E0
E0
00
00
C0
C0
C0
C0
C0
E0
E0
E0
E0
E0
E0
ENDCHAR
STARTCHAR 00A2
ENCODING 162
SWIDTH 624 0
DWIDTH 13 0
BBX 10 17 1 -3
BITMAP
0400
0400
0E00
3F80
7FC0
65C0
E400
E400
E400
E400
65C0
75C0
7F80
3F00
0400
0400
0400
ENDCHAR
STARTCHAR 00A3
ENCODING 163
SWIDTH 624 0
DWIDTH 13 0
BBX 10 15 1 0
BITMAP
3F00
7F80
61C0
E1C0
E000
7000
3000
FF00
FF00
1800
3800
3000
6000
7FC0
7FC0
ENDCHAR
STARTCHAR 00A4
ENCODING 164
SWIDTH 624 0
DWIDTH 13 0
BBX 11 11 1 2
BITMAP
4040
ECE0
7FC0
2180
6080
6080
6080
6180
7F80
EEC0
4040
ENDCHAR
STARTCHAR 00A5
ENCODING 165
SWIDTH 624 0
DWIDTH 13 0
BBX 11 15 1 0
BITMAP
E0E0
E0C0
61C0
7180
3380
3B00
1F00
1E00
FFC0
FFC0
0E00
FFC0
FFC0
0E00
0E00
ENDCHAR
STARTCHAR 00A6
ENCODING 166
SWIDTH 624 0
DWIDTH 13 0
BBX 3 19 5 -2
BITMAP
E0
E0
E0
E0
E0
E0
E0
E0
00
00
00
E0
E0
E0
E0
E0
E0
E0
E0
ENDCHAR
STARTCHAR 00A7
ENCODING 167
SWIDTH 624 0
DWIDTH 13 0
BBX 10 18 1 -3
BITMAP
3F80
7FC0
E1C0
E000
7000
3F00
1F80
61C0
E0C0
E0C0
7180
7F00
1F80
01C0
00C0
E1C0
7FC0
3F80
ENDCHAR
STARTCHAR 00A8
ENCODING 168
SWIDTH 624 0
DWIDTH 13 0
BBX 8 3 2 13
BITMAP
67
E7
62
ENDCHAR
STARTCHAR 00A9
ENCODING 169
SWIDTH 624 0
DWIDTH 13 0
BBX 11 13 1 2
BITMAP
3F00
40C0
C440
9F40
9360
9060
9060
9360
9B40
8E40
40C0
3180
1E00
ENDCHAR
STARTCHAR 00AA
ENCODING 170
SWIDTH 624 0
DWIDTH 13 0
BBX 5 6 4 9
BITMAP
F8
18
F8
98
A8
48
ENDCHAR
STARTCHAR 00AB
ENCODING 171
SWIDTH 624 0
DWIDTH 13 0
BBX 11 10 1 1
BITMAP
1CE0
39C0
7380
6300
E700
C600
E700
7380
39C0
18E0
ENDCHAR
STARTCHAR 00AC
ENCODING 172
SWIDTH 624 0
DWIDTH 13 0
BBX 10 5 1 4
BITMAP
FFC0
FFC0
01C0
01C0
01C0
ENDCHAR
STARTCHAR 00AD
ENCODING 173
SWIDTH 624 0
DWIDTH 13 0
BBX 7 2 3 6
BITMAP
FE
FE
ENDCHAR
STARTCHAR 00AE
ENCODING 174
SWIDTH 624 0
DWIDTH 13 0
BBX 11 13 1 2
BITMAP
3F00
40C0
C040
9F40
9360
9360
9E60
9260
9240
9340
40C0
3180
1E00
ENDCHAR
STARTCHAR 00AF
ENCODING 175
SWIDTH 624 0
DWIDTH 13 0
BBX 6 2 3 14
BITMAP
FC
FC
ENDCHAR
STARTCHAR 00B0
ENCODING 176
SWIDTH 624 0
DWIDTH 13 0
BBX 6 6 3 9
BITMAP
7C
C4
C4
C4
7C
30
ENDCHAR
STARTCHAR 00B1
ENCODING 177
SWIDTH 624 0
DWIDTH 13 0
BBX 10 12 1 0
BITMAP
0E00
0E00
0E00
0E00
FFC0
FFC0
0E00
0E00
0E00
0E00
FFC0
FFC0
ENDCHAR
STARTCHAR 00B2
ENCODING 178
SWIDTH 624 0
DWIDTH 13 0
BBX 7 9 3 8
BITMAP
7C
CC
C4
0C
1C
30
E0
FE
FE
ENDCHAR
STARTCHAR 00B3
ENCODING 179
SWIDTH 624 0
DWIDTH 13 0
BBX 6 9 3 8
BITMAP
FC
0C
10
38
0C
0C
CC
FC
70
ENDCHAR
STARTCHAR 00B4
ENCODING 180
SWIDTH 624 0
DWIDTH 13 0
BBX 5 3 4 13
BITMAP
38
60
E0
ENDCHAR
STARTCHAR 00B5
ENCODING 181
SWIDTH 624 0
DWIDTH 13 0
BBX 9 15 2 -4
BITMAP
C380
C380
C380
C380
C380
C380
C380
C380
E380
FF00
FE00
C000
C000
C000
C000
ENDCHAR
STARTCHAR 00B6
ENCODING 182
SWIDTH 624 0
DWIDTH 13 0
BBX 10 19 1 -4
BITMAP
3CC0
7CC0
FCC0
FCC0
FCC0
FCC0
FCC0
7CC0
1CC0
0CC0
0CC0
0CC0
0CC0
0CC0
0CC0
0CC0
0CC0
0CC0
0CC0
ENDCHAR
STARTCHAR 00B7
ENCODING 183
SWIDTH 624 0
DWIDTH 13 0
BBX 4 4 4 5
BITMAP
70
F0
F0
60
ENDCHAR
STARTCHAR 00B8
ENCODING 184
SWIDTH 624 0
DWIDTH 13 0
BBX 5 4 4 -4
BITMAP
40
70
18
F8
ENDCHAR
STARTCHAR 00B9
ENCODING 185
SWIDTH 624 0
DWIDTH 13 0
BBX 7 9 3 8
BITMAP
78
F8
98
18
18
18
18
FE
FE
ENDCHAR
STARTCHAR 00BA
ENCODING 186
SWIDTH 624 0
DWIDTH 13 0
BBX 5 6 4 9
BITMAP
F0
98
98
98
F8
60
ENDCHAR
STARTCHAR 00BB
ENCODING 187
SWIDTH 624 0
DWIDTH 13 0
BBX 11 10 1 1
BITMAP
E700
E700
7380
39C0
18E0
1CE0
39C0
7180
6380
E700
ENDCHAR
STARTCHAR 00BC
ENCODING 188
SWIDTH 624 0
DWIDTH 13 0
BBX 10 15 1 0
BITMAP
70C0
F180
3100
3300
3200
FE00
FC00
0C00
0880
1980
1300
3640
27C0
67C0
4040
ENDCHAR
STARTCHAR 00BD
ENCODING 189
SWIDTH 624 0
DWIDTH 13 0
BBX 11 15 1 0
BITMAP
7080
F180
3100
3300
3200
FE00
FC00
0C00
09C0
1B60
1660
3060
2180
6700
47E0
ENDCHAR
STARTCHAR 00BE
ENCODING 190
SWIDTH 624 0
DWIDTH 13 0
BBX 11 15 0 0
BITMAP
7C60
18C0
1880
0D80
CD00
7F00
3200
0600
0440
0CC0
0980
1B20
13E0
33E0
2020
ENDCHAR
STARTCHAR 00BF
ENCODING 191
SWIDTH 624 0
DWIDTH 13 0
BBX 8 16 2 -4
BITMAP
04
0E
0E
00
00
0C
0C
3C
7C
F0
E0
E0
E0
7F
7F
0F
ENDCHAR
STARTCHAR 00C0
ENCODING 192
SWIDTH 624 0
DWIDTH 13 0
BBX 11 20 1 0
BITMAP
3800
1800
0C00
0000
0000
1E00
1E00
1F00
1B00
3B00
3B00
3380
3380
7180
7F80
7FC0
61C0
E0C0
E0C0
E0E0
ENDCHAR
STARTCHAR 00C1
ENCODING 193
SWIDTH 624 0
DWIDTH 13 0
BBX 11 20 1 0
BITMAP
0380
0700
0E00
0000
0000
1E00
1E00
1F00
1B00
3B00
3B00
3380
3380
7180
7F80
7FC0
61C0
E0C0
E0C0
E0E0
ENDCHAR
STARTCHAR 00C2
ENCODING 194
SWIDTH 624 0
DWIDTH 13 0
BBX 11 20 1 0
BITMAP
0E00
1F00
3380
0000
0000
1E00
1E00
1F00
1B00
3B00
3B00
3380
3380
7180
7F80
7FC0
61C0
E0C0
E0C0
E0E0
ENDCHAR
STARTCHAR 00C3
ENCODING 195
SWIDTH 624 0
DWIDTH 13 0
BBX 11 20 1 0
BITMAP
1980
3D80
2700
0000
0000
1E00
1E00
1F00
1B00
3B00
3B00
3380
3380
7180
7F80
7FC0
61C0
E0C0
E0C0
E0E0
ENDCHAR
STARTCHAR 00C4
ENCODING 196
SWIDTH 624 0
DWIDTH 13 0
BBX 11 20 1 0
BITMAP
3100
7380
3380
0000
0000
1E00
1E00
1F00
1B00
3B00
3B00
3380
3380
7180
7F80
7FC0
61C0
E0C0
E0C0
E0E0
ENDCHAR
STARTCHAR 00C5
ENCODING 197
SWIDTH 624 0
DWIDTH 13 0
BBX 11 20 1 0
BITMAP
0E00
1300
1300
1F00
0400
1E00
1E00
1F00
1B00
3B00
3B00
3380
3380
7180
7F80
7FC0
61C0
E0C0
E0C0
E0E0
ENDCHAR
STARTCHAR 00C6
ENCODING 198
SWIDTH 624 0
DWIDTH 13 0
BBX 12 15 0 0
BITMAP
1FF0
1FF0
1B00
3B00
3B00
3300
33E0
33E0
7300
7F00
7F00
6300
6300
63F0
E3F0
ENDCHAR
STARTCHAR 00C7
ENCODING 199
SWIDTH 624 0
DWIDTH 13 0
BBX 10 19 1 -4
BITMAP
3F00
7F80
71C0
61C0
E000
E000
E000
E000
E000
E000
E000
61C0
71C0
7F80
3F00
0800
0E00
0300
1F00
ENDCHAR
STARTCHAR 00C8
ENCODING 200
SWIDTH 624 0
DWIDTH 13 0
BBX 9 20 2 0
BITMAP
7000
3000
1800
0000
0000
FF80
FF80
C000
C000
C000
C000
FF00
FF00
C000
C000
C000
C000
C000
FF80
FF80
ENDCHAR
STARTCHAR 00C9
ENCODING 201
SWIDTH 624 0
DWIDTH 13 0
BBX 9 20 2 0
BITMAP
0700
0E00
1C00
0000
0000
FF80
FF80
C000
C000
C000
C000
FF00
FF00
C000
C000
C000
C000
C000
FF80
FF80
ENDCHAR
STARTCHAR 00CA
ENCODING 202
SWIDTH 624 0
DWIDTH 13 0
BBX 9 20 2 0
BITMAP
1C00
3E00
6700
0000
0000
FF80
FF80
C000
C000
C000
C000
FF00
FF00
C000
C000
C000
C000
C000
FF80
FF80
ENDCHAR
STARTCHAR 00CB
ENCODING 203
SWIDTH 624 0
DWIDTH 13 0
BBX 9 20 2 0
BITMAP
6200
E700
6700
0000
0000
FF80
FF80
C000
C000
C000
C000
FF00
FF00
C000
C000
C000
C000
C000
FF80
FF80
ENDCHAR
STARTCHAR 00CC
ENCODING 204
SWIDTH 624 0
DWIDTH 13 0
BBX 9 20 2 0
BITMAP
7000
3000
1800
0000
0000
FF80
FF80
1C00
1C00
1C00
1C00
1C00
1C00
1C00
1C00
1C00
1C00
1C00
FF80
FF80
ENDCHAR
STARTCHAR 00CD
ENCODING 205
SWIDTH 624 0
DWIDTH 13 0
BBX 9 20 2 0
BITMAP
0700
0E00
1C00
0000
0000
FF80
FF80
1C00
1C00
1C00
1C00
1C00
1C00
1C00
1C00
1C00
1C00
1C00
FF80
FF80
ENDCHAR
STARTCHAR 00CE
ENCODING 206
SWIDTH 624 0
DWIDTH 13 0
BBX 9 20 2 0
BITMAP
1C00
3E00
6700
0000
0000
FF80
FF80
1C00
1C00
1C00
1C00
1C00
1C00
1C00
1C00
1C00
1C00
1C00
FF80
FF80
ENDCHAR
STARTCHAR 00CF
ENCODING 207
SWIDTH 624 0
DWIDTH 13 0
BBX 9 20 2 0
BITMAP
6200
E700
6700
0000
0000
FF80
FF80
1C00
1C00
1C00
1C00
1C00
1C00
1C00
1C00
1C00
1C00
1C00
FF80
FF80
ENDCHAR
STARTCHAR 00D0
ENCODING 208
SWIDTH 624 0
DWIDTH 13 0
BBX 10 15 1 0
BITMAP
7F00
7F80
63C0
61C0
60C0
60C0
F8C0
F8C0
F8C0
60C0
60C0
61C0
63C0
7F80
7F00
ENDCHAR
STARTCHAR 00D1
ENCODING 209
SWIDTH 624 0
DWIDTH 13 0
BBX 10 20 1 0
BITMAP
1980
3D80
2700
0000
0000
F0C0
F0C0
F8C0
F8C0
F8C0
ECC0
ECC0
ECC0
E6C0
E6C0
E6C0
E3C0
E3C0
E3C0
E1C0
ENDCHAR
STARTCHAR 00D2
ENCODING 210
SWIDTH 624 0
DWIDTH 13 0
BBX 10 20 1 0
BITMAP
3800
1800
0C00
0000
0000
3F00
7F80
71C0
61C0
E1C0
E1C0
E1C0
E1C0
E1C0
E1C0
E1C0
61C0
71C0
7F80
3F00
ENDCHAR
STARTCHAR 00D3
ENCODING 211
SWIDTH 624 0
DWIDTH 13 0
BBX 10 20 1 0
BITMAP
0380
0700
0E00
0000
0000
3F00
7F80
71C0
61C0
E1C0
E1C0
E1C0
E1C0
E1C0
E1C0
E1C0
61C0
71C0
7F80
3F00
ENDCHAR
STARTCHAR 00D4
ENCODING 212
SWIDTH 624 0
DWIDTH 13 0
BBX 10 20 1 0
BITMAP
0E00
1F00
3380
0000
0000
3F00
7F80
71C0
61C0
E1C0
E1C0
E1C0
E1C0
E1C0
E1C0
E1C0
61C0
71C0
7F80
3F00
ENDCHAR
STARTCHAR 00D5
ENCODING 213
SWIDTH 624 0
DWIDTH 13 0
BBX 10 20 1 0
BITMAP
1980
3D80
2700
0000
0000
3F00
7F80
71C0
61C0
E1C0
E1C0
E1C0
E1C0
E1C0
E1C0
E1C0
61C0
71C0
7F80
3F00
ENDCHAR
STARTCHAR 00D6
ENCODING 214
SWIDTH 624 0
DWIDTH 13 0
BBX 10 20 1 0
BITMAP
3100
7380
3380
0000
0000
3F00
7F80
71C0
61C0
E1C0
E1C0
E1C0
E1C0
E1C0
E1C0
E1C0
61C0
71C0
7F80
3F00
ENDCHAR
STARTCHAR 00D7
ENCODING 215
SWIDTH 624 0
DWIDTH 13 0
BBX 9 9 2 2
BITMAP
4300
E780
7F00
3E00
3C00
7E00
F700
E300
4000
ENDCHAR
STARTCHAR 00D8
ENCODING 216
SWIDTH 624 0
DWIDTH 13 0
BBX 11 17 1 -1
BITMAP
0060
3FC0
7FC0
71C0
63C0
E3C0
E7C0
E7C0
EDC0
EDC0
F9C0
F9C0
71C0
71C0
7F80
FF00
C000
ENDCHAR
STARTCHAR 00D9
ENCODING 217
SWIDTH 624 0
DWIDTH 13 0
BBX 10 20 1 0
BITMAP
3800
1800
0C00
0000
0000
E1C0
E1C0
E1C0
E1C0
E1C0
E1C0
E1C0
E1C0
E1C0
E1C0
E1C0
61C0
71C0
7F80
3F00
ENDCHAR
STARTCHAR 00DA
ENCODING 218
SWIDTH 624 0
DWIDTH 13 0
BBX 10 20 1 0
BITMAP
0380
0700
0E00
0000
0000
E1C0
E1C0
E1C0
E1C0
E1C0
E1C0
E1C0
E1C0
E1C0
E1C0
E1C0
61C0
71C0
7F80
3F00
ENDCHAR
STARTCHAR 00DB
ENCODING 219
SWIDTH 624 0
DWIDTH 13 0
BBX 10 20 1 0
BITMAP
0E00
1F00
3380
0000
0000
E1C0
E1C0
E1C0
E1C0
E1C0
E1C0
E1C0
E1C0
E1C0
E1C0
E1C0
61C0
71C0
7F80
3F00
ENDCHAR
STARTCHAR 00DC
ENCODING 220
SWIDTH 624 0
DWIDTH 13 0
BBX 10 20 1 0
BITMAP
3100
7380
3380
0000
0000
E1C0
E1C0
E1C0
E1C0
E1C0
E1C0
E1C0
E1C0
E1C0
E1C0
E1C0
61C0
71C0
7F80
3F00
ENDCHAR
STARTCHAR 00DD
ENCODING 221
SWIDTH 624 0
DWIDTH 13 0
BBX 11 20 1 0
BITMAP
0380
0700
0E00
0000
0000
E0E0
E0C0
61C0
7180
3380
3B00
1F00
1E00
1E00
0E00
0E00
0E00
0E00
0E00
0E00
ENDCHAR
STARTCHAR 00DE
ENCODING 222
SWIDTH 624 0
DWIDTH 13 0
BBX 10 15 2 0
BITMAP
C000
C000
C000
FF00
FF80
C380
C1C0
C1C0
C1C0
FF80
FF00
C000
C000
C000
C000
ENDCHAR
STARTCHAR 00DF
ENCODING 223
SWIDTH 624 0
DWIDTH 13 0
BBX 9 15 2 0
BITMAP
7F00
FF80
C380
C380
C380
C380
DF00
DF00
C380
C180
C180
C180
C380
DF00
DE00
ENDCHAR
STARTCHAR 00E0
ENCODING 224
SWIDTH 624 0
DWIDTH 13 0
BBX 10 16 1 0
BITMAP
3800
1C00
0E00
0000
0E00
3F80
7BC0
61C0
01C0
3FC0
7FC0
E1C0
E1C0
E1C0
7FC0
7DC0
ENDCHAR
STARTCHAR 00E1
ENCODING 225
SWIDTH 624 0
DWIDTH 13 0
BBX 10 16 1 0
BITMAP
0700
0600
0C00
0000
0E00
3F80
7BC0
61C0
01C0
3FC0
7FC0
E1C0
E1C0
E1C0
7FC0
7DC0
ENDCHAR
STARTCHAR 00E2
ENCODING 226
SWIDTH 624 0
DWIDTH 13 0
BBX 10 16 1 0
BITMAP
1E00
3B00
7180
0000
0E00
3F80
7BC0
61C0
01C0
3FC0
7FC0
E1C0
E1C0
E1C0
7FC0
7DC0
ENDCHAR
STARTCHAR 00E3
ENCODING 227
SWIDTH 624 0
DWIDTH 13 0
BBX 10 16 1 0
BITMAP
3D80
2780
2300
0000
0E00
3F80
7BC0
61C0
01C0
3FC0
7FC0
E1C0
E1C0
E1C0
7FC0
7DC0
ENDCHAR
STARTCHAR 00E4
ENCODING 228
SWIDTH 624 0
DWIDTH 13 0
BBX 10 16 1 0
BITMAP
3380
7380
3100
0000
0E00
3F80
7BC0
61C0
01C0
3FC0
7FC0
E1C0
E1C0
E1C0
7FC0
7DC0
ENDCHAR
STARTCHAR 00E5
ENCODING 229
SWIDTH 624 0
DWIDTH 13 0
BBX 10 17 1 0
BITMAP
0E00
1300
1300
1F00
0400
0E00
3F80
7BC0
61C0
01C0
3FC0
7FC0
E1C0
E1C0
E1C0
7FC0
7DC0
ENDCHAR
STARTCHAR 00E6
ENCODING 230
SWIDTH 624 0
DWIDTH 13 0
BBX 11 12 1 0
BITMAP
3180
FFC0
CEE0
CC60
0C60
7FE0
FFE0
CC00
CC00
CC60
FFE0
7BC0
ENDCHAR
STARTCHAR 00E7
ENCODING 231
SWIDTH 624 0
DWIDTH 13 0
BBX 10 16 1 -4
BITMAP
0E00
3F80
7FC0
61C0
E000
E000
E000
E000
61C0
71C0
7F80
3F00
0800
0E00
0300
1F00
ENDCHAR
STARTCHAR 00E8
ENCODING 232
SWIDTH 624 0
DWIDTH 13 0
BBX 10 16 1 0
BITMAP
3800
1C00
0E00
0000
0E00
3F80
7380
61C0
E1C0
FFC0
FFC0
E000
6000
71C0
7F80
3F00
ENDCHAR
STARTCHAR 00E9
ENCODING 233
SWIDTH 624 0
DWIDTH 13 0
BBX 10 16 1 0
BITMAP
0700
0600
0C00
0000
0E00
3F80
7380
61C0
E1C0
FFC0
FFC0
E000
6000
71C0
7F80
3F00
ENDCHAR
STARTCHAR 00EA
ENCODING 234
SWIDTH 624 0
DWIDTH 13 0
BBX 10 16 1 0
BITMAP
1E00
3B00
7180
0000
0E00
3F80
7380
61C0
E1C0
FFC0
FFC0
E000
6000
71C0
7F80
3F00
ENDCHAR
STARTCHAR 00EB
ENCODING 235
SWIDTH 624 0
DWIDTH 13 0
BBX 10 16 1 0
BITMAP
3380
7380
3100
0000
0E00
3F80
7380
61C0
E1C0
FFC0
FFC0
E000
6000
71C0
7F80
3F00
ENDCHAR
STARTCHAR 00EC
ENCODING 236
SWIDTH 624 0
DWIDTH 13 0
BBX 10 16 2 0
BITMAP
3800
1C00
0C00
0000
0000
FC00
FC00
0C00
0C00
0C00
0C00
0C00
0C00
0C00
FFC0
FFC0
ENDCHAR
STARTCHAR 00ED
ENCODING 237
SWIDTH 624 0
DWIDTH 13 0
BBX 10 16 2 0
BITMAP
0E00
0C00
1800
0000
0000
FC00
FC00
0C00
0C00
0C00
0C00
0C00
0C00
0C00
FFC0
FFC0
ENDCHAR
STARTCHAR 00EE
ENCODING 238
SWIDTH 624 0
DWIDTH 13 0
BBX 10 16 2 0
BITMAP
3C00
7600
E300
0000
0000
FC00
FC00
0C00
0C00
0C00
0C00
0C00
0C00
0C00
FFC0
FFC0
ENDCHAR
STARTCHAR 00EF
ENCODING 239
SWIDTH 624 0
DWIDTH 13 0
BBX 10 16 2 0
BITMAP
6700
E700
6200
0000
0000
FC00
FC00
0C00
0C00
0C00
0C00
0C00
0C00
0C00
FFC0
FFC0
ENDCHAR
STARTCHAR 00F0
ENCODING 240
SWIDTH 624 0
DWIDTH 13 0
BBX 10 15 1 0
BITMAP
3980
1F80
3E00
7700
4700
0380
3FC0
7FC0
E1C0
E0C0
E0C0
E0C0
71C0
7F80
1F00
ENDCHAR
STARTCHAR 00F1
ENCODING 241
SWIDTH 624 0
DWIDTH 13 0
BBX 9 16 2 0
BITMAP
7B00
4F00
4600
0000
0C00
DF00
FF80
C380
C380
C380
C380
C380
C380
C380
C380
C380
ENDCHAR
STARTCHAR 00F2
ENCODING 242
SWIDTH 624 0
DWIDTH 13 0
BBX 10 16 1 0
BITMAP
3800
1C00
0E00
0000
0E00
3F80
7F80
61C0
E1C0
E1C0
E1C0
E1C0
61C0
71C0
7F80
3F00
ENDCHAR
STARTCHAR 00F3
ENCODING 243
SWIDTH 624 0
DWIDTH 13 0
BBX 10 16 1 0
BITMAP
0700
0600
0C00
0000
0E00
3F80
7F80
61C0
E1C0
E1C0
E1C0
E1C0
61C0
71C0
7F80
3F00
ENDCHAR
STARTCHAR 00F4
ENCODING 244
SWIDTH 624 0
DWIDTH 13 0
BBX 10 16 1 0
BITMAP
1E00
3B00
7180
0000
0E00
3F80
7F80
61C0
E1C0
E1C0
E1C0
E1C0
61C0
71C0
7F80
3F00
ENDCHAR
STARTCHAR 00F5
ENCODING 245
SWIDTH 624 0
DWIDTH 13 0
BBX 10 16 1 0
BITMAP
3D80
2780
2300
0000
0E00
3F80
7F80
61C0
E1C0
E1C0
E1C0
E1C0
61C0
71C0
7F80
3F00
ENDCHAR
STARTCHAR 00F6
ENCODING 246
SWIDTH 624 0
DWIDTH 13 0
BBX 10 16 1 0
BITMAP
3380
7380
3100
0000
0E00
3F80
7F80
61C0
E1C0
E1C0
E1C0
E1C0
61C0
71C0
7F80
3F00
ENDCHAR
STARTCHAR 00F7
ENCODING 247
SWIDTH 624 0
DWIDTH 13 0
BBX 8 11 2 1
BITMAP
1C
1C
00
00
FF
FF
00
00
1C
1C
08
ENDCHAR
STARTCHAR 00F8
ENCODING 248
SWIDTH 624 0
DWIDTH 13 0
BBX 10 13 1 -1
BITMAP
0EC0
3FC0
7F80
63C0
E7C0
E7C0
EDC0
F9C0
79C0
71C0
7F80
FF00
C000
ENDCHAR
STARTCHAR 00F9
ENCODING 249
SWIDTH 624 0
DWIDTH 13 0
BBX 9 16 2 0
BITMAP
7000
3800
1C00
0000
0000
C380
C380
C380
C380
C380
C380
C380
C380
E380
FF00
7E00
ENDCHAR
STARTCHAR 00FA
ENCODING 250
SWIDTH 624 0
DWIDTH 13 0
BBX 9 16 2 0
BITMAP
0E00
0C00
1800
0000
0000
C380
C380
C380
C380
C380
C380
C380
C380
E380
FF00
7E00
ENDCHAR
STARTCHAR 00FB
ENCODING 251
SWIDTH 624 0
DWIDTH 13 0
BBX 9 16 2 0
BITMAP
3C00
7600
E300
0000
0000
C380
C380
C380
C380
C380
C380
C380
C380
E380
FF00
7E00
ENDCHAR
STARTCHAR 00FC
ENCODING 252
SWIDTH 624 0
DWIDTH 13 0
BBX 9 16 2 0
BITMAP
6700
E700
6200
0000
0000
C380
C380
C380
C380
C380
C380
C380
C380
E380
FF00
7E00
ENDCHAR
STARTCHAR 00FD
ENCODING 253
SWIDTH 624 0
DWIDTH 13 0
BBX 10 20 1 -4
BITMAP
0700
0600
0C00
0000
0000
E0C0
61C0
71C0
7180
3380
3B80
1B00
1F00
1E00
0E00
0E00
0C00
1C00
1C00
1800
ENDCHAR
STARTCHAR 00FE
ENCODING 254
SWIDTH 624 0
DWIDTH 13 0
BBX 9 19 2 -4
BITMAP
C000
C000
C000
CC00
DF00
FF80
C380
C380
C380
C380
C380
C380
E380
FF00
DE00
C000
C000
C000
C000
ENDCHAR
STARTCHAR 00FF
ENCODING 255
SWIDTH 624 0
DWIDTH 13 0
BBX 10 20 1 -4
BITMAP
3380
7380
3100
0000
0000
E0C0
61C0
71C0
7180
3380
3B80
1B00
1F00
1E00
0E00
0E00
0C00
1C00
1C00
1800
ENDCHAR
STARTCHAR 0100
ENCODING 256
SWIDTH 624 0
DWIDTH 13 0
BBX 11 19 1 0
BITMAP
3F00
3F00
0000
0000
1E00
1E00
1F00
1B00
3B00
3B00
3380
3380
7180
7F80
7FC0
61C0
E0C0
E0C0
E0E0
ENDCHAR
STARTCHAR 0101
ENCODING 257
SWIDTH 624 0
DWIDTH 13 0
BBX 10 16 1 0
BITMAP
3F00
3F00
0000
0000
0E00
3F80
7BC0
61C0
01C0
3FC0
7FC0
E1C0
E1C0
E1C0
7FC0
7DC0
ENDCHAR
STARTCHAR 0102
ENCODING 258
SWIDTH 624 0
DWIDTH 13 0
BBX 11 20 1 0
BITMAP
3180
3380
1F00
0000
0000
1E00
1E00
1F00
1B00
3B00
3B00
3380
3380
7180
7F80
7FC0
61C0
E0C0
E0C0
E0E0
ENDCHAR
STARTCHAR 0103
ENCODING 259
SWIDTH 624 0
DWIDTH 13 0
BBX 10 16 1 0
BITMAP
3180
3F00
0E00
0000
0E00
3F80
7BC0
61C0
01C0
3FC0
7FC0
E1C0
E1C0
E1C0
7FC0
7DC0
ENDCHAR
STARTCHAR 0104
ENCODING 260
SWIDTH 624 0
DWIDTH 13 0
BBX 11 19 1 -4
BITMAP
1E00
1E00
1F00
1B00
3B00
3B00
3380
3380
7180
7F80
7FC0
61C0
E0C0
E0C0
E0E0
00C0
0180
0180
01E0
ENDCHAR
STARTCHAR 0105
ENCODING 261
SWIDTH 624 0
DWIDTH 13 0
BBX 11 16 1 -4
BITMAP
0E00
3F80
7BC0
61C0
01C0
3FC0
7FC0
E1C0
E1C0
E1C0
7FC0
7DC0
0180
0300
0380
03E0
ENDCHAR
STARTCHAR 0106
ENCODING 262
SWIDTH 624 0
DWIDTH 13 0
BBX 10 20 1 0
BITMAP
0380
0700
0E00
0000
0000
3F00
7F80
71C0
61C0
E000
E000
E000
E000
E000
E000
E000
61C0
71C0
7F80
3F00
ENDCHAR
STARTCHAR 0107
ENCODING 263
SWIDTH 624 0
DWIDTH 13 0
BBX 10 16 1 0
BITMAP
0700
0600
0C00
0000
0E00
3F80
7FC0
61C0
E000
E000
E000
E000
61C0
71C0
7F80
3F00
ENDCHAR
STARTCHAR 0108
ENCODING 264
SWIDTH 624 0
DWIDTH 13 0
BBX 10 20 1 0
BITMAP
0E00
1F00
3380
0000
0000
3F00
7F80
71C0
61C0
E000
E000
E000
E000
E000
E000
E000
61C0
71C0
7F80
3F00
ENDCHAR
STARTCHAR 0109
ENCODING 265
SWIDTH 624 0
DWIDTH 13 0
BBX 10 16 1 0
BITMAP
1E00
3B00
7180
0000
0E00
3F80
7FC0
61C0
E000
E000
E000
E000
61C0
71C0
7F80
3F00
ENDCHAR
STARTCHAR 010A
ENCODING 266
SWIDTH 624 0
DWIDTH 13 0
BBX 10 19 1 0
BITMAP
0E00
0E00
0000
0000
3F00
7F80
71C0
61C0
E000
E000
E000
E000
E000
E000
E000
61C0
71C0
7F80
3F00
ENDCHAR
STARTCHAR 010B
ENCODING 267
SWIDTH 624 0
DWIDTH 13 0
BBX 10 16 1 0
BITMAP
0C00
1E00
0C00
0000
0E00
3F80
7FC0
61C0
E000
E000
E000
E000
61C0
71C0
7F80
3F00
ENDCHAR
STARTCHAR 010C
ENCODING 268
SWIDTH 624 0
DWIDTH 13 0
BBX 10 20 1 0
BITMAP
7180
3B00
1E00
0000
0000
3F00
7F80
71C0
61C0
E000
E000
E000
E000
E000
E000
E000
61C0
71C0
7F80
3F00
ENDCHAR
STARTCHAR 010D
ENCODING 269
SWIDTH 624 0
DWIDTH 13 0
BBX 10 16 1 0
BITMAP
3380
1F00
0E00
0000
0E00
3F80
7FC0
61C0
E000
E000
E000
E000
61C0
71C0
7F80
3F00
ENDCHAR
STARTCHAR 010E
ENCODING 270
SWIDTH 624 0
DWIDTH 13 0
BBX 9 20 2 0
BITMAP
E300
7600
3C00
0000
0000
FE00
FF00
C780
C380
C180
C180
C180
C180
C180
C180
C180
C380
C780
FF00
FE00
ENDCHAR
STARTCHAR 010F
ENCODING 271
SWIDTH 624 0
DWIDTH 13 0
BBX 13 16 1 0
BITMAP
0018
01D0
01F0
01C0
19C0
7FC0
7FC0
E1C0
E1C0
E1C0
E1C0
E1C0
E1C0
E3C0
7FC0
3DC0
ENDCHAR
STARTCHAR 0110
ENCODING 272
SWIDTH 624 0
DWIDTH 13 0
BBX 10 15 1 0
BITMAP
7F00
7F80
63C0
61C0
60C0
60C0
F8C0
F8C0
F8C0
60C0
60C0
61C0
63C0
7F80
7F00
ENDCHAR
STARTCHAR 0111
ENCODING 273
SWIDTH 624 0
DWIDTH 13 0
BBX 11 15 1 0
BITMAP
01C0
01C0
0FE0
01C0
01C0
3FC0
7FC0
71C0
61C0
E1C0
E1C0
61C0
71C0
7FC0
3DC0
ENDCHAR
STARTCHAR 0112
ENCODING 274
SWIDTH 624 0
DWIDTH 13 0
BBX 9 19 2 0
BITMAP
7E00
7E00
0000
0000
FF80
FF80
C000
C000
C000
C000
FF00
FF00
C000
C000
C000
C000
C000
FF80
FF80
ENDCHAR
STARTCHAR 0113
ENCODING 275
SWIDTH 624 0
DWIDTH 13 0
BBX 10 16 1 0
BITMAP
3F00
3F00
0000
0000
0E00
3F80
7380
61C0
E1C0
FFC0
FFC0
E000
6000
71C0
7F80
3F00
ENDCHAR
STARTCHAR 0114
ENCODING 276
SWIDTH 624 0
DWIDTH 13 0
BBX 9 20 2 0
BITMAP
6300
6700
3E00
0000
0000
FF80
FF80
C000
C000
C000
C000
FF00
FF00
C000
C000
C000
C000
C000
FF80
FF80
ENDCHAR
STARTCHAR 0115
ENCODING 277
SWIDTH 624 0
DWIDTH 13 0
BBX 10 16 1 0
BITMAP
3180
3F00
0E00
0000
0E00
3F80
7380
61C0
E1C0
FFC0
FFC0
E000
6000
71C0
7F80
3F00
ENDCHAR
STARTCHAR 0116
ENCODING 278
SWIDTH 624 0
DWIDTH 13 0
BBX 9 19 2 0
BITMAP
1C00
1C00
0000
0000
FF80
FF80
C000
C000
C000
C000
FF00
FF00
C000
C000
C000
C000
C000
FF80
FF80
ENDCHAR
STARTCHAR 0117
ENCODING 279
SWIDTH 624 0
DWIDTH 13 0
BBX 10 16 1 0
BITMAP
0C00
1E00
0C00
0000
0E00
3F80
7380
61C0
E1C0
FFC0
FFC0
E000
6000
71C0
7F80
3F00
ENDCHAR
STARTCHAR 0118
ENCODING 280
SWIDTH 624 0
DWIDTH 13 0
BBX 9 19 2 -4
BITMAP
FF80
FF80
C000
C000
C000
C000
FF00
FF00
C000
C000
C000
C000
C000
FF80
FF80
0600
0600
0E00
0780
ENDCHAR
STARTCHAR 0119
ENCODING 281
SWIDTH 624 0
DWIDTH 13 0
BBX 10 16 1 -4
BITMAP
0E00
3F80
7380
61C0
E1C0
FFC0
FFC0
E000
6000
71C0
7F80
3F00
0600
0C00
0C00
0F00
ENDCHAR
STARTCHAR 011A
ENCODING 282
SWIDTH 624 0
DWIDTH 13 0
BBX 9 20 2 0
BITMAP
E300
7600
3C00
0000
0000
FF80
FF80
C000
C000
C000
C000
FF00
FF00
C000
C000
C000
C000
C000
FF80
FF80
ENDCHAR
STARTCHAR 011B
ENCODING 283
SWIDTH 624 0
DWIDTH 13 0
BBX 10 16 1 0
BITMAP
3380
1F00
0E00
0000
0E00
3F80
7380
61C0
E1C0
FFC0
FFC0
E000
6000
71C0
7F80
3F00
ENDCHAR
STARTCHAR 011C
ENCODING 284
SWIDTH 624 0
DWIDTH 13 0
BBX 10 20 1 0
BITMAP
0E00
1F00
3380
0000
0000
3F00
7F80
71C0
61C0
E000
E000
E000
E7C0
E7C0
E0C0
E0C0
61C0
71C0
7F80
3F00
ENDCHAR
STARTCHAR 011D
ENCODING 285
SWIDTH 624 0
DWIDTH 13 0
BBX 10 20 1 -4
BITMAP
1E00
3B00
7180
0000
1800
3FC0
7FC0
61C0
E1C0
E1C0
E1C0
61C0
71C0
7FC0
3FC0
01C0
01C0
03C0
3F80
3E00
ENDCHAR
STARTCHAR 011E
ENCODING 286
SWIDTH 624 0
DWIDTH 13 0
BBX 10 20 1 0
BITMAP
3180
3380
1F00
0000
0000
3F00
7F80
71C0
61C0
E000
E000
E000
E7C0
E7C0
E0C0
E0C0
61C0
71C0
7F80
3F00
ENDCHAR
STARTCHAR 011F
ENCODING 287
SWIDTH 624 0
DWIDTH 13 0
BBX 10 20 1 -4
BITMAP
3180
3F00
0E00
0000
1800
3FC0
7FC0
61C0
E1C0
E1C0
E1C0
61C0
71C0
7FC0
3FC0
01C0
01C0
03C0
3F80
3E00
ENDCHAR
STARTCHAR 0120
ENCODING 288
SWIDTH 624 0
DWIDTH 13 0
BBX 10 19 1 0
BITMAP
0E00
0E00
0000
0000
3F00
7F80
71C0
61C0
E000
E000
E000
E7C0
E7C0
E0C0
E0C0
61C0
71C0
7F80
3F00
ENDCHAR
STARTCHAR 0121
ENCODING 289
SWIDTH 624 0
DWIDTH 13 0
BBX 10 20 1 -4
BITMAP
0C00
1E00
0C00
0000
1800
3FC0
7FC0
61C0
E1C0
E1C0
E1C0
61C0
71C0
7FC0
3FC0
01C0
01C0
03C0
3F80
3E00
ENDCHAR
STARTCHAR 0122
ENCODING 290
SWIDTH 624 0
DWIDTH 13 0
BBX 10 20 1 -5
BITMAP
3F00
7F80
71C0
61C0
E000
E000
E000
E7C0
E7C0
E0C0
E0C0
61C0
71C0
7F80
3F00
0000
0000
0E00
0C00
1C00
ENDCHAR
STARTCHAR 0123
ENCODING 291
SWIDTH 624 0
DWIDTH 13 0
BBX 10 20 1 -4
BITMAP
0600
0E00
1C00
0000
1800
3FC0
7FC0
61C0
E1C0
E1C0
E1C0
61C0
71C0
7FC0
3FC0
01C0
01C0
03C0
3F80
3E00
ENDCHAR
STARTCHAR 0124
ENCODING 292
SWIDTH 624 0
DWIDTH 13 0
BBX 9 20 2 0
BITMAP
1C00
3E00
6700
0000
0000
C380
C380
C380
C380
C380
C380
FF80
FF80
C380
C380
C380
C380
C380
C380
C380
ENDCHAR
STARTCHAR 0125
ENCODING 293
SWIDTH 624 0
DWIDTH 13 0
BBX 11 20 0 0
BITMAP
3000
7800
CC00
0200
0000
3000
3000
3000
3300
37C0
3FE0
30E0
30E0
30E0
30E0
30E0
30E0
30E0
30E0
30E0
ENDCHAR
STARTCHAR 0126
ENCODING 294
SWIDTH 624 0
DWIDTH 13 0
BBX 12 15 0 0
BITMAP
30E0
30E0
FFF0
FFF0
30E0
30E0
3FE0
3FE0
30E0
30E0
30E0
30E0
30E0
30E0
30E0
ENDCHAR
STARTCHAR 0127
ENCODING 295
SWIDTH 624 0
DWIDTH 13 0
BBX 11 15 0 0
BITMAP
3000
3000
FE00
3000
3000
37C0
3FC0
38E0
30E0
30E0
30E0
30E0
30E0
30E0
30E0
ENDCHAR
STARTCHAR 0128
ENCODING 296
SWIDTH 624 0
DWIDTH 13 0
BBX 9 20 2 0
BITMAP
3300
7B00
4E00
0000
0000
FF80
FF80
1C00
1C00
1C00
1C00
1C00
1C00
1C00
1C00
1C00
1C00
1C00
FF80
FF80
ENDCHAR
STARTCHAR 0129
ENCODING 297
SWIDTH 624 0
DWIDTH 13 0
BBX 10 16 2 0
BITMAP
7B00
4F00
4600
0000
0000
FC00
FC00
0C00
0C00
0C00
0C00
0C00
0C00
0C00
FFC0
FFC0
ENDCHAR
STARTCHAR 012A
ENCODING 298
SWIDTH 624 0
DWIDTH 13 0
BBX 9 19 2 0
BITMAP
7E00
7E00
0000
0000
FF80
FF80
1C00
1C00
1C00
1C00
1C00
1C00
1C00
1C00
1C00
1C00
1C00
FF80
FF80
ENDCHAR
STARTCHAR 012B
ENCODING 299
SWIDTH 624 0
DWIDTH 13 0
BBX 10 16 2 0
BITMAP
7E00
7E00
0000
0000
0000
FC00
FC00
0C00
0C00
0C00
0C00
0C00
0C00
0C00
FFC0
FFC0
ENDCHAR
STARTCHAR 012C
ENCODING 300
SWIDTH 624 0
DWIDTH 13 0
BBX 9 20 2 0
BITMAP
6300
6700
3E00
0000
0000
FF80
FF80
1C00
1C00
1C00
1C00
1C00
1C00
1C00
1C00
1C00
1C00
1C00
FF80
FF80
ENDCHAR
STARTCHAR 012D
ENCODING 301
SWIDTH 624 0
DWIDTH 13 0
BBX 10 16 2 0
BITMAP
6300
7E00
1C00
0000
0000
FC00
FC00
0C00
0C00
0C00
0C00
0C00
0C00
0C00
FFC0
FFC0
ENDCHAR
STARTCHAR 012E
ENCODING 302
SWIDTH 624 0
DWIDTH 13 0
BBX 9 19 2 -4
BITMAP
FF80
FF80
1C00
1C00
1C00
1C00
1C00
1C00
1C00
1C00
1C00
1C00
1C00
FF80
FF80
1800
3000
3000
3C00
ENDCHAR
STARTCHAR 012F
ENCODING 303
SWIDTH 624 0
DWIDTH 13 0
BBX 10 20 2 -4
BITMAP
1C00
1C00
1C00
0000
0000
FC00
FC00
0C00
0C00
0C00
0C00
0C00
0C00
0C00
FFC0
FFC0
1800
1800
3800
1E00
ENDCHAR
STARTCHAR 0130
ENCODING 304
SWIDTH 624 0
DWIDTH 13 0
BBX 9 19 2 0
BITMAP
1C00
1C00
0000
0000
FF80
FF80
1C00
1C00
1C00
1C00
1C00
1C00
1C00
1C00
1C00
1C00
1C00
FF80
FF80
ENDCHAR
STARTCHAR 0131
ENCODING 305
SWIDTH 624 0
DWIDTH 13 0
BBX 10 11 2 0
BITMAP
FC00
FC00
0C00
0C00
0C00
0C00
0C00
0C00
0C00
FFC0
FFC0
ENDCHAR
STARTCHAR 0132
ENCODING 306
SWIDTH 624 0
DWIDTH 13 0
BBX 10 15 1 0
BITMAP
E7C0
E7C0
E0C0
E0C0
E0C0
E0C0
E0C0
E0C0
E0C0
E0C0
E0C0
E0C0
E1C0
EF80
EF00
ENDCHAR
STARTCHAR 0133
ENCODING 307
SWIDTH 624 0
DWIDTH 13 0
BBX 10 19 1 -3
BITMAP
61C0
F1C0
61C0
0000
0000
61C0
61C0
61C0
61C0
61C0
61C0
61C0
61C0
61C0
61C0
61C0
01C0
1F80
1F00
ENDCHAR
STARTCHAR 0134
ENCODING 308
SWIDTH 624 0
DWIDTH 13 0
BBX 10 20 1 0
BITMAP
0700
0F80
1DC0
0000
0000
1FC0
1FC0
01C0
01C0
01C0
01C0
01C0
01C0
01C0
01C0
01C0
C1C0
E380
7F80
3F00
ENDCHAR
STARTCHAR 0135
ENCODING 309
SWIDTH 624 0
DWIDTH 13 0
BBX 9 20 2 -4
BITMAP
1E00
3700
6380
0000
0000
FF00
FF00
0700
0700
0700
0700
0700
0700
0700
0700
0700
0600
FE00
FC00
F800
ENDCHAR
STARTCHAR 0136
ENCODING 310
SWIDTH 624 0
DWIDTH 13 0
BBX 10 20 2 -5
BITMAP
C180
C380
C300
C700
C600
CE00
FE00
FC00
CE00
CE00
C700
C700
C380
C380
C1C0
0000
0000
1C00
1800
3800
ENDCHAR
STARTCHAR 0137
ENCODING 311
SWIDTH 624 0
DWIDTH 13 0
BBX 9 20 2 -5
BITMAP
C000
C000
C000
C000
C380
C300
C700
CE00
FE00
FC00
CE00
C700
C700
C380
C380
0000
0000
1C00
1800
3800
ENDCHAR
STARTCHAR 0138
ENCODING 312
SWIDTH 624 0
DWIDTH 13 0
BBX 9 11 2 0
BITMAP
C380
C300
C700
CE00
FE00
FC00
CE00
C700
C700
C380
C380
ENDCHAR
STARTCHAR 0139
ENCODING 313
SWIDTH 624 0
DWIDTH 13 0
BBX 9 20 2 0
BITMAP
3800
7000
6000
0000
0000
E000
E000
E000
E000
E000
E000
E000
E000
E000
E000
E000
E000
E000
FF80
FF80
ENDCHAR
STARTCHAR 013A
ENCODING 314
SWIDTH 624 0
DWIDTH 13 0
BBX 11 20 1 0
BITMAP
0700
0E00
0C00
1000
0000
FC00
FC00
1C00
1C00
1C00
1C00
1C00
1C00
1C00
1C00
1C00
1C00
1C00
0FE0
07E0
ENDCHAR
STARTCHAR 013B
ENCODING 315
SWIDTH 624 0
DWIDTH 13 0
BBX 9 20 2 -5
BITMAP
E000
E000
E000
E000
E000
E000
E000
E000
E000
E000
E000
E000
E000
FF80
FF80
0000
0000
1C00
1800
3800
ENDCHAR
STARTCHAR 013C
ENCODING 316
SWIDTH 624 0
DWIDTH 13 0
BBX 11 20 1 -5
BITMAP
FC00
FC00
1C00
1C00
1C00
1C00
1C00
1C00
1C00
1C00
1C00
1C00
1C00
0FE0
07E0
0000
0000
0E00
0C00
1C00
ENDCHAR
STARTCHAR 013D
ENCODING 317
SWIDTH 624 0
DWIDTH 13 0
BBX 9 15 2 0
BITMAP
E380
E700
EE00
E000
E000
E000
E000
E000
E000
E000
E000
E000
E000
FF80
FF80
ENDCHAR
STARTCHAR 013E
ENCODING 318
SWIDTH 624 0
DWIDTH 13 0
BBX 12 16 1 0
BITMAP
0070
FCE0
FDC0
1C00
1C00
1C00
1C00
1C00
1C00
1C00
1C00
1C00
1C00
1C00
0FE0
07E0
ENDCHAR
STARTCHAR 013F
ENCODING 319
SWIDTH 624 0
DWIDTH 13 0
BBX 9 15 2 0
BITMAP
E000
E000
E000
E000
E000
E000
E700
E780
E780
E300
E000
E000
E000
FF80
FF80
ENDCHAR
STARTCHAR 0140
ENCODING 320
SWIDTH 624 0
DWIDTH 13 0
BBX 12 15 0 0
BITMAP
FC00
FC00
0C00
0C00
0C00
0C00
0CE0
0CF0
0CF0
0C60
0C00
0C00
0E00
0FE0
07E0
ENDCHAR
STARTCHAR 0141
ENCODING 321
SWIDTH 624 0
DWIDTH 13 0
BBX 11 15 0 0
BITMAP
3800
3800
3800
3800
3B00
3F00
3E00
7800
F800
F800
3800
3800
3800
3FE0
3FE0
ENDCHAR
STARTCHAR 0142
ENCODING 322
SWIDTH 624 0
DWIDTH 13 0
BBX 11 15 1 0
BITMAP
FC00
FC00
1C00
1C00
1D80
1F80
1F00
3C00
7C00
5C00
1C00
1C00
1C00
0FE0
07E0
ENDCHAR
STARTCHAR 0143
ENCODING 323
SWIDTH 624 0
DWIDTH 13 0
BBX 10 20 1 0
BITMAP
0380
0700
0E00
0000
0000
F0C0
F0C0
F8C0
F8C0
F8C0
ECC0
ECC0
ECC0
E6C0
E6C0
E6C0
E3C0
E3C0
E3C0
E1C0
ENDCHAR
STARTCHAR 0144
ENCODING 324
SWIDTH 624 0
DWIDTH 13 0
BBX 9 16 2 0
BITMAP
0E00
0C00
1800
0000
0C00
DF00
FF80
C380
C380
C380
C380
C380
C380
C380
C380
C380
ENDCHAR
STARTCHAR 0145
ENCODING 325
SWIDTH 624 0
DWIDTH 13 0
BBX 10 20 1 -5
BITMAP
F0C0
F0C0
F8C0
F8C0
F8C0
ECC0
ECC0
ECC0
E6C0
E6C0
E6C0
E3C0
E3C0
E3C0
E1C0
0000
0000
0E00
0C00
1C00
ENDCHAR
STARTCHAR 0146
ENCODING 326
SWIDTH 624 0
DWIDTH 13 0
BBX 9 17 2 -5
BITMAP
0C00
DF00
FF80
C380
C380
C380
C380
C380
C380
C380
C380
C380
0000
0000
1C00
1800
3800
ENDCHAR
STARTCHAR 0147
ENCODING 327
SWIDTH 624 0
DWIDTH 13 0
BBX 10 20 1 0
BITMAP
7180
3B00
1E00
0000
0000
F0C0
F0C0
F8C0
F8C0
F8C0
ECC0
ECC0
ECC0
E6C0
E6C0
E6C0
E3C0
E3C0
E3C0
E1C0
ENDCHAR
STARTCHAR 0148
ENCODING 328
SWIDTH 624 0
DWIDTH 13 0
BBX 9 16 2 0
BITMAP
6700
3E00
1C00
0000
0C00
DF00
FF80
C380
C380
C380
C380
C380
C380
C380
C380
C380
ENDCHAR
STARTCHAR 0149
ENCODING 329
SWIDTH 624 0
DWIDTH 13 0
BBX 11 16 0 0
BITMAP
7000
6000
C000
0000
0300
37C0
3FE0
30E0
30E0
30E0
30E0
30E0
30E0
30E0
30E0
30E0
ENDCHAR
STARTCHAR 014A
ENCODING 330
SWIDTH 624 0
DWIDTH 13 0
BBX 10 19 1 -4
BITMAP
F0C0
F0C0
F8C0
F8C0
FCC0
ECC0
ECC0
E6C0
E6C0
E7C0
E3C0
E3C0
E1C0
E1C0
E1C0
01C0
0FC0
0F80
0E00
ENDCHAR
STARTCHAR 014B
ENCODING 331
SWIDTH 624 0
DWIDTH 13 0
BBX 9 16 2 -4
BITMAP
0C00
DF00
FF80
E380
C380
C380
C380
C380
C380
C380
C380
C380
0380
1F00
1F00
1C00
ENDCHAR
STARTCHAR 014C
ENCODING 332
SWIDTH 624 0
DWIDTH 13 0
BBX 10 19 1 0
BITMAP
3F00
3F00
0000
0000
3F00
7F80
71C0
61C0
E1C0
E1C0
E1C0
E1C0
E1C0
E1C0
E1C0
61C0
71C0
7F80
3F00
ENDCHAR
STARTCHAR 014D
ENCODING 333
SWIDTH 624 0
DWIDTH 13 0
BBX 10 16 1 0
BITMAP
3F00
3F00
0000
0000
0E00
3F80
7F80
61C0
E1C0
E1C0
E1C0
E1C0
61C0
71C0
7F80
3F00
ENDCHAR
STARTCHAR 014E
ENCODING 334
SWIDTH 624 0
DWIDTH 13 0
BBX 10 20 1 0
BITMAP
3180
3380
1F00
0000
0000
3F00
7F80
71C0
61C0
E1C0
E1C0
E1C0
E1C0
E1C0
E1C0
E1C0
61C0
71C0
7F80
3F00
ENDCHAR
STARTCHAR 014F
ENCODING 335
SWIDTH 624 0
DWIDTH 13 0
BBX 10 16 1 0
BITMAP
3180
3F00
0E00
0000
0E00
3F80
7F80
61C0
E1C0
E1C0
E1C0
E1C0
61C0
71C0
7F80
3F00
ENDCHAR
STARTCHAR 0150
ENCODING 336
SWIDTH 624 0
DWIDTH 13 0
BBX 10 20 1 0
BITMAP
0CC0
1DC0
3B80
0000
0000
3F00
7F80
71C0
61C0
E1C0
E1C0
E1C0
E1C0
E1C0
E1C0
E1C0
61C0
71C0
7F80
3F00
ENDCHAR
STARTCHAR 0151
ENCODING 337
SWIDTH 624 0
DWIDTH 13 0
BBX 10 16 1 0
BITMAP
0CC0
1980
3300
0000
0E00
3F80
7F80
61C0
E1C0
E1C0
E1C0
E1C0
61C0
71C0
7F80
3F00
ENDCHAR
STARTCHAR 0152
ENCODING 338
SWIDTH 624 0
DWIDTH 13 0
BBX 11 15 1 0
BITMAP
7FE0
FFE0
C700
C700
C700
C700
C7E0
C7E0
C700
C700
C700
C700
E700
FFE0
77E0
ENDCHAR
STARTCHAR 0153
ENCODING 339
SWIDTH 624 0
DWIDTH 13 0
BBX 11 12 1 0
BITMAP
3180
FFC0
CEE0
CC60
CC60
CFE0
CFE0
CC00
CC00
CC60
FFC0
7BC0
ENDCHAR
STARTCHAR 0154
ENCODING 340
SWIDTH 624 0
DWIDTH 13 0
BBX 9 20 2 0
BITMAP
0700
0E00
1C00
0000
0000
FE00
FF00
C380
C180
C180
C180
C780
FF00
FE00
CE00
C600
C700
C300
C380
C380
ENDCHAR
STARTCHAR 0155
ENCODING 341
SWIDTH 624 0
DWIDTH 13 0
BBX 10 16 2 0
BITMAP
0E00
0C00
1800
0000
0E00
DF00
FF80
E180
E1C0
E000
E000
E000
E000
E000
E000
E000
ENDCHAR
STARTCHAR 0156
ENCODING 342
SWIDTH 624 0
DWIDTH 13 0
BBX 9 20 2 -5
BITMAP
FE00
FF00
C380
C180
C180
C180
C780
FF00
FE00
CE00
C600
C700
C300
C380
C380
0000
0000
1C00
1800
3800
ENDCHAR
STARTCHAR 0157
ENCODING 343
SWIDTH 624 0
DWIDTH 13 0
BBX 11 17 1 -5
BITMAP
0700
6F80
7FC0
70C0
70E0
7000
7000
7000
7000
7000
7000
7000
0000
0000
7000
6000
C000
ENDCHAR
STARTCHAR 0158
ENCODING 344
SWIDTH 624 0
DWIDTH 13 0
BBX 9 20 2 0
BITMAP
E300
7600
3C00
0000
0000
FE00
FF00
C380
C180
C180
C180
C780
FF00
FE00
CE00
C600
C700
C300
C380
C380
ENDCHAR
STARTCHAR 0159
ENCODING 345
SWIDTH 624 0
DWIDTH 13 0
BBX 10 16 2 0
BITMAP
6700
3E00
1C00
0000
0E00
DF00
FF80
E180
E1C0
E000
E000
E000
E000
E000
E000
E000
ENDCHAR
STARTCHAR 015A
ENCODING 346
SWIDTH 624 0
DWIDTH 13 0
BBX 10 20 1 0
BITMAP
0380
0700
0E00
0000
0000
3F00
7F80
61C0
E1C0
6000
7000
7E00
3F80
07C0
01C0
00C0
E0C0
F1C0
7F80
3F00
ENDCHAR
STARTCHAR 015B
ENCODING 347
SWIDTH 624 0
DWIDTH 13 0
BBX 10 16 1 0
BITMAP
0700
0600
0C00
0000
1E00
7F80
73C0
61C0
6000
7F00
3F80
01C0
00C0
E1C0
7FC0
3F80
ENDCHAR
STARTCHAR 015C
ENCODING 348
SWIDTH 624 0
DWIDTH 13 0
BBX 10 20 1 0
BITMAP
0E00
1F00
3380
0000
0000
3F00
7F80
61C0
E1C0
6000
7000
7E00
3F80
07C0
01C0
00C0
E0C0
F1C0
7F80
3F00
ENDCHAR
STARTCHAR 015D
ENCODING 349
SWIDTH 624 0
DWIDTH 13 0
BBX 10 16 1 0
BITMAP
1E00
3B00
7180
0000
1E00
7F80
73C0
61C0
6000
7F00
3F80
01C0
00C0
E1C0
7FC0
3F80
ENDCHAR
STARTCHAR 015E
ENCODING 350
SWIDTH 624 0
DWIDTH 13 0
BBX 10 19 1 -4
BITMAP
3F00
7F80
61C0
E1C0
6000
7000
7E00
3F80
07C0
01C0
00C0
E0C0
F1C0
7F80
3F00
0800
0E00
0300
1F00
ENDCHAR
STARTCHAR 015F
ENCODING 351
SWIDTH 624 0
DWIDTH 13 0
BBX 10 16 1 -4
BITMAP
1E00
7F80
73C0
61C0
6000
7F00
3F80
01C0
00C0
E1C0
7FC0
3F80
0800
0E00
0300
1F00
ENDCHAR
STARTCHAR 0160
ENCODING 352
SWIDTH 624 0
DWIDTH 13 0
BBX 10 20 1 0
BITMAP
7180
3B00
1E00
0000
0000
3F00
7F80
61C0
E1C0
6000
7000
7E00
3F80
07C0
01C0
00C0
E0C0
F1C0
7F80
3F00
ENDCHAR
STARTCHAR 0161
ENCODING 353
SWIDTH 624 0
DWIDTH 13 0
BBX 10 16 1 0
BITMAP
3380
1F00
0E00
0000
1E00
7F80
73C0
61C0
6000
7F00
3F80
01C0
00C0
E1C0
7FC0
3F80
ENDCHAR
STARTCHAR 0162
ENCODING 354
SWIDTH 624 0
DWIDTH 13 0
BBX 11 19 1 -4
BITMAP
FFE0
FFE0
0E00
0E00
0E00
0E00
0E00
0E00
0E00
0E00
0E00
0E00
0E00
0E00
0E00
0C00
0700
0300
0F00
ENDCHAR
STARTCHAR 0163
ENCODING 355
SWIDTH 624 0
DWIDTH 13 0
BBX 10 19 1 -4
BITMAP
1C00
1C00
1C00
1C00
FFC0
FFC0
1C00
1C00
1C00
1C00
1C00
1C00
1C00
1FC0
0FC0
0400
0300
0180
0F80
ENDCHAR
STARTCHAR 0164
ENCODING 356
SWIDTH 624 0
DWIDTH 13 0
BBX 11 20 1 0
BITMAP
7180
3B00
1E00
0000
0000
FFE0
FFE0
0E00
0E00
0E00
0E00
0E00
0E00
0E00
0E00
0E00
0E00
0E00
0E00
0E00
ENDCHAR
STARTCHAR 0165
ENCODING 357
SWIDTH 624 0
DWIDTH 13 0
BBX 10 16 1 0
BITMAP
00C0
1CC0
1D80
1C00
1C00
FFC0
FFC0
1C00
1C00
1C00
1C00
1C00
1C00
1C00
1FC0
0FC0
ENDCHAR
STARTCHAR 0166
ENCODING 358
SWIDTH 624 0
DWIDTH 13 0
BBX 11 15 1 0
BITMAP
FFE0
FFE0
0E00
0E00
0E00
0E00
0E00
7F80
7F80
0E00
0E00
0E00
0E00
0E00
0E00
ENDCHAR
STARTCHAR 0167
ENCODING 359
SWIDTH 624 0
DWIDTH 13 0
BBX 10 15 1 0
BITMAP
1C00
1C00
1C00
1C00
FFC0
FFC0
1C00
1C00
7F80
7F80
1C00
1C00
1C00
1FC0
0FC0
ENDCHAR
STARTCHAR 0168
ENCODING 360
SWIDTH 624 0
DWIDTH 13 0
BBX 10 20 1 0
BITMAP
1980
3D80
2700
0000
0000
E1C0
E1C0
E1C0
E1C0
E1C0
E1C0
E1C0
E1C0
E1C0
E1C0
E1C0
61C0
71C0
7F80
3F00
ENDCHAR
STARTCHAR 0169
ENCODING 361
SWIDTH 624 0
DWIDTH 13 0
BBX 9 16 2 0
BITMAP
7B00
4F00
4600
0000
0000
C380
C380
C380
C380
C380
C380
C380
C380
E380
FF00
7E00
ENDCHAR
STARTCHAR 016A
ENCODING 362
SWIDTH 624 0
DWIDTH 13 0
BBX 10 19 1 0
BITMAP
3F00
3F00
0000
0000
E1C0
E1C0
E1C0
E1C0
E1C0
E1C0
E1C0
E1C0
E1C0
E1C0
E1C0
61C0
71C0
7F80
3F00
ENDCHAR
STARTCHAR 016B
ENCODING 363
SWIDTH 624 0
DWIDTH 13 0
BBX 9 16 2 0
BITMAP
7E00
7E00
0000
0000
0000
C380
C380
C380
C380
C380
C380
C380
C380
E380
FF00
7E00
ENDCHAR
STARTCHAR 016C
ENCODING 364
SWIDTH 624 0
DWIDTH 13 0
BBX 10 20 1 0
BITMAP
3180
3380
1F00
0000
0000
E1C0
E1C0
E1C0
E1C0
E1C0
E1C0
E1C0
E1C0
E1C0
E1C0
E1C0
61C0
71C0
7F80
3F00
ENDCHAR
STARTCHAR 016D
ENCODING 365
SWIDTH 624 0
DWIDTH 13 0
BBX 9 16 2 0
BITMAP
6300
7E00
1C00
0000
0000
C380
C380
C380
C380
C380
C380
C380
C380
E380
FF00
7E00
ENDCHAR
STARTCHAR 016E
ENCODING 366
SWIDTH 624 0
DWIDTH 13 0
BBX 10 20 1 0
BITMAP
0E00
1300
1300
1F00
0400
E1C0
E1C0
E1C0
E1C0
E1C0
E1C0
E1C0
E1C0
E1C0
E1C0
E1C0
61C0
71C0
7F80
3F00
ENDCHAR
STARTCHAR 016F
ENCODING 367
SWIDTH 624 0
DWIDTH 13 0
BBX 9 17 2 0
BITMAP
1C00
2600
2600
3E00
0800
0000
C380
C380
C380
C380
C380
C380
C380
C380
E380
FF00
7E00
ENDCHAR
STARTCHAR 0170
ENCODING 368
SWIDTH 624 0
DWIDTH 13 0
BBX 10 20 1 0
BITMAP
0CC0
1DC0
3B80
0000
0000
E1C0
E1C0
E1C0
E1C0
E1C0
E1C0
E1C0
E1C0
E1C0
E1C0
E1C0
61C0
71C0
7F80
3F00
ENDCHAR
STARTCHAR 0171
ENCODING 369
SWIDTH 624 0
DWIDTH 13 0
BBX 9 16 2 0
BITMAP
1980
3300
6600
0000
0000
C380
C380
C380
C380
C380
C380
C380
C380
E380
FF00
7E00
ENDCHAR
STARTCHAR 0172
ENCODING 370
SWIDTH 624 0
DWIDTH 13 0
BBX 10 19 1 -4
BITMAP
E1C0
E1C0
E1C0
E1C0
E1C0
E1C0
E1C0
E1C0
E1C0
E1C0
E1C0
61C0
71C0
7F80
3F00
0600
0C00
0C00
0F00
ENDCHAR
STARTCHAR 0173
ENCODING 371
SWIDTH 624 0
DWIDTH 13 0
BBX 9 15 2 -4
BITMAP
C380
C380
C380
C380
C380
C380
C380
C380
E380
FF00
7E00
1800
1800
3800
1E00
ENDCHAR
STARTCHAR 0174
ENCODING 372
SWIDTH 624 0
DWIDTH 13 0
BBX 12 20 0 0
BITMAP
0700
0F80
19C0
0000
0000
E630
6730
6730
6730
6530
6570
6D60
6D60
6D60
6960
69E0
39E0
39E0
39E0
38E0
ENDCHAR
STARTCHAR 0175
ENCODING 373
SWIDTH 624 0
DWIDTH 13 0
BBX 11 16 1 0
BITMAP
1E00
3B00
7180
0000
0000
CC60
CE60
CE60
CAC0
DAC0
DAC0
FAC0
72C0
73C0
73C0
7180
ENDCHAR
STARTCHAR 0176
ENCODING 374
SWIDTH 624 0
DWIDTH 13 0
BBX 11 20 1 0
BITMAP
0E00
1F00
3380
0000
0000
E0E0
E0C0
61C0
7180
3380
3B00
1F00
1E00
1E00
0E00
0E00
0E00
0E00
0E00
0E00
ENDCHAR
STARTCHAR 0177
ENCODING 375
SWIDTH 624 0
DWIDTH 13 0
BBX 10 20 1 -4
BITMAP
1E00
3B00
7180
0000
0000
E0C0
61C0
71C0
7180
3380
3B80
1B00
1F00
1E00
0E00
0E00
0C00
1C00
1C00
1800
ENDCHAR
STARTCHAR 0178
ENCODING 376
SWIDTH 624 0
DWIDTH 13 0
BBX 11 20 1 0
BITMAP
3100
7380
3380
0000
0000
E0E0
E0C0
61C0
7180
3380
3B00
1F00
1E00
1E00
0E00
0E00
0E00
0E00
0E00
0E00
ENDCHAR
STARTCHAR 0179
ENCODING 377
SWIDTH 624 0
DWIDTH 13 0
BBX 9 20 2 0
BITMAP
0700
0E00
1C00
0000
0000
FF80
FF80
0300
0700
0E00
0E00
1C00
1C00
3800
7000
7000
E000
E000
FF80
FF80
ENDCHAR
STARTCHAR 017A
ENCODING 378
SWIDTH 624 0
DWIDTH 13 0
BBX 9 16 2 0
BITMAP
0E00
0C00
1800
0000
0000
FF80
FF80
0700
0E00
1C00
3800
3800
7000
E000
FF80
FF80
ENDCHAR
STARTCHAR 017B
ENCODING 379
SWIDTH 624 0
DWIDTH 13 0
BBX 9 19 2 0
BITMAP
1C00
1C00
0000
0000
FF80
FF80
0300
0700
0E00
0E00
1C00
1C00
3800
7000
7000
E000
E000
FF80
FF80
ENDCHAR
STARTCHAR 017C
ENCODING 380
SWIDTH 624 0
DWIDTH 13 0
BBX 9 16 2 0
BITMAP
1C00
3C00
1800
0000
0000
FF80
FF80
0700
0E00
1C00
3800
3800
7000
E000
FF80
FF80
ENDCHAR
STARTCHAR 017D
ENCODING 381
SWIDTH 624 0
DWIDTH 13 0
BBX 9 20 2 0
BITMAP
E300
7600
3C00
0000
0000
FF80
FF80
0300
0700
0E00
0E00
1C00
1C00
3800
7000
7000
E000
E000
FF80
FF80
ENDCHAR
STARTCHAR 017E
ENCODING 382
SWIDTH 624 0
DWIDTH 13 0
BBX 9 16 2 0
BITMAP
6700
3E00
1C00
0000
0000
FF80
FF80
0700
0E00
1C00
3800
3800
7000
E000
FF80
FF80
ENDCHAR
STARTCHAR 017F
ENCODING 383
SWIDTH 624 0
DWIDTH 13 0
BBX 8 15 3 0
BITMAP
3F
7F
E0
E0
E0
E0
E0
E0
E0
E0
E0
E0
E0
E0
E0
ENDCHAR
STARTCHAR 018F
ENCODING 399
SWIDTH 624 0
DWIDTH 13 0
BBX 10 15 1 0
BITMAP
3F00
7F80
71C0
61C0
01C0
01C0
FFC0
FFC0
E1C0
E1C0
E1C0
61C0
71C0
7F80
3F00
ENDCHAR
STARTCHAR 0192
ENCODING 402
SWIDTH 624 0
DWIDTH 13 0
BBX 11 19 0 -4
BITMAP
03E0
07E0
0E00
0E00
0E00
7FE0
7FE0
0E00
0E00
0E00
0E00
0E00
0E00
0E00
0E00
0E00
FE00
FC00
F000
ENDCHAR
STARTCHAR 01A0
ENCODING 416
SWIDTH 624 0
DWIDTH 13 0
BBX 11 17 1 0
BITMAP
0060
0060
3F60
7FC0
71C0
61C0
E1C0
E1C0
E1C0
E1C0
E1C0
E1C0
E1C0
61C0
71C0
7F80
3F00
ENDCHAR
STARTCHAR 01A1
ENCODING 417
SWIDTH 624 0
DWIDTH 13 0
BBX 11 14 1 0
BITMAP
0060
0060
0E60
3FE0
7FC0
61C0
E1C0
E1C0
E1C0
E1C0
61C0
71C0
7F80
3F00
ENDCHAR
STARTCHAR 01AF
ENCODING 431
SWIDTH 624 0
DWIDTH 13 0
BBX 12 17 1 0
BITMAP
0030
0030
E1F0
E1C0
E1C0
E1C0
E1C0
E1C0
E1C0
E1C0
E1C0
E1C0
E1C0
61C0
71C0
7F80
3F00
ENDCHAR
STARTCHAR 01B0
ENCODING 432
SWIDTH 624 0
DWIDTH 13 0
BBX 11 14 2 0
BITMAP
0060
0060
00E0
C3C0
C380
C380
C380
C380
C380
C380
C380
E380
FF00
7E00
ENDCHAR
STARTCHAR 01E6
ENCODING 486
SWIDTH 624 0
DWIDTH 13 0
BBX 10 20 1 0
BITMAP
7180
3B00
1E00
0000
0000
3F00
7F80
71C0
61C0
E000
E000
E000
E7C0
E7C0
E0C0
E0C0
61C0
71C0
7F80
3F00
ENDCHAR
STARTCHAR 01E7
ENCODING 487
SWIDTH 624 0
DWIDTH 13 0
BBX 10 20 1 -4
BITMAP
3380
1F00
0E00
0000
1800
3FC0
7FC0
61C0
E1C0
E1C0
E1C0
61C0
71C0
7FC0
3FC0
01C0
01C0
03C0
3F80
3E00
ENDCHAR
STARTCHAR 01EA
ENCODING 490
SWIDTH 624 0
DWIDTH 13 0
BBX 10 19 1 -4
BITMAP
3F00
7F80
71C0
61C0
E1C0
E1C0
E1C0
E1C0
E1C0
E1C0
E1C0
61C0
71C0
7F80
3F00
0600
0C00
0C00
0F00
ENDCHAR
STARTCHAR 01EB
ENCODING 491
SWIDTH 624 0
DWIDTH 13 0
BBX 10 16 1 -4
BITMAP
0E00
3F80
7F80
61C0
E1C0
E1C0
E1C0
E1C0
61C0
71C0
7F80
3F00
0600
0C00
0C00
0F00
ENDCHAR
STARTCHAR 01F4
ENCODING 500
SWIDTH 624 0
DWIDTH 13 0
BBX 10 20 1 0
BITMAP
0380
0700
0E00
0000
0000
3F00
7F80
71C0
61C0
E000
E000
E000
E7C0
E7C0
E0C0
E0C0
61C0
71C0
7F80
3F00
ENDCHAR
STARTCHAR 01F5
ENCODING 501
SWIDTH 624 0
DWIDTH 13 0
BBX 10 20 1 -4
BITMAP
0700
0600
0C00
0000
1800
3FC0
7FC0
61C0
E1C0
E1C0
E1C0
61C0
71C0
7FC0
3FC0
01C0
01C0
03C0
3F80
3E00
ENDCHAR
STARTCHAR 01FC
ENCODING 508
SWIDTH 624 0
DWIDTH 13 0
BBX 12 20 0 0
BITMAP
01C0
0380
0700
0000
0000
1FF0
1FF0
1B00
3B00
3B00
3300
33E0
33E0
7300
7F00
7F00
6300
6300
63F0
E3F0
ENDCHAR
STARTCHAR 01FD
ENCODING 509
SWIDTH 624 0
DWIDTH 13 0
BBX 11 16 1 0
BITMAP
0700
0600
0C00
0000
3180
FFC0
CEE0
CC60
0C60
7FE0
FFE0
CC00
CC00
CC60
FFE0
7BC0
ENDCHAR
STARTCHAR 01FE
ENCODING 510
SWIDTH 624 0
DWIDTH 13 0
BBX 11 21 1 -1
BITMAP
0380
0700
0E00
0000
0060
3FC0
7FC0
71C0
63C0
E3C0
E7C0
E7C0
EDC0
EDC0
F9C0
F9C0
71C0
71C0
7F80
FF00
C000
ENDCHAR
STARTCHAR 01FF
ENCODING 511
SWIDTH 624 0
DWIDTH 13 0
BBX 10 17 1 -1
BITMAP
0700
0600
0C00
0000
0EC0
3FC0
7F80
63C0
E7C0
E7C0
EDC0
F9C0
79C0
71C0
7F80
FF00
C000
ENDCHAR
STARTCHAR 0218
ENCODING 536
SWIDTH 624 0
DWIDTH 13 0
BBX 10 20 1 -5
BITMAP
3F00
7F80
61C0
E1C0
6000
7000
7E00
3F80
07C0
01C0
00C0
E0C0
F1C0
7F80
3F00
0000
0000
0E00
0C00
1C00
ENDCHAR
STARTCHAR 0219
ENCODING 537
SWIDTH 624 0
DWIDTH 13 0
BBX 10 17 1 -5
BITMAP
1E00
7F80
73C0
61C0
6000
7F00
3F80
01C0
00C0
E1C0
7FC0
3F80
0000
0000
0E00
0C00
1800
ENDCHAR
STARTCHAR 021A
ENCODING 538
SWIDTH 624 0
DWIDTH 13 0
BBX 11 20 1 -5
BITMAP
FFE0
FFE0
0E00
0E00
0E00
0E00
0E00
0E00
0E00
0E00
0E00
0E00
0E00
0E00
0E00
0000
0000
0C00
1C00
3800
ENDCHAR
STARTCHAR 021B
ENCODING 539
SWIDTH 624 0
DWIDTH 13 0
BBX 10 20 1 -5
BITMAP
1C00
1C00
1C00
1C00
FFC0
FFC0
1C00
1C00
1C00
1C00
1C00
1C00
1C00
1FC0
0FC0
0000
0000
0E00
0C00
1C00
ENDCHAR
STARTCHAR 0237
ENCODING 567
SWIDTH 624 0
DWIDTH 13 0
BBX 8 15 2 -4
BITMAP
FF
FF
07
07
07
07
07
07
07
07
07
06
FE
FC
F8
ENDCHAR
STARTCHAR 0259
ENCODING 601
SWIDTH 624 0
DWIDTH 13 0
BBX 10 12 1 0
BITMAP
0E00
3F80
7380
61C0
01C0
01C0
FFC0
E1C0
61C0
71C0
7F80
3F00
ENDCHAR
STARTCHAR 02B9
ENCODING 697
SWIDTH 624 0
DWIDTH 13 0
BBX 5 6 3 9
BITMAP
38
70
70
70
60
E0
ENDCHAR
STARTCHAR 02BA
ENCODING 698
SWIDTH 624 0
DWIDTH 13 0
BBX 10 6 1 9
BITMAP
79C0
71C0
71C0
6380
E380
E300
ENDCHAR
STARTCHAR 02BC
ENCODING 700
SWIDTH 624 0
DWIDTH 13 0
BBX 5 6 3 10
BITMAP
38
70
70
70
60
E0
ENDCHAR
STARTCHAR 02C6
ENCODING 710
SWIDTH 624 0
DWIDTH 13 0
BBX 8 3 2 13
BITMAP
3C
76
E3
ENDCHAR
STARTCHAR 02C7
ENCODING 711
SWIDTH 624 0
DWIDTH 13 0
BBX 7 3 3 13
BITMAP
CE
7C
38
ENDCHAR
STARTCHAR 02C9
ENCODING 713
SWIDTH 624 0
DWIDTH 13 0
BBX 6 2 3 14
BITMAP
FC
FC
ENDCHAR
STARTCHAR 02D8
ENCODING 728
SWIDTH 624 0
DWIDTH 13 0
BBX 7 3 3 13
BITMAP
C6
FC
38
ENDCHAR
STARTCHAR 02D9
ENCODING 729
SWIDTH 624 0
DWIDTH 13 0
BBX 4 3 4 13
BITMAP
60
F0
60
ENDCHAR
STARTCHAR 02DA
ENCODING 730
SWIDTH 624 0
DWIDTH 13 0
BBX 5 5 4 12
BITMAP
70
98
98
F8
20
ENDCHAR
STARTCHAR 02DB
ENCODING 731
SWIDTH 624 0
DWIDTH 13 0
BBX 4 4 4 -4
BITMAP
60
C0
C0
F0
ENDCHAR
STARTCHAR 02DC
ENCODING 732
SWIDTH 624 0
DWIDTH 13 0
BBX 7 3 3 13
BITMAP
F6
9E
8C
ENDCHAR
STARTCHAR 02DD
ENCODING 733
SWIDTH 624 0
DWIDTH 13 0
BBX 8 3 3 13
BITMAP
33
66
CC
ENDCHAR
STARTCHAR 02F3
ENCODING 755
SWIDTH 624 0
DWIDTH 13 0
BBX 5 4 4 -5
BITMAP
F0
98
98
F0
ENDCHAR
STARTCHAR 02F7
ENCODING 759
SWIDTH 624 0
DWIDTH 13 0
BBX 7 3 3 -5
BITMAP
F6
9E
08
ENDCHAR
STARTCHAR 0309
ENCODING 777
SWIDTH 0 0
DWIDTH 0 0
BBX 4 4 -8 13
BITMAP
F0
30
30
60
ENDCHAR
STARTCHAR 031B
ENCODING 795
SWIDTH 0 0
DWIDTH 0 0
BBX 3 4 -3 10
BITMAP
60
60
E0
C0
ENDCHAR
STARTCHAR 0323
ENCODING 803
SWIDTH 0 0
DWIDTH 0 0
BBX 3 2 -8 -4
BITMAP
E0
E0
ENDCHAR
STARTCHAR 0325
ENCODING 805
SWIDTH 0 0
DWIDTH 0 0
BBX 5 4 -9 -5
BITMAP
78
C8
C8
78
ENDCHAR
STARTCHAR 0326
ENCODING 806
SWIDTH 0 0
DWIDTH 0 0
BBX 4 3 -8 -5
BITMAP
70
E0
C0
ENDCHAR
STARTCHAR 0336
ENCODING 822
SWIDTH 0 0
DWIDTH 0 0
BBX 14 2 -13 6
BITMAP
FFFC
FFFC
ENDCHAR
STARTCHAR 0338
ENCODING 824
SWIDTH 0 0
DWIDTH 0 0
BBX 7 17 -10 -1
BITMAP
02
06
06
04
0C
0C
08
18
18
10
30
30
20
60
60
40
C0
ENDCHAR
STARTCHAR 0374
ENCODING 884
SWIDTH 624 0
DWIDTH 13 0
BBX 5 6 3 9
BITMAP
38
70
70
70
60
E0
ENDCHAR
STARTCHAR 0394
ENCODING 916
SWIDTH 624 0
DWIDTH 13 0
BBX 11 15 1 0
BITMAP
1E00
1E00
1F00
1F00
3B00
3B00
3380
3380
7180
7180
61C0
61C0
E0C0
FFC0
FFE0
ENDCHAR
STARTCHAR 03A9
ENCODING 937
SWIDTH 624 0
DWIDTH 13 0
BBX 10 15 1 0
BITMAP
3F00
7F80
71C0
E0C0
E0C0
E0C0
E0C0
E0C0
E0C0
E0C0
E1C0
7380
1200
F3C0
F3C0
ENDCHAR
STARTCHAR 03BB
ENCODING 955
SWIDTH 624 0
DWIDTH 13 0
BBX 11 15 1 0
BITMAP
1C00
1C00
0C00
0E00
0E00
1E00
1F00
1B00
3B00
3380
7180
71C0
61C0
E0C0
E0E0
ENDCHAR
STARTCHAR 03BC
ENCODING 956
SWIDTH 624 0
DWIDTH 13 0
BBX 9 15 2 -4
BITMAP
C380
C380
C380
C380
C380
C380
C380
C380
E380
FF00
FE00
C000
C000
C000
C000
ENDCHAR
STARTCHAR 03C0
ENCODING 960
SWIDTH 624 0
DWIDTH 13 0
BBX 12 11 0 0
BITMAP
FFF0
FFF0
30C0
30C0
30C0
30C0
30C0
30C0
30E0
30F0
3070
ENDCHAR
STARTCHAR 0401
ENCODING 1025
SWIDTH 624 0
DWIDTH 13 0
BBX 9 20 2 0
BITMAP
6200
E700
6700
0000
0000
FF80
FF80
C000
C000
C000
C000
FF00
FF00
C000
C000
C000
C000
C000
FF80
FF80
ENDCHAR
STARTCHAR 0402
ENCODING 1026
SWIDTH 624 0
DWIDTH 13 0
BBX 12 19 0 -4
BITMAP
FE00
FE00
3800
3800
3800
3BC0
3FE0
3C60
3870
3870
3870
3870
3870
3870
3870
0070
03E0
03C0
0380
ENDCHAR
STARTCHAR 0403
ENCODING 1027
SWIDTH 624 0
DWIDTH 13 0
BBX 9 20 2 0
BITMAP
0700
0E00
1C00
0000
0000
FF80
FF80
E000
E000
E000
E000
E000
E000
E000
E000
E000
E000
E000
E000
E000
ENDCHAR
STARTCHAR 0404
ENCODING 1028
SWIDTH 624 0
DWIDTH 13 0
BBX 10 15 1 0
BITMAP
3F00
7F80
71C0
61C0
E000
E000
FF00
FF00
FF00
E000
E000
61C0
71C0
7F80
3F00
ENDCHAR
STARTCHAR 0405
ENCODING 1029
SWIDTH 624 0
DWIDTH 13 0
BBX 10 15 1 0
BITMAP
3F00
7F80
61C0
E1C0
6000
7000
7E00
3F80
07C0
01C0
00C0
E0C0
F1C0
7F80
3F00
ENDCHAR
STARTCHAR 0406
ENCODING 1030
SWIDTH 624 0
DWIDTH 13 0
BBX 9 15 2 0
BITMAP
FF80
FF80
1C00
1C00
1C00
1C00
1C00
1C00
1C00
1C00
1C00
1C00
1C00
FF80
FF80
ENDCHAR
STARTCHAR 0407
ENCODING 1031
SWIDTH 624 0
DWIDTH 13 0
BBX 9 20 2 0
BITMAP
6200
E700
6700
0000
0000
FF80
FF80
1C00
1C00
1C00
1C00
1C00
1C00
1C00
1C00
1C00
1C00
1C00
FF80
FF80
ENDCHAR
STARTCHAR 0408
ENCODING 1032
SWIDTH 624 0
DWIDTH 13 0
BBX 10 15 1 0
BITMAP
1FC0
1FC0
01C0
01C0
01C0
01C0
01C0
01C0
01C0
01C0
01C0
C1C0
E380
7F80
3F00
ENDCHAR
STARTCHAR 0409
ENCODING 1033
SWIDTH 624 0
DWIDTH 13 0
BBX 12 15 0 0
BITMAP
3F00
3F00
3300
3300
3300
3300
33E0
73F0
7330
7330
7330
7330
6330
E3F0
C3E0
ENDCHAR
STARTCHAR 040A
ENCODING 1034
SWIDTH 624 0
DWIDTH 13 0
BBX 11 15 1 0
BITMAP
C600
C600
C600
C600
C600
C600
FFC0
FFE0
C660
C660
C660
C660
C660
C7E0
C7C0
ENDCHAR
STARTCHAR 040B
ENCODING 1035
SWIDTH 624 0
DWIDTH 13 0
BBX 12 15 0 0
BITMAP
FE00
FE00
3800
3800
3800
3BC0
3FE0
3C60
3870
3870
3870
3870
3870
3870
3870
ENDCHAR
STARTCHAR 040C
ENCODING 1036
SWIDTH 624 0
DWIDTH 13 0
BBX 10 20 2 0
BITMAP
0700
0E00
1C00
0000
0000
C180
C380
C300
C700
C600
CE00
FE00
FC00
CE00
CE00
C700
C700
C380
C380
C1C0
ENDCHAR
STARTCHAR 040E
ENCODING 1038
SWIDTH 624 0
DWIDTH 13 0
BBX 11 20 1 0
BITMAP
3180
3380
1F00
0000
0000
E0E0
E1C0
61C0
7180
3180
3380
3B00
1B00
1F00
0E00
0E00
0E00
0C00
1C00
1C00
ENDCHAR
STARTCHAR 040F
ENCODING 1039
SWIDTH 624 0
DWIDTH 13 0
BBX 9 18 2 -3
BITMAP
C380
C380
C380
C380
C380
C380
C380
C380
C380
C380
C380
C380
C380
FF80
FF80
1C00
1C00
1C00
ENDCHAR
STARTCHAR 0410
ENCODING 1040
SWIDTH 624 0
DWIDTH 13 0
BBX 11 15 1 0
BITMAP
1E00
1E00
1F00
1B00
3B00
3B00
3380
3380
7180
7F80
7FC0
61C0
E0C0
E0C0
E0E0
ENDCHAR
STARTCHAR 0411
ENCODING 1041
SWIDTH 624 0
DWIDTH 13 0
BBX 9 15 2 0
BITMAP
FF80
FF80
C000
C000
C000
C000
FE00
FF00
C380
C180
C180
C180
C380
FF00
FE00
ENDCHAR
STARTCHAR 0412
ENCODING 1042
SWIDTH 624 0
DWIDTH 13 0
BBX 9 15 2 0
BITMAP
FE00
FF00
C380
C380
C380
C380
FF00
FF00
C380
C180
C180
C180
C380
FF00
FE00
ENDCHAR
STARTCHAR 0413
ENCODING 1043
SWIDTH 624 0
DWIDTH 13 0
BBX 9 15 2 0
BITMAP
FF80
FF80
E000
E000
E000
E000
E000
E000
E000
E000
E000
E000
E000
E000
E000
ENDCHAR
STARTCHAR 0414
ENCODING 1044
SWIDTH 624 0
DWIDTH 13 0
BBX 12 18 0 -3
BITMAP
3FE0
3FE0
38E0
38E0
38E0
38E0
38E0
38E0
38E0
38E0
38E0
30E0
70E0
FFF0
FFF0
E030
E030
E030
ENDCHAR
STARTCHAR 0415
ENCODING 1045
SWIDTH 624 0
DWIDTH 13 0
BBX 9 15 2 0
BITMAP
FF80
FF80
C000
C000
C000
C000
FF00
FF00
C000
C000
C000
C000
C000
FF80
FF80
ENDCHAR
STARTCHAR 0416
ENCODING 1046
SWIDTH 624 0
DWIDTH 13 0
BBX 12 15 0 0
BITMAP
6630
6670
6660
7660
3660
36C0
36C0
3FC0
36C0
36E0
3660
6660
6670
6630
E630
ENDCHAR
STARTCHAR 0417
ENCODING 1047
SWIDTH 624 0
DWIDTH 13 0
BBX 10 15 1 0
BITMAP
3F80
7FC0
E1C0
E0C0
00C0
01C0
1F00
1F80
03C0
01C0
00C0
E0C0
E1C0
7F80
3F00
ENDCHAR
STARTCHAR 0418
ENCODING 1048
SWIDTH 624 0
DWIDTH 13 0
BBX 10 15 1 0
BITMAP
E1C0
E3C0
E3C0
E3C0
E6C0
E6C0
E6C0
ECC0
ECC0
FCC0
F8C0
F8C0
F8C0
F0C0
F0C0
ENDCHAR
STARTCHAR 0419
ENCODING 1049
SWIDTH 624 0
DWIDTH 13 0
BBX 10 20 1 0
BITMAP
3180
3380
1F00
0000
0000
E1C0
E3C0
E3C0
E3C0
E6C0
E6C0
E6C0
ECC0
ECC0
FCC0
F8C0
F8C0
F8C0
F0C0
F0C0
ENDCHAR
STARTCHAR 041A
ENCODING 1050
SWIDTH 624 0
DWIDTH 13 0
BBX 10 15 2 0
BITMAP
C180
C380
C300
C700
C600
CE00
FE00
FC00
CE00
CE00
C700
C700
C380
C380
C1C0
ENDCHAR
STARTCHAR 041B
ENCODING 1051
SWIDTH 624 0
DWIDTH 13 0
BBX 11 15 0 0
BITMAP
3FE0
3FE0
38E0
38E0
38E0
38E0
38E0
38E0
38E0
38E0
38E0
38E0
38E0
F0E0
E0E0
ENDCHAR
STARTCHAR 041C
ENCODING 1052
SWIDTH 624 0
DWIDTH 13 0
BBX 10 15 1 0
BITMAP
E1C0
F1C0
F3C0
D3C0
DBC0
DAC0
CEC0
EEC0
E0C0
E0C0
E0C0
E0C0
E0C0
E0C0
E0C0
ENDCHAR
STARTCHAR 041D
ENCODING 1053
SWIDTH 624 0
DWIDTH 13 0
BBX 9 15 2 0
BITMAP
C380
C380
C380
C380
C380
C380
FF80
FF80
C380
C380
C380
C380
C380
C380
C380
ENDCHAR
STARTCHAR 041E
ENCODING 1054
SWIDTH 624 0
DWIDTH 13 0
BBX 10 15 1 0
BITMAP
3F00
7F80
71C0
61C0
E1C0
E1C0
E1C0
E1C0
E1C0
E1C0
E1C0
61C0
71C0
7F80
3F00
ENDCHAR
STARTCHAR 041F
ENCODING 1055
SWIDTH 624 0
DWIDTH 13 0
BBX 9 15 2 0
BITMAP
FF80
FF80
C380
C380
C380
C380
C380
C380
C380
C380
C380
C380
C380
C380
C380
ENDCHAR
STARTCHAR 0420
ENCODING 1056
SWIDTH 624 0
DWIDTH 13 0
BBX 10 15 2 0
BITMAP
FF00
FF80
C380
C1C0
C1C0
C1C0
C380
FF80
FE00
C000
C000
C000
C000
C000
C000
ENDCHAR
STARTCHAR 0421
ENCODING 1057
SWIDTH 624 0
DWIDTH 13 0
BBX 10 15 1 0
BITMAP
3F00
7F80
71C0
61C0
E000
E000
E000
E000
E000
E000
E000
61C0
71C0
7F80
3F00
ENDCHAR
STARTCHAR 0422
ENCODING 1058
SWIDTH 624 0
DWIDTH 13 0
BBX 11 15 1 0
BITMAP
FFE0
FFE0
0E00
0E00
0E00
0E00
0E00
0E00
0E00
0E00
0E00
0E00
0E00
0E00
0E00
ENDCHAR
STARTCHAR 0423
ENCODING 1059
SWIDTH 624 0
DWIDTH 13 0
BBX 11 15 1 0
BITMAP
E0E0
E1C0
61C0
7180
3180
3380
3B00
1B00
1F00
0E00
0E00
0E00
0C00
1C00
1C00
ENDCHAR
STARTCHAR 0424
ENCODING 1060
SWIDTH 624 0
DWIDTH 13 0
BBX 11 17 1 -1
BITMAP
0C00
1E00
7F80
FFC0
CCC0
CCE0
CCE0
CCE0
CCE0
CCE0
CCE0
CCE0
ECC0
7FC0
3F80
0C00
0C00
ENDCHAR
STARTCHAR 0425
ENCODING 1061
SWIDTH 624 0
DWIDTH 13 0
BBX 11 15 1 0
BITMAP
E1C0
71C0
7380
3B80
3F00
1F00
1E00
0E00
1E00
1F00
3B00
7380
71C0
E1C0
E0E0
ENDCHAR
STARTCHAR 0426
ENCODING 1062
SWIDTH 624 0
DWIDTH 13 0
BBX 10 18 2 -3
BITMAP
C300
C300
C300
C300
C300
C300
C300
C300
C300
C300
C300
C300
C300
FFC0
FFC0
00C0
00C0
00C0
ENDCHAR
STARTCHAR 0427
ENCODING 1063
SWIDTH 624 0
DWIDTH 13 0
BBX 10 15 1 0
BITMAP
E1C0
E1C0
E1C0
E1C0
E1C0
E1C0
F1C0
7FC0
3FC0
01C0
01C0
01C0
01C0
01C0
01C0
ENDCHAR
STARTCHAR 0428
ENCODING 1064
SWIDTH 624 0
DWIDTH 13 0
BBX 10 15 1 0
BITMAP
CCC0
CCC0
CCC0
CCC0
CCC0
CCC0
CCC0
CCC0
CCC0
CCC0
CCC0
CCC0
CCC0
FFC0
FFC0
ENDCHAR
STARTCHAR 0429
ENCODING 1065
SWIDTH 624 0
DWIDTH 13 0
BBX 11 18 1 -3
BITMAP
CCC0
CCC0
CCC0
CCC0
CCC0
CCC0
CCC0
CCC0
CCC0
CCC0
CCC0
CCC0
CCC0
FFE0
FFE0
0060
0060
0060
ENDCHAR
STARTCHAR 042A
ENCODING 1066
SWIDTH 624 0
DWIDTH 13 0
BBX 12 15 0 0
BITMAP
F800
F800
3800
3800
3800
3800
3F80
3FE0
38E0
3870
3870
3870
38E0
3FE0
3F80
ENDCHAR
STARTCHAR 042B
ENCODING 1067
SWIDTH 624 0
DWIDTH 13 0
BBX 10 15 1 0
BITMAP
C0C0
C0C0
C0C0
C0C0
C0C0
C0C0
F8C0
FCC0
CEC0
C6C0
C6C0
C6C0
CEC0
FCC0
F8C0
ENDCHAR
STARTCHAR 042C
ENCODING 1068
SWIDTH 624 0
DWIDTH 13 0
BBX 10 15 2 0
BITMAP
C000
C000
C000
C000
C000
C000
FE00
FF80
C380
C1C0
C1C0
C1C0
C380
FF80
FE00
ENDCHAR
STARTCHAR 042D
ENCODING 1069
SWIDTH 624 0
DWIDTH 13 0
BBX 10 15 1 0
BITMAP
3F00
7F80
61C0
E1C0
01C0
01C0
1FC0
1FC0
1FC0
01C0
01C0
E1C0
71C0
7F80
3F00
ENDCHAR
STARTCHAR 042E
ENCODING 1070
SWIDTH 624 0
DWIDTH 13 0
BBX 11 15 1 0
BITMAP
C7C0
CFC0
CCE0
CC60
CC60
CC60
FC60
FC60
CC60
CC60
CC60
CC60
CCE0
CFC0
C780
ENDCHAR
STARTCHAR 042F
ENCODING 1071
SWIDTH 624 0
DWIDTH 13 0
BBX 10 15 1 0
BITMAP
3FC0
7FC0
F1C0
E1C0
E1C0
E1C0
71C0
7FC0
1FC0
39C0
39C0
31C0
71C0
61C0
E1C0
ENDCHAR
STARTCHAR 0430
ENCODING 1072
SWIDTH 624 0
DWIDTH 13 0
BBX 10 12 1 0
BITMAP
0E00
3F80
7BC0
61C0
01C0
3FC0
7FC0
E1C0
E1C0
E1C0
7FC0
7DC0
ENDCHAR
STARTCHAR 0431
ENCODING 1073
SWIDTH 624 0
DWIDTH 13 0
BBX 10 15 1 0
BITMAP
1F80
3F80
7800
7000
6000
EF80
FF80
F1C0
E1C0
E1C0
E1C0
61C0
71C0
7F80
3F00
ENDCHAR
STARTCHAR 0432
ENCODING 1074
SWIDTH 624 0
DWIDTH 13 0
BBX 9 11 2 0
BITMAP
FF00
FF80
C380
C380
FF00
FF00
C380
C180
C380
FF80
FE00
ENDCHAR
STARTCHAR 0433
ENCODING 1075
SWIDTH 624 0
DWIDTH 13 0
BBX 8 11 3 0
BITMAP
FF
FF
C0
C0
C0
C0
C0
C0
C0
C0
C0
ENDCHAR
STARTCHAR 0434
ENCODING 1076
SWIDTH 624 0
DWIDTH 13 0
BBX 11 14 1 -3
BITMAP
3FC0
3FC0
71C0
71C0
71C0
71C0
71C0
71C0
61C0
FFE0
FFE0
C060
C060
C060
ENDCHAR
STARTCHAR 0435
ENCODING 1077
SWIDTH 624 0
DWIDTH 13 0
BBX 10 12 1 0
BITMAP
0E00
3F80
7380
61C0
E1C0
FFC0
FFC0
E000
6000
71C0
7F80
3F00
ENDCHAR
STARTCHAR 0436
ENCODING 1078
SWIDTH 624 0
DWIDTH 13 0
BBX 12 11 0 0
BITMAP
6630
6660
7660
36E0
36C0
3FC0
36E0
3660
6660
6670
E630
ENDCHAR
STARTCHAR 0437
ENCODING 1079
SWIDTH 624 0
DWIDTH 13 0
BBX 10 12 1 0
BITMAP
0E00
7F80
7FC0
E1C0
01C0
1F80
1F80
01C0
00C0
E1C0
7FC0
3F80
ENDCHAR
STARTCHAR 0438
ENCODING 1080
SWIDTH 624 0
DWIDTH 13 0
BBX 9 11 2 0
BITMAP
C780
C780
CD80
CD80
CD80
D980
D980
F180
F180
E180
E180
ENDCHAR
STARTCHAR 0439
ENCODING 1081
SWIDTH 624 0
DWIDTH 13 0
BBX 9 16 2 0
BITMAP
6300
7E00
1C00
0000
0000
C780
C780
CD80
CD80
CD80
D980
D980
F180
F180
E180
E180
ENDCHAR
STARTCHAR 043A
ENCODING 1082
SWIDTH 624 0
DWIDTH 13 0
BBX 9 11 2 0
BITMAP
C380
C300
C700
CE00
FE00
FC00
CE00
C700
C700
C380
C380
ENDCHAR
STARTCHAR 043B
ENCODING 1083
SWIDTH 624 0
DWIDTH 13 0
BBX 11 11 0 0
BITMAP
1FE0
1FE0
18E0
18E0
38E0
38E0
38E0
38E0
38E0
F0E0
E0E0
ENDCHAR
STARTCHAR 043C
ENCODING 1084
SWIDTH 624 0
DWIDTH 13 0
BBX 10 11 1 0
BITMAP
F1C0
F1C0
F3C0
DBC0
DAC0
DEC0
EEC0
EEC0
E0C0
E0C0
E0C0
ENDCHAR
STARTCHAR 043D
ENCODING 1085
SWIDTH 624 0
DWIDTH 13 0
BBX 9 11 2 0
BITMAP
C380
C380
C380
C380
FF80
FF80
C380
C380
C380
C380
C380
ENDCHAR
STARTCHAR 043E
ENCODING 1086
SWIDTH 624 0
DWIDTH 13 0
BBX 10 12 1 0
BITMAP
0E00
3F80
7F80
61C0
E1C0
E1C0
E1C0
E1C0
61C0
71C0
7F80
3F00
ENDCHAR
STARTCHAR 043F
ENCODING 1087
SWIDTH 624 0
DWIDTH 13 0
BBX 9 11 2 0
BITMAP
FF80
FF80
C380
C380
C380
C380
C380
C380
C380
C380
C380
ENDCHAR
STARTCHAR 0440
ENCODING 1088
SWIDTH 624 0
DWIDTH 13 0
BBX 9 16 2 -4
BITMAP
0C00
DF00
FF80
E380
C380
C380
C380
C380
C380
E380
FF00
DE00
C000
C000
C000
C000
ENDCHAR
STARTCHAR 0441
ENCODING 1089
SWIDTH 624 0
DWIDTH 13 0
BBX 10 12 1 0
BITMAP
0E00
3F80
7FC0
61C0
E000
E000
E000
E000
61C0
71C0
7F80
3F00
ENDCHAR
STARTCHAR 0442
ENCODING 1090
SWIDTH 624 0
DWIDTH 13 0
BBX 10 11 1 0
BITMAP
FFC0
FFC0
0E00
0E00
0E00
0E00
0E00
0E00
0E00
0E00
0E00
ENDCHAR
STARTCHAR 0443
ENCODING 1091
SWIDTH 624 0
DWIDTH 13 0
BBX 10 15 1 -4
BITMAP
E0C0
61C0
71C0
7180
3380
3B80
1B00
1F00
1E00
0E00
0E00
0C00
1C00
1C00
1800
ENDCHAR
STARTCHAR 0444
ENCODING 1092
SWIDTH 624 0
DWIDTH 13 0
BBX 11 19 1 -4
BITMAP
0C00
0C00
0C00
0C00
7F80
FFC0
CCC0
CCE0
CCE0
CCE0
CCE0
CCE0
ECC0
7FC0
3F80
0C00
0C00
0C00
0C00
ENDCHAR
STARTCHAR 0445
ENCODING 1093
SWIDTH 624 0
DWIDTH 13 0
BBX 10 11 1 0
BITMAP
71C0
7380
3B00
1F00
1E00
1E00
1F00
3B00
7380
71C0
E1C0
ENDCHAR
STARTCHAR 0446
ENCODING 1094
SWIDTH 624 0
DWIDTH 13 0
BBX 10 14 2 -3
BITMAP
C300
C300
C300
C300
C300
C300
C300
C300
C300
FFC0
FFC0
00C0
00C0
00C0
ENDCHAR
STARTCHAR 0447
ENCODING 1095
SWIDTH 624 0
DWIDTH 13 0
BBX 10 11 1 0
BITMAP
E1C0
E1C0
E1C0
E1C0
F1C0
7FC0
3FC0
01C0
01C0
01C0
01C0
ENDCHAR
STARTCHAR 0448
ENCODING 1096
SWIDTH 624 0
DWIDTH 13 0
BBX 10 11 1 0
BITMAP
CCC0
CCC0
CCC0
CCC0
CCC0
CCC0
CCC0
CCC0
CCC0
FFC0
FFC0
ENDCHAR
STARTCHAR 0449
ENCODING 1097
SWIDTH 624 0
DWIDTH 13 0
BBX 11 14 1 -3
BITMAP
CCC0
CCC0
CCC0
CCC0
CCC0
CCC0
CCC0
CCC0
CCC0
FFE0
FFE0
0060
0060
0060
ENDCHAR
STARTCHAR 044A
ENCODING 1098
SWIDTH 624 0
DWIDTH 13 0
BBX 12 11 0 0
BITMAP
F800
F800
1800
1F80
1FE0
1FE0
1870
1870
18F0
1FE0
1FC0
ENDCHAR
STARTCHAR 044B
ENCODING 1099
SWIDTH 624 0
DWIDTH 13 0
BBX 10 11 1 0
BITMAP
C0C0
C0C0
C0C0
F0C0
FCC0
CEC0
C6C0
C6C0
CEC0
FCC0
F8C0
ENDCHAR
STARTCHAR 044C
ENCODING 1100
SWIDTH 624 0
DWIDTH 13 0
BBX 10 11 2 0
BITMAP
C000
C000
C000
FE00
FF80
FF80
C1C0
C1C0
C3C0
FF80
FF00
ENDCHAR
STARTCHAR 044D
ENCODING 1101
SWIDTH 624 0
DWIDTH 13 0
BBX 10 12 1 0
BITMAP
0E00
3F80
7F80
E1C0
01C0
0FC0
0FC0
01C0
E1C0
71C0
7F80
3F00
ENDCHAR
STARTCHAR 044E
ENCODING 1102
SWIDTH 624 0
DWIDTH 13 0
BBX 11 12 1 0
BITMAP
0300
CFC0
CCC0
CCE0
CCE0
FCE0
FCE0
CCE0
CCE0
CCE0
CFC0
C780
ENDCHAR
STARTCHAR 044F
ENCODING 1103
SWIDTH 624 0
DWIDTH 13 0
BBX 10 11 1 0
BITMAP
3FC0
7FC0
E1C0
E1C0
E1C0
7FC0
3FC0
39C0
39C0
71C0
E1C0
ENDCHAR
STARTCHAR 0451
ENCODING 1105
SWIDTH 624 0
DWIDTH 13 0
BBX 10 16 1 0
BITMAP
3380
7380
3100
0000
0E00
3F80
7380
61C0
E1C0
FFC0
FFC0
E000
6000
71C0
7F80
3F00
ENDCHAR
STARTCHAR 0452
ENCODING 1106
SWIDTH 624 0
DWIDTH 13 0
BBX 11 19 0 -4
BITMAP
3000
3000
FE00
3000
3000
37C0
3FC0
38E0
30E0
30E0
30E0
30E0
30E0
30E0
30E0
00E0
07C0
07C0
0700
ENDCHAR
STARTCHAR 0453
ENCODING 1107
SWIDTH 624 0
DWIDTH 13 0
BBX 8 16 3 0
BITMAP
1C
18
30
00
00
FF
FF
C0
C0
C0
C0
C0
C0
C0
C0
C0
ENDCHAR
STARTCHAR 0454
ENCODING 1108
SWIDTH 624 0
DWIDTH 13 0
BBX 9 12 2 0
BITMAP
1C00
7F00
FF80
E380
C000
FC00
FC00
C000
C180
E380
FF00
3E00
ENDCHAR
STARTCHAR 0455
ENCODING 1109
SWIDTH 624 0
DWIDTH 13 0
BBX 10 12 1 0
BITMAP
1E00
7F80
73C0
61C0
6000
7F00
3F80
01C0
00C0
E1C0
7FC0
3F80
ENDCHAR
STARTCHAR 0456
ENCODING 1110
SWIDTH 624 0
DWIDTH 13 0
BBX 10 16 2 0
BITMAP
1C00
1C00
1C00
0000
0000
FC00
FC00
0C00
0C00
0C00
0C00
0C00
0C00
0C00
FFC0
FFC0
ENDCHAR
STARTCHAR 0457
ENCODING 1111
SWIDTH 624 0
DWIDTH 13 0
BBX 10 16 2 0
BITMAP
6700
E700
6200
0000
0000
FC00
FC00
0C00
0C00
0C00
0C00
0C00
0C00
0C00
FFC0
FFC0
ENDCHAR
STARTCHAR 0458
ENCODING 1112
SWIDTH 624 0
DWIDTH 13 0
BBX 8 20 2 -4
BITMAP
07
07
06
00
00
FF
FF
07
07
07
07
07
07
07
07
07
06
FE
FC
F8
ENDCHAR
STARTCHAR 0459
ENCODING 1113
SWIDTH 624 0
DWIDTH 13 0
BBX 12 11 0 0
BITMAP
3F00
3F00
3300
33C0
33F0
3370
3330
3330
7330
E3F0
C3E0
ENDCHAR
STARTCHAR 045A
ENCODING 1114
SWIDTH 624 0
DWIDTH 13 0
BBX 11 11 1 0
BITMAP
C600
C600
C600
FF00
FFC0
C6E0
C660
C660
C660
C7E0
C7C0
ENDCHAR
STARTCHAR 045B
ENCODING 1115
SWIDTH 624 0
DWIDTH 13 0
BBX 11 15 0 0
BITMAP
3000
3000
FE00
3000
3000
37C0
3FC0
38E0
30E0
30E0
30E0
30E0
30E0
30E0
30E0
ENDCHAR
STARTCHAR 045C
ENCODING 1116
SWIDTH 624 0
DWIDTH 13 0
BBX 9 16 2 0
BITMAP
0E00
0C00
1800
0000
0000
C380
C300
C700
CE00
FE00
FC00
CE00
C700
C700
C380
C380
ENDCHAR
STARTCHAR 045E
ENCODING 1118
SWIDTH 624 0
DWIDTH 13 0
BBX 10 20 1 -4
BITMAP
3180
3F00
0E00
0000
0000
E0C0
61C0
71C0
7180
3380
3B80
1B00
1F00
1E00
0E00
0E00
0C00
1C00
1C00
1800
ENDCHAR
STARTCHAR 045F
ENCODING 1119
SWIDTH 624 0
DWIDTH 13 0
BBX 9 14 2 -3
BITMAP
C380
C380
C380
C380
C380
C380
C380
C380
C380
FF80
FF80
1C00
1C00
1C00
ENDCHAR
STARTCHAR 0490
ENCODING 1168
SWIDTH 624 0
DWIDTH 13 0
BBX 9 17 2 0
BITMAP
0180
0180
FF80
FF80
E000
E000
E000
E000
E000
E000
E000
E000
E000
E000
E000
E000
E000
ENDCHAR
STARTCHAR 0491
ENCODING 1169
SWIDTH 624 0
DWIDTH 13 0
BBX 8 14 3 0
BITMAP
03
03
03
FF
FF
C0
C0
C0
C0
C0
C0
C0
C0
C0
ENDCHAR
STARTCHAR 04AE
ENCODING 1198
SWIDTH 624 0
DWIDTH 13 0
BBX 11 15 1 0
BITMAP
E0E0
E0C0
61C0
7180
3380
3B00
1F00
1E00
1E00
0E00
0E00
0E00
0E00
0E00
0E00
ENDCHAR
STARTCHAR 04AF
ENCODING 1199
SWIDTH 624 0
DWIDTH 13 0
BBX 11 15 1 -4
BITMAP
E0E0
E1C0
71C0
7180
3380
3B00
1F00
1E00
0E00
0E00
0E00
0E00
0E00
0E00
0E00
ENDCHAR
STARTCHAR 04E8
ENCODING 1256
SWIDTH 624 0
DWIDTH 13 0
BBX 10 15 1 0
BITMAP
3F00
7F80
71C0
61C0
E0C0
E0C0
FFC0
FFC0
E0C0
E0C0
E0C0
61C0
71C0
7F80
3F00
ENDCHAR
STARTCHAR 04E9
ENCODING 1257
SWIDTH 624 0
DWIDTH 13 0
BBX 10 12 1 0
BITMAP
0E00
3F80
7F80
61C0
E0C0
FFC0
FFC0
E0C0
61C0
71C0
7F80
3F00
ENDCHAR
STARTCHAR 1E80
ENCODING 7808
SWIDTH 624 0
DWIDTH 13 0
BBX 12 20 0 0
BITMAP
1C00
0C00
0600
0000
0000
E630
6730
6730
6730
6530
6570
6D60
6D60
6D60
6960
69E0
39E0
39E0
39E0
38E0
ENDCHAR
STARTCHAR 1E81
ENCODING 7809
SWIDTH 624 0
DWIDTH 13 0
BBX 11 16 1 0
BITMAP
3800
1C00
0E00
0000
0000
CC60
CE60
CE60
CAC0
DAC0
DAC0
FAC0
72C0
73C0
73C0
7180
ENDCHAR
STARTCHAR 1E82
ENCODING 7810
SWIDTH 624 0
DWIDTH 13 0
BBX 12 20 0 0
BITMAP
01C0
0380
0700
0000
0000
E630
6730
6730
6730
6530
6570
6D60
6D60
6D60
6960
69E0
39E0
39E0
39E0
38E0
ENDCHAR
STARTCHAR 1E83
ENCODING 7811
SWIDTH 624 0
DWIDTH 13 0
BBX 11 16 1 0
BITMAP
0700
0600
0C00
0000
0000
CC60
CE60
CE60
CAC0
DAC0
DAC0
FAC0
72C0
73C0
73C0
7180
ENDCHAR
STARTCHAR 1E84
ENCODING 7812
SWIDTH 624 0
DWIDTH 13 0
BBX 12 20 0 0
BITMAP
1880
39C0
19C0
0000
0000
E630
6730
6730
6730
6530
6570
6D60
6D60
6D60
6960
69E0
39E0
39E0
39E0
38E0
ENDCHAR
STARTCHAR 1E85
ENCODING 7813
SWIDTH 624 0
DWIDTH 13 0
BBX 11 16 1 0
BITMAP
3380
7380
3100
0000
0000
CC60
CE60
CE60
CAC0
DAC0
DAC0
FAC0
72C0
73C0
73C0
7180
ENDCHAR
STARTCHAR 1E9E
ENCODING 7838
SWIDTH 624 0
DWIDTH 13 0
BBX 9 15 2 0
BITMAP
7F80
FF80
E380
C300
C600
CE00
DE00
DF00
C380
C180
C180
C180
C380
DF00
DE00
ENDCHAR
STARTCHAR 1EA0
ENCODING 7840
SWIDTH 624 0
DWIDTH 13 0
BBX 11 19 1 -4
BITMAP
1E00
1E00
1F00
1B00
3B00
3B00
3380
3380
7180
7F80
7FC0
61C0
E0C0
E0C0
E0E0
0000
0000
0E00
0E00
ENDCHAR
STARTCHAR 1EA1
ENCODING 7841
SWIDTH 624 0
DWIDTH 13 0
BBX 10 16 1 -4
BITMAP
0E00
3F80
7BC0
61C0
01C0
3FC0
7FC0
E1C0
E1C0
E1C0
7FC0
7DC0
0000
0000
0E00
0E00
ENDCHAR
STARTCHAR 1EA2
ENCODING 7842
SWIDTH 624 0
DWIDTH 13 0
BBX 11 21 1 0
BITMAP
0E00
0F00
0300
0600
0000
0000
1E00
1E00
1F00
1B00
3B00
3B00
3380
3380
7180
7F80
7FC0
61C0
E0C0
E0C0
E0E0
ENDCHAR
STARTCHAR 1EA3
ENCODING 7843
SWIDTH 624 0
DWIDTH 13 0
BBX 10 17 1 0
BITMAP
0E00
0300
0600
0600
0000
0E00
3F80
7BC0
61C0
01C0
3FC0
7FC0
E1C0
E1C0
E1C0
7FC0
7DC0
ENDCHAR
STARTCHAR 1EA4
ENCODING 7844
SWIDTH 624 0
DWIDTH 13 0
BBX 12 21 1 0
BITMAP
0030
0060
1EC0
3B00
7180
0000
1E00
1E00
1F00
1B00
3B00
3B00
3380
3380
7180
7F80
7FC0
61C0
E0C0
E0C0
E0E0
ENDCHAR
STARTCHAR 1EA5
ENCODING 7845
SWIDTH 624 0
DWIDTH 13 0
BBX 13 19 1 0
BITMAP
0038
0070
00E0
1E00
3B00
7180
0000
0E00
3F80
7BC0
61C0
01C0
3FC0
7FC0
E1C0
E1C0
E1C0
7FC0
7DC0
ENDCHAR
STARTCHAR 1EA6
ENCODING 7846
SWIDTH 624 0
DWIDTH 13 0
BBX 13 21 -1 0
BITMAP
E000
7000
3F80
0EC0
1C60
0000
0780
0780
07C0
06C0
0EC0
0EC0
0CE0
0CE0
1C60
1FE0
1FF0
1870
3830
3830
3838
ENDCHAR
STARTCHAR 1EA7
ENCODING 7847
SWIDTH 624 0
DWIDTH 13 0
BBX 12 19 -1 0
BITMAP
C000
6000
3000
0780
0EC0
1C60
0000
0380
0FE0
1EF0
1870
0070
0FF0
1FF0
3870
3870
3870
1FF0
1F70
ENDCHAR
STARTCHAR 1EA8
ENCODING 7848
SWIDTH 624 0
DWIDTH 13 0
BBX 11 22 1 0
BITMAP
01E0
0060
0060
1E80
3B00
7180
0000
1E00
1E00
1F00
1B00
3B00
3B00
3380
3380
7180
7F80
7FC0
61C0
E0C0
E0C0
E0E0
ENDCHAR
STARTCHAR 1EA9
ENCODING 7849
SWIDTH 624 0
DWIDTH 13 0
BBX 11 19 1 0
BITMAP
01E0
0060
0060
1E80
3B00
7180
0000
0E00
3F80
7BC0
61C0
01C0
3FC0
7FC0
E1C0
E1C0
E1C0
7FC0
7DC0
ENDCHAR
STARTCHAR 1EAA
ENCODING 7850
SWIDTH 624 0
DWIDTH 13 0
BBX 11 22 1 0
BITMAP
3D80
2700
0000
1E00
3B00
7180
0000
1E00
1E00
1F00
1B00
3B00
3B00
3380
3380
7180
7F80
7FC0
61C0
E0C0
E0C0
E0E0
ENDCHAR
STARTCHAR 1EAB
ENCODING 7851
SWIDTH 624 0
DWIDTH 13 0
BBX 10 20 1 0
BITMAP
1980
3F80
2700
0000
1E00
3B00
7180
0000
0E00
3F80
7BC0
61C0
01C0
3FC0
7FC0
E1C0
E1C0
E1C0
7FC0
7DC0
ENDCHAR
STARTCHAR 1EAC
ENCODING 7852
SWIDTH 624 0
DWIDTH 13 0
BBX 11 24 1 -4
BITMAP
0E00
1F00
3380
0000
0000
1E00
1E00
1F00
1B00
3B00
3B00
3380
3380
7180
7F80
7FC0
61C0
E0C0
E0C0
E0E0
0000
0000
0E00
0E00
ENDCHAR
STARTCHAR 1EAD
ENCODING 7853
SWIDTH 624 0
DWIDTH 13 0
BBX 10 20 1 -4
BITMAP
1E00
3B00
7180
0000
0E00
3F80
7BC0
61C0
01C0
3FC0
7FC0
E1C0
E1C0
E1C0
7FC0
7DC0
0000
0000
0E00
0E00
ENDCHAR
STARTCHAR 1EAE
ENCODING 7854
SWIDTH 624 0
DWIDTH 13 0
BBX 11 21 1 0
BITMAP
0700
0E00
6180
3F80
1E00
0000
1E00
1E00
1F00
1B00
3B00
3B00
3380
3380
7180
7F80
7FC0
61C0
E0C0
E0C0
E0E0
ENDCHAR
STARTCHAR 1EAF
ENCODING 7855
SWIDTH 624 0
DWIDTH 13 0
BBX 10 19 1 0
BITMAP
0300
0600
0C00
3180
3F00
0E00
0000
0E00
3F80
7BC0
61C0
01C0
3FC0
7FC0
E1C0
E1C0
E1C0
7FC0
7DC0
ENDCHAR
STARTCHAR 1EB0
ENCODING 7856
SWIDTH 624 0
DWIDTH 13 0
BBX 11 21 1 0
BITMAP
3800
0C00
6180
3F80
1E00
0000
1E00
1E00
1F00
1B00
3B00
3B00
3380
3380
7180
7F80
7FC0
61C0
E0C0
E0C0
E0E0
ENDCHAR
STARTCHAR 1EB1
ENCODING 7857
SWIDTH 624 0
DWIDTH 13 0
BBX 10 19 1 0
BITMAP
3800
1800
0C00
3180
3F00
0E00
0000
0E00
3F80
7BC0
61C0
01C0
3FC0
7FC0
E1C0
E1C0
E1C0
7FC0
7DC0
ENDCHAR
STARTCHAR 1EB2
ENCODING 7858
SWIDTH 624 0
DWIDTH 13 0
BBX 11 23 1 0
BITMAP
1C00
1E00
0600
0600
6180
3F80
1E00
0000
1E00
1E00
1F00
1B00
3B00
3B00
3380
3380
7180
7F80
7FC0
61C0
E0C0
E0C0
E0E0
ENDCHAR
STARTCHAR 1EB3
ENCODING 7859
SWIDTH 624 0
DWIDTH 13 0
BBX 10 20 1 0
BITMAP
1C00
1E00
0600
0400
3180
3F00
0E00
0000
0E00
3F80
7BC0
61C0
01C0
3FC0
7FC0
E1C0
E1C0
E1C0
7FC0
7DC0
ENDCHAR
STARTCHAR 1EB4
ENCODING 7860
SWIDTH 624 0
DWIDTH 13 0
BBX 11 22 1 0
BITMAP
3D80
2780
0000
3180
3F80
1E00
0000
1E00
1E00
1F00
1B00
3B00
3B00
3380
3380
7180
7F80
7FC0
61C0
E0C0
E0C0
E0E0
ENDCHAR
STARTCHAR 1EB5
ENCODING 7861
SWIDTH 624 0
DWIDTH 13 0
BBX 10 20 1 0
BITMAP
1980
3D80
2700
0000
3180
3F00
0E00
0000
0E00
3F80
7BC0
61C0
01C0
3FC0
7FC0
E1C0
E1C0
E1C0
7FC0
7DC0
ENDCHAR
STARTCHAR 1EB6
ENCODING 7862
SWIDTH 624 0
DWIDTH 13 0
BBX 11 24 1 -4
BITMAP
3180
3380
1F00
0000
0000
1E00
1E00
1F00
1B00
3B00
3B00
3380
3380
7180
7F80
7FC0
61C0
E0C0
E0C0
E0E0
0000
0000
0E00
0E00
ENDCHAR
STARTCHAR 1EB7
ENCODING 7863
SWIDTH 624 0
DWIDTH 13 0
BBX 10 20 1 -4
BITMAP
3180
3F00
0E00
0000
0E00
3F80
7BC0
61C0
01C0
3FC0
7FC0
E1C0
E1C0
E1C0
7FC0
7DC0
0000
0000
0E00
0E00
ENDCHAR
STARTCHAR 1EB8
ENCODING 7864
SWIDTH 624 0
DWIDTH 13 0
BBX 9 19 2 -4
BITMAP
FF80
FF80
C000
C000
C000
C000
FF00
FF00
C000
C000
C000
C000
C000
FF80
FF80
0000
0000
1C00
1C00
ENDCHAR
STARTCHAR 1EB9
ENCODING 7865
SWIDTH 624 0
DWIDTH 13 0
BBX 10 16 1 -4
BITMAP
0E00
3F80
7380
61C0
E1C0
FFC0
FFC0
E000
6000
71C0
7F80
3F00
0000
0000
0E00
0E00
ENDCHAR
STARTCHAR 1EBA
ENCODING 7866
SWIDTH 624 0
DWIDTH 13 0
BBX 9 20 2 0
BITMAP
3C00
0C00
0C00
0000
0000
FF80
FF80
C000
C000
C000
C000
FF00
FF00
C000
C000
C000
C000
C000
FF80
FF80
ENDCHAR
STARTCHAR 1EBB
ENCODING 7867
SWIDTH 624 0
DWIDTH 13 0
BBX 10 17 1 0
BITMAP
1E00
0600
0600
0C00
0000
0E00
3F80
7380
61C0
E1C0
FFC0
FFC0
E000
6000
71C0
7F80
3F00
ENDCHAR
STARTCHAR 1EBC
ENCODING 7868
SWIDTH 624 0
DWIDTH 13 0
BBX 9 20 2 0
BITMAP
3300
7B00
4E00
0000
0000
FF80
FF80
C000
C000
C000
C000
FF00
FF00
C000
C000
C000
C000
C000
FF80
FF80
ENDCHAR
STARTCHAR 1EBD
ENCODING 7869
SWIDTH 624 0
DWIDTH 13 0
BBX 10 16 1 0
BITMAP
3D80
2780
2300
0000
0E00
3F80
7380
61C0
E1C0
FFC0
FFC0
E000
6000
71C0
7F80
3F00
ENDCHAR
STARTCHAR 1EBE
ENCODING 7870
SWIDTH 624 0
DWIDTH 13 0
BBX 11 21 2 0
BITMAP
0060
00C0
3D80
7600
E300
0000
FF80
FF80
C000
C000
C000
C000
FF00
FF00
C000
C000
C000
C000
C000
FF80
FF80
ENDCHAR
STARTCHAR 1EBF
ENCODING 7871
SWIDTH 624 0
DWIDTH 13 0
BBX 13 19 1 0
BITMAP
0038
0070
00E0
1E00
3B00
7180
0000
0E00
3F80
7380
61C0
E1C0
FFC0
FFC0
E000
6000
71C0
7F80
3F00
ENDCHAR
STARTCHAR 1EC0
ENCODING 7872
SWIDTH 624 0
DWIDTH 13 0
BBX 12 21 -1 0
BITMAP
E000
7000
3F80
0EC0
1C60
0000
1FF0
1FF0
1800
1800
1800
1800
1FE0
1FE0
1800
1800
1800
1800
1800
1FF0
1FF0
ENDCHAR
STARTCHAR 1EC1
ENCODING 7873
SWIDTH 624 0
DWIDTH 13 0
BBX 12 19 -1 0
BITMAP
C000
6000
3000
0780
0EC0
1C60
0000
0380
0FE0
1CE0
1870
3870
3FF0
3FF0
3800
1800
1C70
1FE0
0FC0
ENDCHAR
STARTCHAR 1EC2
ENCODING 7874
SWIDTH 624 0
DWIDTH 13 0
BBX 10 22 2 0
BITMAP
03C0
00C0
00C0
3D00
7600
E300
0000
FF80
FF80
C000
C000
C000
C000
FF00
FF00
C000
C000
C000
C000
C000
FF80
FF80
ENDCHAR
STARTCHAR 1EC3
ENCODING 7875
SWIDTH 624 0
DWIDTH 13 0
BBX 11 19 1 0
BITMAP
01E0
0060
0060
1E80
3B00
7180
0000
0E00
3F80
7380
61C0
E1C0
FFC0
FFC0
E000
6000
71C0
7F80
3F00
ENDCHAR
STARTCHAR 1EC4
ENCODING 7876
SWIDTH 624 0
DWIDTH 13 0
BBX 9 22 2 0
BITMAP
7B00
4E00
0000
3C00
7600
E300
0000
FF80
FF80
C000
C000
C000
C000
FF00
FF00
C000
C000
C000
C000
C000
FF80
FF80
ENDCHAR
STARTCHAR 1EC5
ENCODING 7877
SWIDTH 624 0
DWIDTH 13 0
BBX 10 20 1 0
BITMAP
1980
3F80
2700
0000
1E00
3B00
7180
0000
0E00
3F80
7380
61C0
E1C0
FFC0
FFC0
E000
6000
71C0
7F80
3F00
ENDCHAR
STARTCHAR 1EC6
ENCODING 7878
SWIDTH 624 0
DWIDTH 13 0
BBX 9 24 2 -4
BITMAP
1C00
3E00
6700
0000
0000
FF80
FF80
C000
C000
C000
C000
FF00
FF00
C000
C000
C000
C000
C000
FF80
FF80
0000
0000
1C00
1C00
ENDCHAR
STARTCHAR 1EC7
ENCODING 7879
SWIDTH 624 0
DWIDTH 13 0
BBX 10 20 1 -4
BITMAP
1E00
3B00
7180
0000
0E00
3F80
7380
61C0
E1C0
FFC0
FFC0
E000
6000
71C0
7F80
3F00
0000
0000
0E00
0E00
ENDCHAR
STARTCHAR 1EC8
ENCODING 7880
SWIDTH 624 0
DWIDTH 13 0
BBX 9 20 2 0
BITMAP
1E00
0600
0C00
0000
0000
FF80
FF80
1C00
1C00
1C00
1C00
1C00
1C00
1C00
1C00
1C00
1C00
1C00
FF80
FF80
ENDCHAR
STARTCHAR 1EC9
ENCODING 7881
SWIDTH 624 0
DWIDTH 13 0
BBX 10 17 2 0
BITMAP
1C00
0600
0C00
0C00
0000
0000
FC00
FC00
0C00
0C00
0C00
0C00
0C00
0C00
0C00
FFC0
FFC0
ENDCHAR
STARTCHAR 1ECA
ENCODING 7882
SWIDTH 624 0
DWIDTH 13 0
BBX 9 19 2 -4
BITMAP
FF80
FF80
1C00
1C00
1C00
1C00
1C00
1C00
1C00
1C00
1C00
1C00
1C00
FF80
FF80
0000
0000
1C00
3C00
ENDCHAR
STARTCHAR 1ECB
ENCODING 7883
SWIDTH 624 0
DWIDTH 13 0
BBX 10 20 2 -4
BITMAP
1C00
1C00
1C00
0000
0000
FC00
FC00
0C00
0C00
0C00
0C00
0C00
0C00
0C00
FFC0
FFC0
0000
0000
1C00
1C00
ENDCHAR
STARTCHAR 1ECC
ENCODING 7884
SWIDTH 624 0
DWIDTH 13 0
BBX 10 19 1 -4
BITMAP
3F00
7F80
71C0
61C0
E1C0
E1C0
E1C0
E1C0
E1C0
E1C0
E1C0
61C0
71C0
7F80
3F00
0000
0000
0E00
0E00
ENDCHAR
STARTCHAR 1ECD
ENCODING 7885
SWIDTH 624 0
DWIDTH 13 0
BBX 10 16 1 -4
BITMAP
0E00
3F80
7F80
61C0
E1C0
E1C0
E1C0
E1C0
61C0
71C0
7F80
3F00
0000
0000
0E00
0E00
ENDCHAR
STARTCHAR 1ECE
ENCODING 7886
SWIDTH 624 0
DWIDTH 13 0
BBX 10 20 1 0
BITMAP
0F00
0300
0600
0000
0000
3F00
7F80
71C0
61C0
E1C0
E1C0
E1C0
E1C0
E1C0
E1C0
E1C0
61C0
71C0
7F80
3F00
ENDCHAR
STARTCHAR 1ECF
ENCODING 7887
SWIDTH 624 0
DWIDTH 13 0
BBX 10 17 1 0
BITMAP
0E00
0300
0600
0600
0000
0E00
3F80
7F80
61C0
E1C0
E1C0
E1C0
E1C0
61C0
71C0
7F80
3F00
ENDCHAR
STARTCHAR 1ED0
ENCODING 7888
SWIDTH 624 0
DWIDTH 13 0
BBX 12 21 1 0
BITMAP
0030
0060
1EC0
3B00
7180
0000
3F00
7F80
71C0
61C0
E1C0
E1C0
E1C0
E1C0
E1C0
E1C0
E1C0
61C0
71C0
7F80
3F00
ENDCHAR
STARTCHAR 1ED1
ENCODING 7889
SWIDTH 624 0
DWIDTH 13 0
BBX 13 19 1 0
BITMAP
0038
0070
00E0
1E00
3B00
7180
0000
0E00
3F80
7F80
61C0
E1C0
E1C0
E1C0
E1C0
61C0
71C0
7F80
3F00
ENDCHAR
STARTCHAR 1ED2
ENCODING 7890
SWIDTH 624 0
DWIDTH 13 0
BBX 12 21 -1 0
BITMAP
E000
7000
3F80
0EC0
1C60
0000
0FC0
1FE0
1C70
1870
3870
3870
3870
3870
3870
3870
3870
1870
1C70
1FE0
0FC0
ENDCHAR
STARTCHAR 1ED3
ENCODING 7891
SWIDTH 624 0
DWIDTH 13 0
BBX 12 19 -1 0
BITMAP
C000
6000
3000
0780
0EC0
1C60
0000
0380
0FE0
1FE0
1870
3870
3870
3870
3870
1870
1C70
1FE0
0FC0
ENDCHAR
STARTCHAR 1ED4
ENCODING 7892
SWIDTH 624 0
DWIDTH 13 0
BBX 11 22 1 0
BITMAP
01E0
0060
0060
1E80
3B00
7180
0000
3F00
7F80
71C0
61C0
E1C0
E1C0
E1C0
E1C0
E1C0
E1C0
E1C0
61C0
71C0
7F80
3F00
ENDCHAR
STARTCHAR 1ED5
ENCODING 7893
SWIDTH 624 0
DWIDTH 13 0
BBX 11 19 1 0
BITMAP
01E0
0060
0060
1E80
3B00
7180
0000
0E00
3F80
7F80
61C0
E1C0
E1C0
E1C0
E1C0
61C0
71C0
7F80
3F00
ENDCHAR
STARTCHAR 1ED6
ENCODING 7894
SWIDTH 624 0
DWIDTH 13 0
BBX 10 22 1 0
BITMAP
3D80
2700
0000
1E00
3B00
7180
0000
3F00
7F80
71C0
61C0
E1C0
E1C0
E1C0
E1C0
E1C0
E1C0
E1C0
61C0
71C0
7F80
3F00
ENDCHAR
STARTCHAR 1ED7
ENCODING 7895
SWIDTH 624 0
DWIDTH 13 0
BBX 10 20 1 0
BITMAP
1980
3F80
2700
0000
1E00
3B00
7180
0000
0E00
3F80
7F80
61C0
E1C0
E1C0
E1C0
E1C0
61C0
71C0
7F80
3F00
ENDCHAR
STARTCHAR 1ED8
ENCODING 7896
SWIDTH 624 0
DWIDTH 13 0
BBX 10 24 1 -4
BITMAP
0E00
1F00
3380
0000
0000
3F00
7F80
71C0
61C0
E1C0
E1C0
E1C0
E1C0
E1C0
E1C0
E1C0
61C0
71C0
7F80
3F00
0000
0000
0E00
0E00
ENDCHAR
STARTCHAR 1ED9
ENCODING 7897
SWIDTH 624 0
DWIDTH 13 0
BBX 10 20 1 -4
BITMAP
1E00
3B00
7180
0000
0E00
3F80
7F80
61C0
E1C0
E1C0
E1C0
E1C0
61C0
71C0
7F80
3F00
0000
0000
0E00
0E00
ENDCHAR
STARTCHAR 1EDA
ENCODING 7898
SWIDTH 624 0
DWIDTH 13 0
BBX 11 20 1 0
BITMAP
0380
0700
0E00
0060
0060
3F60
7FC0
71C0
61C0
E1C0
E1C0
E1C0
E1C0
E1C0
E1C0
E1C0
61C0
71C0
7F80
3F00
ENDCHAR
STARTCHAR 1EDB
ENCODING 7899
SWIDTH 624 0
DWIDTH 13 0
BBX 11 16 1 0
BITMAP
0700
0600
0C60
0060
0E60
3FE0
7FC0
61C0
E1C0
E1C0
E1C0
E1C0
61C0
71C0
7F80
3F00
ENDCHAR
STARTCHAR 1EDC
ENCODING 7900
SWIDTH 624 0
DWIDTH 13 0
BBX 11 20 1 0
BITMAP
3800
1800
0C00
0060
0060
3F60
7FC0
71C0
61C0
E1C0
E1C0
E1C0
E1C0
E1C0
E1C0
E1C0
61C0
71C0
7F80
3F00
ENDCHAR
STARTCHAR 1EDD
ENCODING 7901
SWIDTH 624 0
DWIDTH 13 0
BBX 11 16 1 0
BITMAP
3800
1C00
0E60
0060
0E60
3FE0
7FC0
61C0
E1C0
E1C0
E1C0
E1C0
61C0
71C0
7F80
3F00
ENDCHAR
STARTCHAR 1EDE
ENCODING 7902
SWIDTH 624 0
DWIDTH 13 0
BBX 11 20 1 0
BITMAP
1E00
0600
0600
0060
0060
3F60
7FC0
71C0
61C0
E1C0
E1C0
E1C0
E1C0
E1C0
E1C0
E1C0
61C0
71C0
7F80
3F00
ENDCHAR
STARTCHAR 1EDF
ENCODING 7903
SWIDTH 624 0
DWIDTH 13 0
BBX 11 17 1 0
BITMAP
1E00
0600
0600
0C60
0060
0E60
3FE0
7FC0
61C0
E1C0
E1C0
E1C0
E1C0
61C0
71C0
7F80
3F00
ENDCHAR
STARTCHAR 1EE0
ENCODING 7904
SWIDTH 624 0
DWIDTH 13 0
BBX 11 20 1 0
BITMAP
1980
3D80
2700
0060
0060
3F60
7FC0
71C0
61C0
E1C0
E1C0
E1C0
E1C0
E1C0
E1C0
E1C0
61C0
71C0
7F80
3F00
ENDCHAR
STARTCHAR 1EE1
ENCODING 7905
SWIDTH 624 0
DWIDTH 13 0
BBX 11 16 1 0
BITMAP
3D80
2780
2360
0060
0E60
3FE0
7FC0
61C0
E1C0
E1C0
E1C0
E1C0
61C0
71C0
7F80
3F00
ENDCHAR
STARTCHAR 1EE2
ENCODING 7906
SWIDTH 624 0
DWIDTH 13 0
BBX 11 21 1 -4
BITMAP
0060
0060
3F60
7FC0
71C0
61C0
E1C0
E1C0
E1C0
E1C0
E1C0
E1C0
E1C0
61C0
71C0
7F80
3F00
0000
0000
0E00
0E00
ENDCHAR
STARTCHAR 1EE3
ENCODING 7907
SWIDTH 624 0
DWIDTH 13 0
BBX 11 18 1 -4
BITMAP
0060
0060
0E60
3FE0
7FC0
61C0
E1C0
E1C0
E1C0
E1C0
61C0
71C0
7F80
3F00
0000
0000
0E00
0E00
ENDCHAR
STARTCHAR 1EE4
ENCODING 7908
SWIDTH 624 0
DWIDTH 13 0
BBX 10 19 1 -4
BITMAP
E1C0
E1C0
E1C0
E1C0
E1C0
E1C0
E1C0
E1C0
E1C0
E1C0
E1C0
61C0
71C0
7F80
3F00
0000
0000
0E00
0E00
ENDCHAR
STARTCHAR 1EE5
ENCODING 7909
SWIDTH 624 0
DWIDTH 13 0
BBX 9 15 2 -4
BITMAP
C380
C380
C380
C380
C380
C380
C380
C380
E380
FF00
7E00
0000
0000
1C00
1C00
ENDCHAR
STARTCHAR 1EE6
ENCODING 7910
SWIDTH 624 0
DWIDTH 13 0
BBX 10 20 1 0
BITMAP
1E00
0600
0600
0000
0000
E1C0
E1C0
E1C0
E1C0
E1C0
E1C0
E1C0
E1C0
E1C0
E1C0
E1C0
61C0
71C0
7F80
3F00
ENDCHAR
STARTCHAR 1EE7
ENCODING 7911
SWIDTH 624 0
DWIDTH 13 0
BBX 9 17 2 0
BITMAP
3C00
0C00
0C00
1800
0000
0000
C380
C380
C380
C380
C380
C380
C380
C380
E380
FF00
7E00
ENDCHAR
STARTCHAR 1EE8
ENCODING 7912
SWIDTH 624 0
DWIDTH 13 0
BBX 12 20 1 0
BITMAP
0380
0700
0E00
0030
0030
E1F0
E1C0
E1C0
E1C0
E1C0
E1C0
E1C0
E1C0
E1C0
E1C0
E1C0
61C0
71C0
7F80
3F00
ENDCHAR
STARTCHAR 1EE9
ENCODING 7913
SWIDTH 624 0
DWIDTH 13 0
BBX 11 16 2 0
BITMAP
0E00
0C00
1860
0060
00E0
C3C0
C380
C380
C380
C380
C380
C380
C380
E380
FF00
7E00
ENDCHAR
STARTCHAR 1EEA
ENCODING 7914
SWIDTH 624 0
DWIDTH 13 0
BBX 12 20 1 0
BITMAP
3800
1800
0C00
0030
0030
E1F0
E1C0
E1C0
E1C0
E1C0
E1C0
E1C0
E1C0
E1C0
E1C0
E1C0
61C0
71C0
7F80
3F00
ENDCHAR
STARTCHAR 1EEB
ENCODING 7915
SWIDTH 624 0
DWIDTH 13 0
BBX 11 16 2 0
BITMAP
7000
3800
1C60
0060
00E0
C3C0
C380
C380
C380
C380
C380
C380
C380
E380
FF00
7E00
ENDCHAR
STARTCHAR 1EEC
ENCODING 7916
SWIDTH 624 0
DWIDTH 13 0
BBX 12 20 1 0
BITMAP
1E00
0600
0600
0030
0030
E1F0
E1C0
E1C0
E1C0
E1C0
E1C0
E1C0
E1C0
E1C0
E1C0
E1C0
61C0
71C0
7F80
3F00
ENDCHAR
STARTCHAR 1EED
ENCODING 7917
SWIDTH 624 0
DWIDTH 13 0
BBX 11 17 2 0
BITMAP
3C00
0C00
0C00
1860
0060
00E0
C3C0
C380
C380
C380
C380
C380
C380
C380
E380
FF00
7E00
ENDCHAR
STARTCHAR 1EEE
ENCODING 7918
SWIDTH 624 0
DWIDTH 13 0
BBX 12 20 1 0
BITMAP
1980
3D80
2700
0030
0030
E1F0
E1C0
E1C0
E1C0
E1C0
E1C0
E1C0
E1C0
E1C0
E1C0
E1C0
61C0
71C0
7F80
3F00
ENDCHAR
STARTCHAR 1EEF
ENCODING 7919
SWIDTH 624 0
DWIDTH 13 0
BBX 11 16 2 0
BITMAP
7B00
4F00
4660
0060
00E0
C3C0
C380
C380
C380
C380
C380
C380
C380
E380
FF00
7E00
ENDCHAR
STARTCHAR 1EF0
ENCODING 7920
SWIDTH 624 0
DWIDTH 13 0
BBX 12 21 1 -4
BITMAP
0030
0030
E1F0
E1C0
E1C0
E1C0
E1C0
E1C0
E1C0
E1C0
E1C0
E1C0
E1C0
61C0
71C0
7F80
3F00
0000
0000
0E00
0E00
ENDCHAR
STARTCHAR 1EF1
ENCODING 7921
SWIDTH 624 0
DWIDTH 13 0
BBX 11 18 2 -4
BITMAP
0060
0060
00E0
C3C0
C380
C380
C380
C380
C380
C380
C380
E380
FF00
7E00
0000
0000
1C00
1C00
ENDCHAR
STARTCHAR 1EF2
ENCODING 7922
SWIDTH 624 0
DWIDTH 13 0
BBX 11 20 1 0
BITMAP
3800
1800
0C00
0000
0000
E0E0
E0C0
61C0
7180
3380
3B00
1F00
1E00
1E00
0E00
0E00
0E00
0E00
0E00
0E00
ENDCHAR
STARTCHAR 1EF3
ENCODING 7923
SWIDTH 624 0
DWIDTH 13 0
BBX 10 20 1 -4
BITMAP
3800
1C00
0E00
0000
0000
E0C0
61C0
71C0
7180
3380
3B80
1B00
1F00
1E00
0E00
0E00
0C00
1C00
1C00
1800
ENDCHAR
STARTCHAR 1EF4
ENCODING 7924
SWIDTH 624 0
DWIDTH 13 0
BBX 11 19 1 -4
BITMAP
E0E0
E0C0
61C0
7180
3380
3B00
1F00
1E00
1E00
0E00
0E00
0E00
0E00
0E00
0E00
0000
0000
0E00
0E00
ENDCHAR
STARTCHAR 1EF5
ENCODING 7925
SWIDTH 624 0
DWIDTH 13 0
BBX 10 15 1 -4
BITMAP
E0C0
61C0
71C0
7180
3380
3B80
1B00
1F00
1E00
0E00
0E00
0C00
1C00
1DC0
19C0
ENDCHAR
STARTCHAR 1EF6
ENCODING 7926
SWIDTH 624 0
DWIDTH 13 0
BBX 11 20 1 0
BITMAP
1E00
0600
0600
0000
0000
E0E0
E0C0
61C0
7180
3380
3B00
1F00
1E00
1E00
0E00
0E00
0E00
0E00
0E00
0E00
ENDCHAR
STARTCHAR 1EF7
ENCODING 7927
SWIDTH 624 0
DWIDTH 13 0
BBX 10 21 1 -4
BITMAP
1E00
0300
0600
0E00
0000
0000
E0C0
61C0
71C0
7180
3380
3B80
1B00
1F00
1E00
0E00
0E00
0C00
1C00
1C00
1800
ENDCHAR
STARTCHAR 1EF8
ENCODING 7928
SWIDTH 624 0
DWIDTH 13 0
BBX 11 20 1 0
BITMAP
1980
3D80
2700
0000
0000
E0E0
E0C0
61C0
7180
3380
3B00
1F00
1E00
1E00
0E00
0E00
0E00
0E00
0E00
0E00
ENDCHAR
STARTCHAR 1EF9
ENCODING 7929
SWIDTH 624 0
DWIDTH 13 0
BBX 10 20 1 -4
BITMAP
3D80
2780
2300
0000
0000
E0C0
61C0
71C0
7180
3380
3B80
1B00
1F00
1E00
0E00
0E00
0C00
1C00
1C00
1800
ENDCHAR
STARTCHAR 2010
ENCODING 8208
SWIDTH 624 0
DWIDTH 13 0
BBX 9 2 2 6
BITMAP
FF80
FF80
ENDCHAR
STARTCHAR 2013
ENCODING 8211
SWIDTH 624 0
DWIDTH 13 0
BBX 10 2 1 6
BITMAP
FFC0
FFC0
ENDCHAR
STARTCHAR 2014
ENCODING 8212
SWIDTH 624 0
DWIDTH 13 0
BBX 12 2 0 6
BITMAP
FFF0
FFF0
ENDCHAR
STARTCHAR 2018
ENCODING 8216
SWIDTH 624 0
DWIDTH 13 0
BBX 4 6 5 10
BITMAP
30
70
70
70
E0
E0
ENDCHAR
STARTCHAR 2019
ENCODING 8217
SWIDTH 624 0
DWIDTH 13 0
BBX 5 6 3 10
BITMAP
38
70
70
60
E0
E0
ENDCHAR
STARTCHAR 201A
ENCODING 8218
SWIDTH 624 0
DWIDTH 13 0
BBX 5 6 3 -3
BITMAP
38
70
70
70
60
E0
ENDCHAR
STARTCHAR 201C
ENCODING 8220
SWIDTH 624 0
DWIDTH 13 0
BBX 10 6 1 10
BITMAP
18C0
39C0
31C0
7380
7380
F380
ENDCHAR
STARTCHAR 201D
ENCODING 8221
SWIDTH 624 0
DWIDTH 13 0
BBX 10 6 1 10
BITMAP
39C0
39C0
7380
7380
6300
E300
ENDCHAR
STARTCHAR 201E
ENCODING 8222
SWIDTH 624 0
DWIDTH 13 0
BBX 10 6 1 -3
BITMAP
39C0
39C0
7380
7380
6300
E300
ENDCHAR
STARTCHAR 2020
ENCODING 8224
SWIDTH 624 0
DWIDTH 13 0
BBX 9 19 2 -2
BITMAP
1C00
1C00
1C00
1C00
FF80
FF80
FF80
1C00
1C00
1C00
1C00
1C00
1C00
1C00
1C00
1C00
1C00
1C00
1C00
ENDCHAR
STARTCHAR 2021
ENCODING 8225
SWIDTH 624 0
DWIDTH 13 0
BBX 9 19 2 -2
BITMAP
1C00
1C00
1C00
1C00
FF80
FF80
FF80
1C00
1C00
1C00
1C00
1C00
FF80
FF80
1C00
1C00
1C00
1C00
1C00
ENDCHAR
STARTCHAR 2022
ENCODING 8226
SWIDTH 624 0
DWIDTH 13 0
BBX 5 5 4 5
BITMAP
F0
F8
F8
F8
F0
ENDCHAR
STARTCHAR 2024
ENCODING 8228
SWIDTH 624 0
DWIDTH 13 0
BBX 4 3 4 0
BITMAP
F0
F0
70
ENDCHAR
STARTCHAR 2026
ENCODING 8230
SWIDTH 624 0
DWIDTH 13 0
BBX 10 4 1 0
BITMAP
4440
ECC0
ECC0
CCC0
ENDCHAR
STARTCHAR 2030
ENCODING 8240
SWIDTH 624 0
DWIDTH 13 0
BBX 12 15 0 0
BITMAP
7880
D980
C900
CB00
FA00
7400
0C00
0800
1800
1770
2D90
2C90
4C90
CD90
8770
ENDCHAR
STARTCHAR 2032
ENCODING 8242
SWIDTH 624 0
DWIDTH 13 0
BBX 5 6 3 10
BITMAP
38
70
70
70
60
E0
ENDCHAR
STARTCHAR 2033
ENCODING 8243
SWIDTH 624 0
DWIDTH 13 0
BBX 10 6 1 10
BITMAP
39C0
39C0
7380
7380
6300
E300
ENDCHAR
STARTCHAR 2039
ENCODING 8249
SWIDTH 624 0
DWIDTH 13 0
BBX 6 10 3 1
BITMAP
0C
18
38
70
E0
E0
70
30
38
1C
ENDCHAR
STARTCHAR 203A
ENCODING 8250
SWIDTH 624 0
DWIDTH 13 0
BBX 6 10 3 1
BITMAP
E0
70
38
18
1C
0C
1C
38
70
E0
ENDCHAR
STARTCHAR 2044
ENCODING 8260
SWIDTH 624 0
DWIDTH 13 0
BBX 9 15 2 0
BITMAP
0180
0300
0200
0600
0400
0C00
0800
1800
1000
3000
2000
6000
4000
C000
8000
ENDCHAR
STARTCHAR 2070
ENCODING 8304
SWIDTH 624 0
DWIDTH 13 0
BBX 7 9 3 8
BITMAP
7C
CC
C6
C6
C6
C6
C6
FC
38
ENDCHAR
STARTCHAR 2074
ENCODING 8308
SWIDTH 624 0
DWIDTH 13 0
BBX 6 9 3 8
BITMAP
18
30
60
6C
CC
FC
FC
0C
0C
ENDCHAR
STARTCHAR 2075
ENCODING 8309
SWIDTH 624 0
DWIDTH 13 0
BBX 6 9 3 8
BITMAP
FC
C0
C0
F8
CC
0C
8C
FC
70
ENDCHAR
STARTCHAR 2076
ENCODING 8310
SWIDTH 624 0
DWIDTH 13 0
BBX 7 9 3 8
BITMAP
30
30
60
5C
EC
C6
C6
FC
38
ENDCHAR
STARTCHAR 2077
ENCODING 8311
SWIDTH 624 0
DWIDTH 13 0
BBX 6 9 3 8
BITMAP
FC
C4
CC
08
18
18
30
30
60
ENDCHAR
STARTCHAR 2078
ENCODING 8312
SWIDTH 624 0
DWIDTH 13 0
BBX 6 9 3 8
BITMAP
7C
C4
C4
7C
7C
C4
C4
FC
38
ENDCHAR
STARTCHAR 2079
ENCODING 8313
SWIDTH 624 0
DWIDTH 13 0
BBX 7 9 3 8
BITMAP
7C
CC
C6
C4
7C
0C
18
30
30
ENDCHAR
STARTCHAR 207A
ENCODING 8314
SWIDTH 624 0
DWIDTH 13 0
BBX 6 6 3 6
BITMAP
30
30
FC
30
30
30
ENDCHAR
STARTCHAR 2080
ENCODING 8320
SWIDTH 624 0
DWIDTH 13 0
BBX 7 9 3 -2
BITMAP
38
FC
C6
C6
C6
C6
C6
CC
7C
ENDCHAR
STARTCHAR 2081
ENCODING 8321
SWIDTH 624 0
DWIDTH 13 0
BBX 7 9 3 -2
BITMAP
38
78
D8
98
18
18
18
18
FE
ENDCHAR
STARTCHAR 2082
ENCODING 8322
SWIDTH 624 0
DWIDTH 13 0
BBX 7 9 3 -2
BITMAP
38
7C
C4
04
0C
18
30
E0
FE
ENDCHAR
STARTCHAR 2083
ENCODING 8323
SWIDTH 624 0
DWIDTH 13 0
BBX 6 9 3 -2
BITMAP
FC
FC
08
30
38
0C
0C
CC
F8
ENDCHAR
STARTCHAR 2084
ENCODING 8324
SWIDTH 624 0
DWIDTH 13 0
BBX 6 9 3 -2
BITMAP
18
18
30
60
CC
CC
FC
0C
0C
ENDCHAR
STARTCHAR 2085
ENCODING 8325
SWIDTH 624 0
DWIDTH 13 0
BBX 6 9 3 -2
BITMAP
FC
FC
C0
C0
F8
CC
0C
CC
F8
ENDCHAR
STARTCHAR 2086
ENCODING 8326
SWIDTH 624 0
DWIDTH 13 0
BBX 7 9 3 -2
BITMAP
18
30
20
60
FC
CC
C6
CC
7C
ENDCHAR
STARTCHAR 2087
ENCODING 8327
SWIDTH 624 0
DWIDTH 13 0
BBX 6 9 3 -2
BITMAP
FC
FC
C4
0C
08
18
10
30
20
ENDCHAR
STARTCHAR 2088
ENCODING 8328
SWIDTH 624 0
DWIDTH 13 0
BBX 6 10 3 -3
BITMAP
10
7C
C4
C4
78
7C
C4
C4
FC
38
ENDCHAR
STARTCHAR 2089
ENCODING 8329
SWIDTH 624 0
DWIDTH 13 0
BBX 7 9 3 -2
BITMAP
38
FC
C6
C6
CC
7C
08
18
30
ENDCHAR
STARTCHAR 20AB
ENCODING 8363
SWIDTH 624 0
DWIDTH 13 0
BBX 11 17 1 -2
BITMAP
01C0
01C0
07E0
01C0
01C0
3FC0
7FC0
71C0
E1C0
E1C0
61C0
73C0
7FC0
3DC0
0000
FFC0
FFC0
ENDCHAR
STARTCHAR 20AC
ENCODING 8364
SWIDTH 624 0
DWIDTH 13 0
BBX 12 15 0 0
BITMAP
0F80
1FE0
38E0
3070
3000
FF00
FF00
3000
FF00
FF00
3000
3070
38E0
1FE0
0FC0
ENDCHAR
STARTCHAR 20AE
ENCODING 8366
SWIDTH 624 0
DWIDTH 13 0
BBX 11 15 1 0
BITMAP
FFE0
FFE0
0C00
0C00
0C40
0FC0
3FC0
7C00
4C40
0FC0
7F80
7C00
0C00
0C00
0C00
ENDCHAR
STARTCHAR 20BD
ENCODING 8381
SWIDTH 624 0
DWIDTH 13 0
BBX 12 15 0 0
BITMAP
3FC0
3FE0
38E0
3870
3870
3870
FFE0
FFC0
FF00
3800
FF80
FF80
3800
3800
3800
ENDCHAR
STARTCHAR 2113
ENCODING 8467
SWIDTH 624 0
DWIDTH 13 0
BBX 10 15 1 0
BITMAP
1F00
1F80
39C0
39C0
39C0
39C0
3B80
3F00
7E00
F800
7800
3800
3980
1F80
0F00
ENDCHAR
STARTCHAR 2115
ENCODING 8469
SWIDTH 624 0
DWIDTH 13 0
BBX 9 15 2 0
BITMAP
E080
A080
9080
D080
C880
A880
A880
9480
9480
9280
8A80
8980
8580
8480
8380
ENDCHAR
STARTCHAR 2116
ENCODING 8470
SWIDTH 624 0
DWIDTH 13 0
BBX 12 15 0 0
BITMAP
E670
E6D0
F6D0
F6D0
D6D0
D6D0
DED0
DEF0
FA60
EA00
EE00
EE00
EE00
E600
E600
ENDCHAR
STARTCHAR 2122
ENCODING 8482
SWIDTH 624 0
DWIDTH 13 0
BBX 12 7 0 8
BITMAP
FF30
33D0
33D0
33F0
3330
3330
3330
ENDCHAR
STARTCHAR 212E
ENCODING 8494
SWIDTH 624 0
DWIDTH 13 0
BBX 10 15 1 0
BITMAP
3F00
6080
40C0
C0C0
C0C0
C0C0
FFC0
FFC0
C000
C000
C000
C000
4040
6080
1F00
ENDCHAR
STARTCHAR 2190
ENCODING 8592
SWIDTH 624 0
DWIDTH 13 0
BBX 11 12 1 1
BITMAP
0C00
1C00
1800
3000
6000
FFE0
FFE0
6000
3000
3800
1800
0C00
ENDCHAR
STARTCHAR 2191
ENCODING 8593
SWIDTH 624 0
DWIDTH 13 0
BBX 12 15 0 0
BITMAP
0600
0F80
1FC0
36E0
E670
C610
8600
0600
0600
0600
0600
0600
0600
0600
0600
ENDCHAR
STARTCHAR 2192
ENCODING 8594
SWIDTH 624 0
DWIDTH 13 0
BBX 11 12 1 1
BITMAP
0C00
0600
0300
0180
01C0
FFC0
FFE0
00C0
0180
0300
0600
0E00
ENDCHAR
STARTCHAR 2193
ENCODING 8595
SWIDTH 624 0
DWIDTH 13 0
BBX 12 15 0 0
BITMAP
0600
0600
0600
0600
0600
0600
0600
0600
8610
C630
6670
36E0
1F80
0F00
0600
ENDCHAR
STARTCHAR 2194
ENCODING 8596
SWIDTH 624 0
DWIDTH 13 0
BBX 15 12 -1 1
BITMAP
0C60
1870
3030
7018
600C
FFFE
FFFE
E00C
6018
3038
1830
0C60
ENDCHAR
STARTCHAR 2195
ENCODING 8597
SWIDTH 624 0
DWIDTH 13 0
BBX 12 22 0 -4
BITMAP
0200
0700
0F80
3EC0
7660
E630
8610
0600
0600
0600
0600
0600
0600
0600
0600
8600
C610
E630
76E0
1FC0
0F80
0600
ENDCHAR
STARTCHAR 2196
ENCODING 8598
SWIDTH 624 0
DWIDTH 13 0
BBX 11 11 1 2
BITMAP
FF80
FF80
F000
F800
DC00
CE00
C700
C380
C1C0
00E0
0060
ENDCHAR
STARTCHAR 2197
ENCODING 8599
SWIDTH 624 0
DWIDTH 13 0
BBX 11 11 1 2
BITMAP
3FE0
3FE0
01E0
0360
0660
0C60
1860
3060
6060
C000
8000
ENDCHAR
STARTCHAR 2198
ENCODING 8600
SWIDTH 624 0
DWIDTH 13 0
BBX 12 11 0 2
BITMAP
4000
E000
7000
3830
1C30
0E30
0730
03B0
01F0
00F0
1FF0
ENDCHAR
STARTCHAR 2199
ENCODING 8601
SWIDTH 624 0
DWIDTH 13 0
BBX 11 10 1 3
BITMAP
0060
00C0
C180
C300
C600
CC00
D800
B000
E000
FF80
ENDCHAR
STARTCHAR 2200
ENCODING 8704
SWIDTH 624 0
DWIDTH 13 0
BBX 11 15 1 0
BITMAP
E0E0
E0C0
E1C0
61C0
7FC0
7F80
7180
3380
3380
3B00
3B00
1F00
1F00
1E00
1E00
ENDCHAR
STARTCHAR 2202
ENCODING 8706
SWIDTH 624 0
DWIDTH 13 0
BBX 10 15 1 0
BITMAP
1E00
0F00
0700
0380
01C0
3FC0
7FC0
71C0
61C0
E1C0
E1C0
61C0
71C0
7F80
3F00
ENDCHAR
STARTCHAR 2203
ENCODING 8707
SWIDTH 624 0
DWIDTH 13 0
BBX 9 15 2 0
BITMAP
FF80
FF80
0380
0380
0380
0380
FF80
FF80
0380
0380
0380
0380
0380
FF80
FF80
ENDCHAR
STARTCHAR 2208
ENCODING 8712
SWIDTH 624 0
DWIDTH 13 0
BBX 11 13 1 1
BITMAP
1FE0
7FE0
FFE0
E000
C000
FFE0
FFE0
FFE0
C000
E000
FFE0
7FE0
1FE0
ENDCHAR
STARTCHAR 2209
ENCODING 8713
SWIDTH 624 0
DWIDTH 13 0
BBX 11 17 1 -1
BITMAP
0180
0100
1FE0
7FE0
FFE0
E600
C600
FFE0
FFE0
FFE0
C800
F800
FFE0
7FE0
3FE0
3000
2000
ENDCHAR
STARTCHAR 220B
ENCODING 8715
SWIDTH 624 0
DWIDTH 13 0
BBX 11 13 1 1
BITMAP
FE00
FF80
FFC0
00E0
00E0
FFE0
FFE0
FFE0
00E0
00E0
FFC0
FF80
FE00
ENDCHAR
STARTCHAR 220C
ENCODING 8716
SWIDTH 624 0
DWIDTH 13 0
BBX 11 17 1 -1
BITMAP
0180
0100
FF00
FF80
FFC0
06E0
06E0
FFE0
FFE0
FFE0
08E0
18E0
FFC0
FF80
FE00
3000
2000
ENDCHAR
STARTCHAR 220F
ENCODING 8719
SWIDTH 624 0
DWIDTH 13 0
BBX 11 19 1 -4
BITMAP
FFE0
FFE0
71C0
71C0
71C0
71C0
71C0
71C0
71C0
71C0
71C0
71C0
71C0
71C0
71C0
71C0
71C0
71C0
71C0
ENDCHAR
STARTCHAR 2210
ENCODING 8720
SWIDTH 624 0
DWIDTH 13 0
BBX 11 19 1 -4
BITMAP
61C0
61C0
61C0
61C0
61C0
61C0
61C0
61C0
61C0
61C0
61C0
61C0
61C0
61C0
61C0
61C0
FFE0
FFE0
FFE0
ENDCHAR
STARTCHAR 2211
ENCODING 8721
SWIDTH 624 0
DWIDTH 13 0
BBX 10 19 1 -4
BITMAP
FFC0
FFC0
F000
7000
3800
1C00
0E00
0700
0300
0300
0700
0F00
0E00
1C00
3800
7000
FFC0
FFC0
FFC0
ENDCHAR
STARTCHAR 2212
ENCODING 8722
SWIDTH 624 0
DWIDTH 13 0
BBX 9 2 2 6
BITMAP
FF80
FF80
ENDCHAR
STARTCHAR 2215
ENCODING 8725
SWIDTH 624 0
DWIDTH 13 0
BBX 9 15 2 0
BITMAP
0180
0300
0200
0600
0400
0C00
0800
1800
1000
3000
2000
6000
4000
C000
8000
ENDCHAR
STARTCHAR 2219
ENCODING 8729
SWIDTH 624 0
DWIDTH 13 0
BBX 4 4 4 5
BITMAP
20
F0
F0
70
ENDCHAR
STARTCHAR 221A
ENCODING 8730
SWIDTH 624 0
DWIDTH 13 0
BBX 12 15 0 0
BITMAP
0030
0070
0070
0060
F060
F8E0
18C0
18C0
18C0
1DC0
0D80
0D80
0D80
0F00
0700
ENDCHAR
STARTCHAR 221E
ENCODING 8734
SWIDTH 624 0
DWIDTH 13 0
BBX 11 8 1 3
BITMAP
2000
FBC0
CE60
8C60
8C60
CE60
F7C0
6180
ENDCHAR
STARTCHAR 2223
ENCODING 8739
SWIDTH 624 0
DWIDTH 13 0
BBX 3 15 5 0
BITMAP
E0
E0
E0
E0
E0
E0
E0
E0
E0
E0
E0
E0
E0
E0
E0
ENDCHAR
STARTCHAR 2225
ENCODING 8741
SWIDTH 624 0
DWIDTH 13 0
BBX 7 15 3 0
BITMAP
CE
CE
CE
CE
CE
CE
CE
CE
CE
CE
CE
CE
CE
CE
CE
ENDCHAR
STARTCHAR 2227
ENCODING 8743
SWIDTH 624 0
DWIDTH 13 0
BBX 10 10 1 1
BITMAP
1E00
1F00
3F00
3B00
3380
7380
7180
61C0
E1C0
E0C0
ENDCHAR
STARTCHAR 2228
ENCODING 8744
SWIDTH 624 0
DWIDTH 13 0
BBX 10 10 1 1
BITMAP
E0C0
61C0
71C0
7180
3380
3B80
3B00
1F00
1E00
1E00
ENDCHAR
STARTCHAR 222B
ENCODING 8747
SWIDTH 624 0
DWIDTH 13 0
BBX 11 19 0 -4
BITMAP
03E0
07E0
0E00
0E00
0E00
0E00
0E00
0E00
0E00
0E00
0E00
0E00
0E00
0E00
0E00
0E00
FE00
FC00
F000
ENDCHAR
STARTCHAR 2237
ENCODING 8759
SWIDTH 624 0
DWIDTH 13 0
BBX 10 11 1 0
BITMAP
6080
F1C0
F1C0
F1C0
0000
0000
0000
6080
F1C0
F1C0
F1C0
ENDCHAR
STARTCHAR 223C
ENCODING 8764
SWIDTH 624 0
DWIDTH 13 0
BBX 10 5 1 5
BITMAP
3000
FCC0
CCC0
C7C0
C780
ENDCHAR
STARTCHAR 2248
ENCODING 8776
SWIDTH 624 0
DWIDTH 13 0
BBX 10 10 1 2
BITMAP
7800
FCC0
CEC0
C7C0
C380
3000
FCC0
CCC0
C7C0
C780
ENDCHAR
STARTCHAR 2249
ENCODING 8777
SWIDTH 624 0
DWIDTH 13 0
BBX 10 17 1 -1
BITMAP
0180
0100
0300
0300
7A00
FEC0
CEC0
C7C0
CF80
3C00
FCC0
DCC0
DFC0
D780
3000
3000
2000
ENDCHAR
STARTCHAR 2260
ENCODING 8800
SWIDTH 624 0
DWIDTH 13 0
BBX 9 17 2 -1
BITMAP
0300
0200
0600
0600
0400
FF80
FF80
FF80
1800
1800
FF80
FF80
FF80
2000
6000
6000
4000
ENDCHAR
STARTCHAR 2261
ENCODING 8801
SWIDTH 624 0
DWIDTH 13 0
BBX 9 10 2 2
BITMAP
FF80
FF80
0000
0000
FF80
FF80
0000
0000
FF80
FF80
ENDCHAR
STARTCHAR 2264
ENCODING 8804
SWIDTH 624 0
DWIDTH 13 0
BBX 9 15 2 0
BITMAP
0080
0780
1F00
7C00
F000
C000
F000
7C00
1F00
0780
0180
0000
0000
FF80
FF80
ENDCHAR
STARTCHAR 2265
ENCODING 8805
SWIDTH 624 0
DWIDTH 13 0
BBX 9 15 2 0
BITMAP
8000
E000
F800
3E00
0F80
0180
0780
3F00
F800
E000
8000
0000
0000
FF80
FF80
ENDCHAR
STARTCHAR 2282
ENCODING 8834
SWIDTH 624 0
DWIDTH 13 0
BBX 11 11 1 2
BITMAP
1FE0
7FE0
FFE0
E000
C000
C000
C000
E000
FFE0
7FE0
1FE0
ENDCHAR
STARTCHAR 2283
ENCODING 8835
SWIDTH 624 0
DWIDTH 13 0
BBX 11 11 1 2
BITMAP
FE00
FF80
FFC0
00E0
00E0
00E0
00E0
00E0
FFC0
FF80
FE00
ENDCHAR
STARTCHAR 2284
ENCODING 8836
SWIDTH 624 0
DWIDTH 13 0
BBX 11 17 1 -1
BITMAP
0180
0100
0300
1FE0
7FE0
FFE0
E600
C400
CC00
CC00
E800
FFE0
7FE0
1FE0
3000
3000
2000
ENDCHAR
STARTCHAR 2285
ENCODING 8837
SWIDTH 624 0
DWIDTH 13 0
BBX 11 17 1 -1
BITMAP
0180
0100
0300
FF00
FF80
FFC0
06E0
04E0
0CE0
0CE0
08E0
FFC0
FF80
FE00
3000
3000
2000
ENDCHAR
STARTCHAR 2286
ENCODING 8838
SWIDTH 624 0
DWIDTH 13 0
BBX 11 14 1 0
BITMAP
7FE0
FFE0
E000
C000
C000
C000
E000
FFE0
7FE0
3FE0
0000
0000
FFE0
FFE0
ENDCHAR
STARTCHAR 2287
ENCODING 8839
SWIDTH 624 0
DWIDTH 13 0
BBX 11 14 1 0
BITMAP
FF80
FFC0
00E0
00E0
00E0
00E0
00E0
FFC0
FFC0
FF00
0000
0000
FFE0
FFE0
ENDCHAR
STARTCHAR 2374
ENCODING 9076
SWIDTH 624 0
DWIDTH 13 0
BBX 9 16 2 -4
BITMAP
1C00
7F00
FF00
E380
C380
C380
C380
C380
C380
E380
FF00
DE00
C000
C000
C000
C000
ENDCHAR
STARTCHAR 23FB
ENCODING 9211
SWIDTH 624 0
DWIDTH 13 0
BBX 13 15 0 0
BITMAP
0600
0600
0600
2600
7660
E670
C638
C638
C618
C638
C038
E030
70F0
3FE0
1F80
ENDCHAR
STARTCHAR 23FC
ENCODING 9212
SWIDTH 624 0
DWIDTH 13 0
BBX 13 13 0 0
BITMAP
0F80
3FC0
70E0
E030
C638
C618
C618
C618
C638
E230
7070
3FE0
1F80
ENDCHAR
STARTCHAR 23FD
ENCODING 9213
SWIDTH 624 0
DWIDTH 13 0
BBX 2 13 5 0
BITMAP
C0
C0
C0
C0
C0
C0
C0
C0
C0
C0
C0
C0
C0
ENDCHAR
STARTCHAR 23FE
ENCODING 9214
SWIDTH 624 0
DWIDTH 13 0
BBX 12 12 0 0
BITMAP
2000
2000
6000
E000
E000
F000
F000
F800
7E00
7FF0
3FE0
0FC0
ENDCHAR
STARTCHAR 2500
ENCODING 9472
SWIDTH 624 0
DWIDTH 13 0
BBX 13 3 0 6
BITMAP
FFF8
FFF8
FFF8
ENDCHAR
STARTCHAR 2501
ENCODING 9473
SWIDTH 624 0
DWIDTH 13 0
BBX 13 5 0 5
BITMAP
FFF8
FFF8
FFF8
FFF8
FFF8
ENDCHAR
STARTCHAR 2502
ENCODING 9474
SWIDTH 624 0
DWIDTH 13 0
BBX 2 30 5 -8
BITMAP
C0
C0
C0
C0
C0
C0
C0
C0
C0
C0
C0
C0
C0
C0
C0
C0
C0
C0
C0
C0
C0
C0
C0
C0
C0
C0
C0
C0
C0
C0
ENDCHAR
STARTCHAR 2503
ENCODING 9475
SWIDTH 624 0
DWIDTH 13 0
BBX 4 27 4 -6
BITMAP
F0
F0
F0
F0
F0
F0
F0
F0
F0
F0
F0
F0
F0
F0
F0
F0
F0
F0
F0
F0
F0
F0
F0
F0
F0
F0
F0
ENDCHAR
STARTCHAR 2504
ENCODING 9476
SWIDTH 624 0
DWIDTH 13 0
BBX 11 3 1 6
BITMAP
CEE0
CEE0
CEE0
ENDCHAR
STARTCHAR 2505
ENCODING 9477
SWIDTH 624 0
DWIDTH 13 0
BBX 11 5 1 5
BITMAP
CEE0
CEE0
CEE0
CEE0
CEE0
ENDCHAR
STARTCHAR 2506
ENCODING 9478
SWIDTH 624 0
DWIDTH 13 0
BBX 2 24 5 -5
BITMAP
C0
C0
C0
C0
C0
C0
C0
00
C0
C0
C0
C0
C0
C0
C0
00
00
C0
C0
C0
C0
C0
C0
C0
ENDCHAR
STARTCHAR 2507
ENCODING 9479
SWIDTH 624 0
DWIDTH 13 0
BBX 4 24 4 -5
BITMAP
F0
F0
F0
F0
F0
F0
00
00
F0
F0
F0
F0
F0
F0
F0
00
00
F0
F0
F0
F0
F0
F0
F0
ENDCHAR
STARTCHAR 2508
ENCODING 9480
SWIDTH 624 0
DWIDTH 13 0
BBX 11 3 1 6
BITMAP
DB60
DB60
DB60
ENDCHAR
STARTCHAR 2509
ENCODING 9481
SWIDTH 624 0
DWIDTH 13 0
BBX 11 5 1 5
BITMAP
DB60
DB60
DB60
DB60
DB60
ENDCHAR
STARTCHAR 250A
ENCODING 9482
SWIDTH 624 0
DWIDTH 13 0
BBX 2 23 5 -4
BITMAP
C0
C0
C0
C0
00
00
C0
C0
C0
C0
C0
00
C0
C0
C0
C0
C0
00
00
C0
C0
C0
C0
ENDCHAR
STARTCHAR 250B
ENCODING 9483
SWIDTH 624 0
DWIDTH 13 0
BBX 4 23 4 -4
BITMAP
F0
F0
F0
F0
00
00
F0
F0
F0
F0
F0
00
F0
F0
F0
F0
F0
00
00
F0
F0
F0
F0
ENDCHAR
STARTCHAR 250C
ENCODING 9484
SWIDTH 624 0
DWIDTH 13 0
BBX 8 15 5 -6
BITMAP
FF
FF
FF
C0
C0
C0
C0
C0
C0
C0
C0
C0
C0
C0
C0
ENDCHAR
STARTCHAR 250D
ENCODING 9485
SWIDTH 624 0
DWIDTH 13 0
BBX 8 16 5 -6
BITMAP
FF
FF
FF
FF
FF
C0
C0
C0
C0
C0
C0
C0
C0
C0
C0
C0
ENDCHAR
STARTCHAR 250E
ENCODING 9486
SWIDTH 624 0
DWIDTH 13 0
BBX 9 15 4 -6
BITMAP
FF80
FF80
FF80
F000
F000
F000
F000
F000
F000
F000
F000
F000
F000
F000
F000
ENDCHAR
STARTCHAR 250F
ENCODING 9487
SWIDTH 624 0
DWIDTH 13 0
BBX 9 16 4 -6
BITMAP
FF80
FF80
FF80
FF80
FF80
F000
F000
F000
F000
F000
F000
F000
F000
F000
F000
F000
ENDCHAR
STARTCHAR 2510
ENCODING 9488
SWIDTH 624 0
DWIDTH 13 0
BBX 7 15 0 -6
BITMAP
FE
FE
FE
06
06
06
06
06
06
06
06
06
06
06
06
ENDCHAR
STARTCHAR 2511
ENCODING 9489
SWIDTH 624 0
DWIDTH 13 0
BBX 7 16 0 -6
BITMAP
FE
FE
FE
FE
FE
06
06
06
06
06
06
06
06
06
06
06
ENDCHAR
STARTCHAR 2512
ENCODING 9490
SWIDTH 624 0
DWIDTH 13 0
BBX 8 15 0 -6
BITMAP
FF
FF
FF
0F
0F
0F
0F
0F
0F
0F
0F
0F
0F
0F
0F
ENDCHAR
STARTCHAR 2513
ENCODING 9491
SWIDTH 624 0
DWIDTH 13 0
BBX 8 16 0 -6
BITMAP
FF
FF
FF
FF
FF
0F
0F
0F
0F
0F
0F
0F
0F
0F
0F
0F
ENDCHAR
STARTCHAR 2514
ENCODING 9492
SWIDTH 624 0
DWIDTH 13 0
BBX 8 15 5 6
BITMAP
C0
C0
C0
C0
C0
C0
C0
C0
C0
C0
C0
C0
FF
FF
FF
ENDCHAR
STARTCHAR 2515
ENCODING 9493
SWIDTH 624 0
DWIDTH 13 0
BBX 8 16 5 5
BITMAP
C0
C0
C0
C0
C0
C0
C0
C0
C0
C0
C0
FF
FF
FF
FF
FF
ENDCHAR
STARTCHAR 2516
ENCODING 9494
SWIDTH 624 0
DWIDTH 13 0
BBX 9 15 4 6
BITMAP
F000
F000
F000
F000
F000
F000
F000
F000
F000
F000
F000
F000
FF80
FF80
FF80
ENDCHAR
STARTCHAR 2517
ENCODING 9495
SWIDTH 624 0
DWIDTH 13 0
BBX 9 16 4 5
BITMAP
F000
F000
F000
F000
F000
F000
F000
F000
F000
F000
F000
FF80
FF80
FF80
FF80
FF80
ENDCHAR
STARTCHAR 2518
ENCODING 9496
SWIDTH 624 0
DWIDTH 13 0
BBX 7 15 0 6
BITMAP
06
06
06
06
06
06
06
06
06
06
06
06
FE
FE
FE
ENDCHAR
STARTCHAR 2519
ENCODING 9497
SWIDTH 624 0
DWIDTH 13 0
BBX 7 16 0 5
BITMAP
06
06
06
06
06
06
06
06
06
06
06
FE
FE
FE
FE
FE
ENDCHAR
STARTCHAR 251A
ENCODING 9498
SWIDTH 624 0
DWIDTH 13 0
BBX 8 15 0 6
BITMAP
0F
0F
0F
0F
0F
0F
0F
0F
0F
0F
0F
0F
FF
FF
FF
ENDCHAR
STARTCHAR 251B
ENCODING 9499
SWIDTH 624 0
DWIDTH 13 0
BBX 8 16 0 5
BITMAP
0F
0F
0F
0F
0F
0F
0F
0F
0F
0F
0F
FF
FF
FF
FF
FF
ENDCHAR
STARTCHAR 251C
ENCODING 9500
SWIDTH 624 0
DWIDTH 13 0
BBX 8 27 5 -6
BITMAP
C0
C0
C0
C0
C0
C0
C0
C0
C0
C0
C0
C0
FF
FF
FF
C0
C0
C0
C0
C0
C0
C0
C0
C0
C0
C0
C0
ENDCHAR
STARTCHAR 251D
ENCODING 9501
SWIDTH 624 0
DWIDTH 13 0
BBX 8 27 5 -6
BITMAP
C0
C0
C0
C0
C0
C0
C0
C0
C0
C0
C0
FF
FF
FF
FF
FF
C0
C0
C0
C0
C0
C0
C0
C0
C0
C0
C0
ENDCHAR
STARTCHAR 251E
ENCODING 9502
SWIDTH 624 0
DWIDTH 13 0
BBX 9 27 4 -6
BITMAP
F000
F000
F000
F000
F000
F000
F000
F000
F000
F000
F000
F000
FF80
FF80
FF80
6000
6000
6000
6000
6000
6000
6000
6000
6000
6000
6000
6000
ENDCHAR
STARTCHAR 251F
ENCODING 9503
SWIDTH 624 0
DWIDTH 13 0
BBX 9 27 4 -6
BITMAP
6000
6000
6000
6000
6000
6000
6000
6000
6000
6000
6000
6000
FF80
FF80
FF80
F000
F000
F000
F000
F000
F000
F000
F000
F000
F000
F000
F000
ENDCHAR
STARTCHAR 2520
ENCODING 9504
SWIDTH 624 0
DWIDTH 13 0
BBX 9 27 4 -6
BITMAP
F000
F000
F000
F000
F000
F000
F000
F000
F000
F000
F000
F000
FF80
FF80
FF80
F000
F000
F000
F000
F000
F000
F000
F000
F000
F000
F000
F000
ENDCHAR
STARTCHAR 2521
ENCODING 9505
SWIDTH 624 0
DWIDTH 13 0
BBX 9 27 4 -6
BITMAP
F000
F000
F000
F000
F000
F000
F000
F000
F000
F000
F000
FF80
FF80
FF80
FF80
FF80
6000
6000
6000
6000
6000
6000
6000
6000
6000
6000
6000
ENDCHAR
STARTCHAR 2522
ENCODING 9506
SWIDTH 624 0
DWIDTH 13 0
BBX 9 27 4 -6
BITMAP
6000
6000
6000
6000
6000
6000
6000
6000
6000
6000
6000
FF80
FF80
FF80
FF80
FF80
F000
F000
F000
F000
F000
F000
F000
F000
F000
F000
F000
ENDCHAR
STARTCHAR 2523
ENCODING 9507
SWIDTH 624 0
DWIDTH 13 0
BBX 9 27 4 -6
BITMAP
F000
F000
F000
F000
F000
F000
F000
F000
F000
F000
F000
FF80
FF80
FF80
FF80
FF80
F000
F000
F000
F000
F000
F000
F000
F000
F000
F000
F000
ENDCHAR
STARTCHAR 2524
ENCODING 9508
SWIDTH 624 0
DWIDTH 13 0
BBX 7 27 0 -6
BITMAP
06
06
06
06
06
06
06
06
06
06
06
06
FE
FE
FE
06
06
06
06
06
06
06
06
06
06
06
06
ENDCHAR
STARTCHAR 2525
ENCODING 9509
SWIDTH 624 0
DWIDTH 13 0
BBX 7 27 0 -6
BITMAP
06
06
06
06
06
06
06
06
06
06
06
FE
FE
FE
FE
FE
06
06
06
06
06
06
06
06
06
06
06
ENDCHAR
STARTCHAR 2526
ENCODING 9510
SWIDTH 624 0
DWIDTH 13 0
BBX 8 27 0 -6
BITMAP
0F
0F
0F
0F
0F
0F
0F
0F
0F
0F
0F
0F
FF
FF
FF
06
06
06
06
06
06
06
06
06
06
06
06
ENDCHAR
STARTCHAR 2527
ENCODING 9511
SWIDTH 624 0
DWIDTH 13 0
BBX 8 27 0 -6
BITMAP
06
06
06
06
06
06
06
06
06
06
06
06
FF
FF
FF
0F
0F
0F
0F
0F
0F
0F
0F
0F
0F
0F
0F
ENDCHAR
STARTCHAR 2528
ENCODING 9512
SWIDTH 624 0
DWIDTH 13 0
BBX 8 27 0 -6
BITMAP
0F
0F
0F
0F
0F
0F
0F
0F
0F
0F
0F
0F
FF
FF
FF
0F
0F
0F
0F
0F
0F
0F
0F
0F
0F
0F
0F
ENDCHAR
STARTCHAR 2529
ENCODING 9513
SWIDTH 624 0
DWIDTH 13 0
BBX 8 27 0 -6
BITMAP
0F
0F
0F
0F
0F
0F
0F
0F
0F
0F
0F
FF
FF
FF
FF
FF
06
06
06
06
06
06
06
06
06
06
06
ENDCHAR
STARTCHAR 252A
ENCODING 9514
SWIDTH 624 0
DWIDTH 13 0
BBX 8 27 0 -6
BITMAP
06
06
06
06
06
06
06
06
06
06
06
FF
FF
FF
FF
FF
0F
0F
0F
0F
0F
0F
0F
0F
0F
0F
0F
ENDCHAR
STARTCHAR 252B
ENCODING 9515
SWIDTH 624 0
DWIDTH 13 0
BBX 8 27 0 -6
BITMAP
0F
0F
0F
0F
0F
0F
0F
0F
0F
0F
0F
FF
FF
FF
FF
FF
0F
0F
0F
0F
0F
0F
0F
0F
0F
0F
0F
ENDCHAR
STARTCHAR 252C
ENCODING 9516
SWIDTH 624 0
DWIDTH 13 0
BBX 13 15 0 -6
BITMAP
FFF8
FFF8
FFF8
0600
0600
0600
0600
0600
0600
0600
0600
0600
0600
0600
0600
ENDCHAR
STARTCHAR 252D
ENCODING 9517
SWIDTH 624 0
DWIDTH 13 0
BBX 13 16 0 -6
BITMAP
FE00
FFF8
FFF8
FFF8
FE00
0600
0600
0600
0600
0600
0600
0600
0600
0600
0600
0600
ENDCHAR
STARTCHAR 252E
ENCODING 9518
SWIDTH 624 0
DWIDTH 13 0
BBX 13 16 0 -6
BITMAP
07F8
FFF8
FFF8
FFF8
07F8
0600
0600
0600
0600
0600
0600
0600
0600
0600
0600
0600
ENDCHAR
STARTCHAR 252F
ENCODING 9519
SWIDTH 624 0
DWIDTH 13 0
BBX 13 16 0 -6
BITMAP
FFF8
FFF8
FFF8
FFF8
FFF8
0600
0600
0600
0600
0600
0600
0600
0600
0600
0600
0600
ENDCHAR
STARTCHAR 2530
ENCODING 9520
SWIDTH 624 0
DWIDTH 13 0
BBX 13 15 0 -6
BITMAP
FFF8
FFF8
FFF8
0F00
0F00
0F00
0F00
0F00
0F00
0F00
0F00
0F00
0F00
0F00
0F00
ENDCHAR
STARTCHAR 2531
ENCODING 9521
SWIDTH 624 0
DWIDTH 13 0
BBX 13 16 0 -6
BITMAP
FF00
FFF8
FFF8
FFF8
FF00
0F00
0F00
0F00
0F00
0F00
0F00
0F00
0F00
0F00
0F00
0F00
ENDCHAR
STARTCHAR 2532
ENCODING 9522
SWIDTH 624 0
DWIDTH 13 0
BBX 13 16 0 -6
BITMAP
0FF8
FFF8
FFF8
FFF8
0FF8
0F00
0F00
0F00
0F00
0F00
0F00
0F00
0F00
0F00
0F00
0F00
ENDCHAR
STARTCHAR 2533
ENCODING 9523
SWIDTH 624 0
DWIDTH 13 0
BBX 13 16 0 -6
BITMAP
FFF8
FFF8
FFF8
FFF8
FFF8
0F00
0F00
0F00
0F00
0F00
0F00
0F00
0F00
0F00
0F00
0F00
ENDCHAR
STARTCHAR 2534
ENCODING 9524
SWIDTH 624 0
DWIDTH 13 0
BBX 13 15 0 6
BITMAP
0600
0600
0600
0600
0600
0600
0600
0600
0600
0600
0600
0600
FFF8
FFF8
FFF8
ENDCHAR
STARTCHAR 2535
ENCODING 9525
SWIDTH 624 0
DWIDTH 13 0
BBX 13 16 0 5
BITMAP
0600
0600
0600
0600
0600
0600
0600
0600
0600
0600
0600
FE00
FFF8
FFF8
FFF8
FE00
ENDCHAR
STARTCHAR 2536
ENCODING 9526
SWIDTH 624 0
DWIDTH 13 0
BBX 13 16 0 5
BITMAP
0600
0600
0600
0600
0600
0600
0600
0600
0600
0600
0600
07F8
FFF8
FFF8
FFF8
07F8
ENDCHAR
STARTCHAR 2537
ENCODING 9527
SWIDTH 624 0
DWIDTH 13 0
BBX 13 16 0 5
BITMAP
0600
0600
0600
0600
0600
0600
0600
0600
0600
0600
0600
FFF8
FFF8
FFF8
FFF8
FFF8
ENDCHAR
STARTCHAR 2538
ENCODING 9528
SWIDTH 624 0
DWIDTH 13 0
BBX 13 15 0 6
BITMAP
0F00
0F00
0F00
0F00
0F00
0F00
0F00
0F00
0F00
0F00
0F00
0F00
FFF8
FFF8
FFF8
ENDCHAR
STARTCHAR 2539
ENCODING 9529
SWIDTH 624 0
DWIDTH 13 0
BBX 13 16 0 5
BITMAP
0F00
0F00
0F00
0F00
0F00
0F00
0F00
0F00
0F00
0F00
0F00
FF00
FFF8
FFF8
FFF8
FF00
ENDCHAR
STARTCHAR 253A
ENCODING 9530
SWIDTH 624 0
DWIDTH 13 0
BBX 13 16 0 5
BITMAP
0F00
0F00
0F00
0F00
0F00
0F00
0F00
0F00
0F00
0F00
0F00
0FF8
FFF8
FFF8
FFF8
0FF8
ENDCHAR
STARTCHAR 253B
ENCODING 9531
SWIDTH 624 0
DWIDTH 13 0
BBX 13 16 0 5
BITMAP
0F00
0F00
0F00
0F00
0F00
0F00
0F00
0F00
0F00
0F00
0F00
FFF8
FFF8
FFF8
FFF8
FFF8
ENDCHAR
STARTCHAR 253C
ENCODING 9532
SWIDTH 624 0
DWIDTH 13 0
BBX 13 27 0 -6
BITMAP
0600
0600
0600
0600
0600
0600
0600
0600
0600
0600
0600
0600
FFF8
FFF8
FFF8
0600
0600
0600
0600
0600
0600
0600
0600
0600
0600
0600
0600
ENDCHAR
STARTCHAR 253D
ENCODING 9533
SWIDTH 624 0
DWIDTH 13 0
BBX 13 27 0 -6
BITMAP
0600
0600
0600
0600
0600
0600
0600
0600
0600
0600
0600
FE00
FFF8
FFF8
FFF8
FE00
0600
0600
0600
0600
0600
0600
0600
0600
0600
0600
0600
ENDCHAR
STARTCHAR 253E
ENCODING 9534
SWIDTH 624 0
DWIDTH 13 0
BBX 13 27 0 -6
BITMAP
0600
0600
0600
0600
0600
0600
0600
0600
0600
0600
0600
07F8
FFF8
FFF8
FFF8
07F8
0600
0600
0600
0600
0600
0600
0600
0600
0600
0600
0600
ENDCHAR
STARTCHAR 253F
ENCODING 9535
SWIDTH 624 0
DWIDTH 13 0
BBX 13 27 0 -6
BITMAP
0600
0600
0600
0600
0600
0600
0600
0600
0600
0600
0600
FFF8
FFF8
FFF8
FFF8
FFF8
0600
0600
0600
0600
0600
0600
0600
0600
0600
0600
0600
ENDCHAR
STARTCHAR 2540
ENCODING 9536
SWIDTH 624 0
DWIDTH 13 0
BBX 13 27 0 -6
BITMAP
0F00
0F00
0F00
0F00
0F00
0F00
0F00
0F00
0F00
0F00
0F00
0F00
FFF8
FFF8
FFF8
0600
0600
0600
0600
0600
0600
0600
0600
0600
0600
0600
0600
ENDCHAR
STARTCHAR 2541
ENCODING 9537
SWIDTH 624 0
DWIDTH 13 0
BBX 13 27 0 -6
BITMAP
0600
0600
0600
0600
0600
0600
0600
0600
0600
0600
0600
0600
FFF8
FFF8
FFF8
0F00
0F00
0F00
0F00
0F00
0F00
0F00
0F00
0F00
0F00
0F00
0F00
ENDCHAR
STARTCHAR 2542
ENCODING 9538
SWIDTH 624 0
DWIDTH 13 0
BBX 13 27 0 -6
BITMAP
0F00
0F00
0F00
0F00
0F00
0F00
0F00
0F00
0F00
0F00
0F00
0F00
FFF8
FFF8
FFF8
0F00
0F00
0F00
0F00
0F00
0F00
0F00
0F00
0F00
0F00
0F00
0F00
ENDCHAR
STARTCHAR 2543
ENCODING 9539
SWIDTH 624 0
DWIDTH 13 0
BBX 13 27 0 -6
BITMAP
0F00
0F00
0F00
0F00
0F00
0F00
0F00
0F00
0F00
0F00
0F00
FF00
FFF8
FFF8
FFF8
FF00
0600
0600
0600
0600
0600
0600
0600
0600
0600
0600
0600
ENDCHAR
STARTCHAR 2544
ENCODING 9540
SWIDTH 624 0
DWIDTH 13 0
BBX 13 27 0 -6
BITMAP
0F00
0F00
0F00
0F00
0F00
0F00
0F00
0F00
0F00
0F00
0F00
0FF8
FFF8
FFF8
FFF8
0FF8
0600
0600
0600
0600
0600
0600
0600
0600
0600
0600
0600
ENDCHAR
STARTCHAR 2545
ENCODING 9541
SWIDTH 624 0
DWIDTH 13 0
BBX 13 27 0 -6
BITMAP
0600
0600
0600
0600
0600
0600
0600
0600
0600
0600
0600
FF00
FFF8
FFF8
FFF8
FF00
0F00
0F00
0F00
0F00
0F00
0F00
0F00
0F00
0F00
0F00
0F00
ENDCHAR
STARTCHAR 2546
ENCODING 9542
SWIDTH 624 0
DWIDTH 13 0
BBX 13 27 0 -6
BITMAP
0600
0600
0600
0600
0600
0600
0600
0600
0600
0600
0600
0FF8
FFF8
FFF8
FFF8
0FF8
0F00
0F00
0F00
0F00
0F00
0F00
0F00
0F00
0F00
0F00
0F00
ENDCHAR
STARTCHAR 2547
ENCODING 9543
SWIDTH 624 0
DWIDTH 13 0
BBX 13 27 0 -6
BITMAP
0F00
0F00
0F00
0F00
0F00
0F00
0F00
0F00
0F00
0F00
0F00
FFF8
FFF8
FFF8
FFF8
FFF8
0600
0600
0600
0600
0600
0600
0600
0600
0600
0600
0600
ENDCHAR
STARTCHAR 2548
ENCODING 9544
SWIDTH 624 0
DWIDTH 13 0
BBX 13 27 0 -6
BITMAP
0600
0600
0600
0600
0600
0600
0600
0600
0600
0600
0600
FFF8
FFF8
FFF8
FFF8
FFF8
0F00
0F00
0F00
0F00
0F00
0F00
0F00
0F00
0F00
0F00
0F00
ENDCHAR
STARTCHAR 2549
ENCODING 9545
SWIDTH 624 0
DWIDTH 13 0
BBX 13 27 0 -6
BITMAP
0F00
0F00
0F00
0F00
0F00
0F00
0F00
0F00
0F00
0F00
0F00
FF00
FFF8
FFF8
FFF8
FF00
0F00
0F00
0F00
0F00
0F00
0F00
0F00
0F00
0F00
0F00
0F00
ENDCHAR
STARTCHAR 254A
ENCODING 9546
SWIDTH 624 0
DWIDTH 13 0
BBX 13 27 0 -6
BITMAP
0F00
0F00
0F00
0F00
0F00
0F00
0F00
0F00
0F00
0F00
0F00
0FF8
FFF8
FFF8
FFF8
0FF8
0F00
0F00
0F00
0F00
0F00
0F00
0F00
0F00
0F00
0F00
0F00
ENDCHAR
STARTCHAR 254B
ENCODING 9547
SWIDTH 624 0
DWIDTH 13 0
BBX 13 27 0 -6
BITMAP
0F00
0F00
0F00
0F00
0F00
0F00
0F00
0F00
0F00
0F00
0F00
FFF8
FFF8
FFF8
FFF8
FFF8
0F00
0F00
0F00
0F00
0F00
0F00
0F00
0F00
0F00
0F00
0F00
ENDCHAR
STARTCHAR 254C
ENCODING 9548
SWIDTH 624 0
DWIDTH 13 0
BBX 10 3 1 6
BITMAP
F1C0
F1C0
F1C0
ENDCHAR
STARTCHAR 254D
ENCODING 9549
SWIDTH 624 0
DWIDTH 13 0
BBX 9 5 2 5
BITMAP
E380
E380
E380
E380
E380
ENDCHAR
STARTCHAR 254E
ENCODING 9550
SWIDTH 624 0
DWIDTH 13 0
BBX 2 22 5 -4
BITMAP
C0
C0
C0
C0
C0
C0
C0
C0
C0
00
00
00
C0
C0
C0
C0
C0
C0
C0
C0
C0
C0
ENDCHAR
STARTCHAR 254F
ENCODING 9551
SWIDTH 624 0
DWIDTH 13 0
BBX 4 21 4 -3
BITMAP
F0
F0
F0
F0
F0
F0
F0
F0
F0
00
00
00
00
F0
F0
F0
F0
F0
F0
F0
F0
ENDCHAR
STARTCHAR 2550
ENCODING 9552
SWIDTH 624 0
DWIDTH 13 0
BBX 13 7 0 4
BITMAP
FFF8
FFF8
0000
0000
0000
FFF8
FFF8
ENDCHAR
STARTCHAR 2551
ENCODING 9553
SWIDTH 624 0
DWIDTH 13 0
BBX 6 27 3 -6
BITMAP
CC
CC
CC
CC
CC
CC
CC
CC
CC
CC
CC
CC
CC
CC
CC
CC
CC
CC
CC
CC
CC
CC
CC
CC
CC
CC
CC
ENDCHAR
STARTCHAR 2552
ENCODING 9554
SWIDTH 624 0
DWIDTH 13 0
BBX 8 17 5 -6
BITMAP
FF
FF
C0
C0
C0
FF
FF
C0
C0
C0
C0
C0
C0
C0
C0
C0
C0
ENDCHAR
STARTCHAR 2553
ENCODING 9555
SWIDTH 624 0
DWIDTH 13 0
BBX 10 15 3 -6
BITMAP
FFC0
FFC0
FFC0
CC00
CC00
CC00
CC00
CC00
CC00
CC00
CC00
CC00
CC00
CC00
CC00
ENDCHAR
STARTCHAR 2554
ENCODING 9556
SWIDTH 624 0
DWIDTH 13 0
BBX 10 17 3 -6
BITMAP
FFC0
FFC0
C000
C000
C000
CFC0
CFC0
CC00
CC00
CC00
CC00
CC00
CC00
CC00
CC00
CC00
CC00
ENDCHAR
STARTCHAR 2555
ENCODING 9557
SWIDTH 624 0
DWIDTH 13 0
BBX 7 17 0 -6
BITMAP
FE
FE
06
06
06
FE
FE
06
06
06
06
06
06
06
06
06
06
ENDCHAR
STARTCHAR 2556
ENCODING 9558
SWIDTH 624 0
DWIDTH 13 0
BBX 9 15 0 -6
BITMAP
FF80
FF80
FF80
1980
1980
1980
1980
1980
1980
1980
1980
1980
1980
1980
1980
ENDCHAR
STARTCHAR 2557
ENCODING 9559
SWIDTH 624 0
DWIDTH 13 0
BBX 9 17 0 -6
BITMAP
FF80
FF80
0180
0180
0180
F980
F980
1980
1980
1980
1980
1980
1980
1980
1980
1980
1980
ENDCHAR
STARTCHAR 2558
ENCODING 9560
SWIDTH 624 0
DWIDTH 13 0
BBX 8 17 5 4
BITMAP
C0
C0
C0
C0
C0
C0
C0
C0
C0
C0
FF
FF
C0
C0
C0
FF
FF
ENDCHAR
STARTCHAR 2559
ENCODING 9561
SWIDTH 624 0
DWIDTH 13 0
BBX 10 15 3 6
BITMAP
CC00
CC00
CC00
CC00
CC00
CC00
CC00
CC00
CC00
CC00
CC00
CC00
FFC0
FFC0
FFC0
ENDCHAR
STARTCHAR 255A
ENCODING 9562
SWIDTH 624 0
DWIDTH 13 0
BBX 10 17 3 4
BITMAP
CC00
CC00
CC00
CC00
CC00
CC00
CC00
CC00
CC00
CC00
CFC0
CFC0
C000
C000
C000
FFC0
FFC0
ENDCHAR
STARTCHAR 255B
ENCODING 9563
SWIDTH 624 0
DWIDTH 13 0
BBX 7 17 0 4
BITMAP
06
06
06
06
06
06
06
06
06
06
FE
FE
06
06
06
FE
FE
ENDCHAR
STARTCHAR 255C
ENCODING 9564
SWIDTH 624 0
DWIDTH 13 0
BBX 9 15 0 6
BITMAP
1980
1980
1980
1980
1980
1980
1980
1980
1980
1980
1980
1980
FF80
FF80
FF80
ENDCHAR
STARTCHAR 255D
ENCODING 9565
SWIDTH 624 0
DWIDTH 13 0
BBX 9 17 0 4
BITMAP
1980
1980
1980
1980
1980
1980
1980
1980
1980
1980
F980
F980
0180
0180
0180
FF80
FF80
ENDCHAR
STARTCHAR 255E
ENCODING 9566
SWIDTH 624 0
DWIDTH 13 0
BBX 8 27 5 -6
BITMAP
C0
C0
C0
C0
C0
C0
C0
C0
C0
C0
FF
FF
C0
C0
C0
FF
FF
C0
C0
C0
C0
C0
C0
C0
C0
C0
C0
ENDCHAR
STARTCHAR 255F
ENCODING 9567
SWIDTH 624 0
DWIDTH 13 0
BBX 10 27 3 -6
BITMAP
CC00
CC00
CC00
CC00
CC00
CC00
CC00
CC00
CC00
CC00
CC00
CC00
CFC0
CFC0
CFC0
CC00
CC00
CC00
CC00
CC00
CC00
CC00
CC00
CC00
CC00
CC00
CC00
ENDCHAR
STARTCHAR 2560
ENCODING 9568
SWIDTH 624 0
DWIDTH 13 0
BBX 10 27 3 -6
BITMAP
CC00
CC00
CC00
CC00
CC00
CC00
CC00
CC00
CC00
CC00
CFC0
CFC0
C000
C000
C000
CFC0
CFC0
CC00
CC00
CC00
CC00
CC00
CC00
CC00
CC00
CC00
CC00
ENDCHAR
STARTCHAR 2561
ENCODING 9569
SWIDTH 624 0
DWIDTH 13 0
BBX 7 27 0 -6
BITMAP
06
06
06
06
06
06
06
06
06
06
FE
FE
06
06
06
FE
FE
06
06
06
06
06
06
06
06
06
06
ENDCHAR
STARTCHAR 2562
ENCODING 9570
SWIDTH 624 0
DWIDTH 13 0
BBX 9 27 0 -6
BITMAP
1980
1980
1980
1980
1980
1980
1980
1980
1980
1980
1980
1980
F980
F980
F980
1980
1980
1980
1980
1980
1980
1980
1980
1980
1980
1980
1980
ENDCHAR
STARTCHAR 2563
ENCODING 9571
SWIDTH 624 0
DWIDTH 13 0
BBX 9 27 0 -6
BITMAP
1980
1980
1980
1980
1980
1980
1980
1980
1980
1980
F980
F980
0180
0180
0180
F980
F980
1980
1980
1980
1980
1980
1980
1980
1980
1980
1980
ENDCHAR
STARTCHAR 2564
ENCODING 9572
SWIDTH 624 0
DWIDTH 13 0
BBX 13 17 0 -6
BITMAP
FFF8
FFF8
0000
0000
0000
FFF8
FFF8
0600
0600
0600
0600
0600
0600
0600
0600
0600
0600
ENDCHAR
STARTCHAR 2565
ENCODING 9573
SWIDTH 624 0
DWIDTH 13 0
BBX 13 15 0 -6
BITMAP
FFF8
FFF8
FFF8
1980
1980
1980
1980
1980
1980
1980
1980
1980
1980
1980
1980
ENDCHAR
STARTCHAR 2566
ENCODING 9574
SWIDTH 624 0
DWIDTH 13 0
BBX 13 17 0 -6
BITMAP
FFF8
FFF8
0000
0000
0000
F9F8
F9F8
1980
1980
1980
1980
1980
1980
1980
1980
1980
1980
ENDCHAR
STARTCHAR 2567
ENCODING 9575
SWIDTH 624 0
DWIDTH 13 0
BBX 13 17 0 4
BITMAP
0600
0600
0600
0600
0600
0600
0600
0600
0600
0600
FFF8
FFF8
0000
0000
0000
FFF8
FFF8
ENDCHAR
STARTCHAR 2568
ENCODING 9576
SWIDTH 624 0
DWIDTH 13 0
BBX 13 15 0 6
BITMAP
1980
1980
1980
1980
1980
1980
1980
1980
1980
1980
1980
1980
FFF8
FFF8
FFF8
ENDCHAR
STARTCHAR 2569
ENCODING 9577
SWIDTH 624 0
DWIDTH 13 0
BBX 13 17 0 4
BITMAP
1980
1980
1980
1980
1980
1980
1980
1980
1980
1980
F9F8
F9F8
0000
0000
0000
FFF8
FFF8
ENDCHAR
STARTCHAR 256A
ENCODING 9578
SWIDTH 624 0
DWIDTH 13 0
BBX 13 27 0 -6
BITMAP
0600
0600
0600
0600
0600
0600
0600
0600
0600
0600
FFF8
FFF8
0600
0600
0600
FFF8
FFF8
0600
0600
0600
0600
0600
0600
0600
0600
0600
0600
ENDCHAR
STARTCHAR 256B
ENCODING 9579
SWIDTH 624 0
DWIDTH 13 0
BBX 13 27 0 -6
BITMAP
1980
1980
1980
1980
1980
1980
1980
1980
1980
1980
1980
1980
FFF8
FFF8
FFF8
1980
1980
1980
1980
1980
1980
1980
1980
1980
1980
1980
1980
ENDCHAR
STARTCHAR 256C
ENCODING 9580
SWIDTH 624 0
DWIDTH 13 0
BBX 13 27 0 -6
BITMAP
1980
1980
1980
1980
1980
1980
1980
1980
1980
1980
F9F8
F9F8
0000
0000
0000
F9F8
F9F8
1980
1980
1980
1980
1980
1980
1980
1980
1980
1980
ENDCHAR
STARTCHAR 256D
ENCODING 9581
SWIDTH 624 0
DWIDTH 13 0
BBX 8 15 5 -6
BITMAP
01
1F
3F
70
60
E0
C0
C0
C0
C0
C0
C0
C0
C0
C0
ENDCHAR
STARTCHAR 256E
ENCODING 9582
SWIDTH 624 0
DWIDTH 13 0
BBX 7 15 0 -6
BITMAP
80
F0
F8
1C
0E
06
06
06
06
06
06
06
06
06
06
ENDCHAR
STARTCHAR 256F
ENCODING 9583
SWIDTH 624 0
DWIDTH 13 0
BBX 7 15 0 6
BITMAP
06
06
06
06
06
06
06
06
06
06
0E
1C
F8
F0
80
ENDCHAR
STARTCHAR 2570
ENCODING 9584
SWIDTH 624 0
DWIDTH 13 0
BBX 8 15 5 6
BITMAP
C0
C0
C0
C0
C0
C0
C0
C0
C0
E0
60
70
3F
1F
03
ENDCHAR
STARTCHAR 2571
ENCODING 9585
SWIDTH 624 0
DWIDTH 13 0
BBX 13 22 0 -4
BITMAP
0018
0030
0030
0060
0060
00C0
00C0
0180
0380
0300
0600
0600
0C00
0C00
1800
3800
3000
7000
6000
C000
C000
8000
ENDCHAR
STARTCHAR 2572
ENCODING 9586
SWIDTH 624 0
DWIDTH 13 0
BBX 13 22 0 -4
BITMAP
C000
C000
6000
6000
3000
3000
1800
1800
0C00
0E00
0600
0300
0300
0180
0180
00C0
00E0
0060
0030
0030
0018
0018
ENDCHAR
STARTCHAR 2573
ENCODING 9587
SWIDTH 624 0
DWIDTH 13 0
BBX 13 22 0 -4
BITMAP
C018
C030
6030
6060
3060
30C0
19C0
1D80
0F80
0F00
0600
0700
0F00
0D80
1980
38C0
30E0
7060
6030
C030
C018
8018
ENDCHAR
STARTCHAR 2574
ENCODING 9588
SWIDTH 624 0
DWIDTH 13 0
BBX 7 3 0 6
BITMAP
FE
FE
FE
ENDCHAR
STARTCHAR 2575
ENCODING 9589
SWIDTH 624 0
DWIDTH 13 0
BBX 2 15 5 6
BITMAP
C0
C0
C0
C0
C0
C0
C0
C0
C0
C0
C0
C0
C0
C0
C0
ENDCHAR
STARTCHAR 2576
ENCODING 9590
SWIDTH 624 0
DWIDTH 13 0
BBX 8 3 5 6
BITMAP
FF
FF
FF
ENDCHAR
STARTCHAR 2577
ENCODING 9591
SWIDTH 624 0
DWIDTH 13 0
BBX 2 15 5 -6
BITMAP
C0
C0
C0
C0
C0
C0
C0
C0
C0
C0
C0
C0
C0
C0
C0
ENDCHAR
STARTCHAR 2578
ENCODING 9592
SWIDTH 624 0
DWIDTH 13 0
BBX 7 5 0 5
BITMAP
FE
FE
FE
FE
FE
ENDCHAR
STARTCHAR 2579
ENCODING 9593
SWIDTH 624 0
DWIDTH 13 0
BBX 4 15 4 6
BITMAP
F0
F0
F0
F0
F0
F0
F0
F0
F0
F0
F0
F0
F0
F0
F0
ENDCHAR
STARTCHAR 257A
ENCODING 9594
SWIDTH 624 0
DWIDTH 13 0
BBX 8 5 5 5
BITMAP
FF
FF
FF
FF
FF
ENDCHAR
STARTCHAR 257B
ENCODING 9595
SWIDTH 624 0
DWIDTH 13 0
BBX 4 15 4 -6
BITMAP
F0
F0
F0
F0
F0
F0
F0
F0
F0
F0
F0
F0
F0
F0
F0
ENDCHAR
STARTCHAR 257C
ENCODING 9596
SWIDTH 624 0
DWIDTH 13 0
BBX 13 5 0 5
BITMAP
07F8
FFF8
FFF8
FFF8
07F8
ENDCHAR
STARTCHAR 257D
ENCODING 9597
SWIDTH 624 0
DWIDTH 13 0
BBX 4 27 4 -6
BITMAP
60
60
60
60
60
60
60
60
60
60
60
60
F0
F0
F0
F0
F0
F0
F0
F0
F0
F0
F0
F0
F0
F0
F0
ENDCHAR
STARTCHAR 257E
ENCODING 9598
SWIDTH 624 0
DWIDTH 13 0
BBX 13 5 0 5
BITMAP
FE00
FFF8
FFF8
FFF8
FE00
ENDCHAR
STARTCHAR 257F
ENCODING 9599
SWIDTH 624 0
DWIDTH 13 0
BBX 4 27 4 -6
BITMAP
F0
F0
F0
F0
F0
F0
F0
F0
F0
F0
F0
F0
F0
F0
F0
60
60
60
60
60
60
60
60
60
60
60
60
ENDCHAR
STARTCHAR 2580
ENCODING 9600
SWIDTH 624 0
DWIDTH 13 0
BBX 13 14 0 7
BITMAP
FFF8
FFF8
FFF8
FFF8
FFF8
FFF8
FFF8
FFF8
FFF8
FFF8
FFF8
FFF8
FFF8
FFF8
ENDCHAR
STARTCHAR 2581
ENCODING 9601
SWIDTH 624 0
DWIDTH 13 0
BBX 13 4 0 -6
BITMAP
FFF8
FFF8
FFF8
FFF8
ENDCHAR
STARTCHAR 2582
ENCODING 9602
SWIDTH 624 0
DWIDTH 13 0
BBX 13 7 0 -6
BITMAP
FFF8
FFF8
FFF8
FFF8
FFF8
FFF8
FFF8
ENDCHAR
STARTCHAR 2583
ENCODING 9603
SWIDTH 624 0
DWIDTH 13 0
BBX 13 9 0 -6
BITMAP
FFF8
FFF8
FFF8
FFF8
FFF8
FFF8
FFF8
FFF8
FFF8
ENDCHAR
STARTCHAR 2584
ENCODING 9604
SWIDTH 624 0
DWIDTH 13 0
BBX 13 13 0 -6
BITMAP
FFF8
FFF8
FFF8
FFF8
FFF8
FFF8
FFF8
FFF8
FFF8
FFF8
FFF8
FFF8
FFF8
ENDCHAR
STARTCHAR 2585
ENCODING 9605
SWIDTH 624 0
DWIDTH 13 0
BBX 13 17 0 -6
BITMAP
FFF8
FFF8
FFF8
FFF8
FFF8
FFF8
FFF8
FFF8
FFF8
FFF8
FFF8
FFF8
FFF8
FFF8
FFF8
FFF8
FFF8
ENDCHAR
STARTCHAR 2586
ENCODING 9606
SWIDTH 624 0
DWIDTH 13 0
BBX 13 20 0 -6
BITMAP
FFF8
FFF8
FFF8
FFF8
FFF8
FFF8
FFF8
FFF8
FFF8
FFF8
FFF8
FFF8
FFF8
FFF8
FFF8
FFF8
FFF8
FFF8
FFF8
FFF8
ENDCHAR
STARTCHAR 2587
ENCODING 9607
SWIDTH 624 0
DWIDTH 13 0
BBX 13 23 0 -6
BITMAP
FFF8
FFF8
FFF8
FFF8
FFF8
FFF8
FFF8
FFF8
FFF8
FFF8
FFF8
FFF8
FFF8
FFF8
FFF8
FFF8
FFF8
FFF8
FFF8
FFF8
FFF8
FFF8
FFF8
ENDCHAR
STARTCHAR 2588
ENCODING 9608
SWIDTH 624 0
DWIDTH 13 0
BBX 13 27 0 -6
BITMAP
FFF8
FFF8
FFF8
FFF8
FFF8
FFF8
FFF8
FFF8
FFF8
FFF8
FFF8
FFF8
FFF8
FFF8
FFF8
FFF8
FFF8
FFF8
FFF8
FFF8
FFF8
FFF8
FFF8
FFF8
FFF8
FFF8
FFF8
ENDCHAR
STARTCHAR 2589
ENCODING 9609
SWIDTH 624 0
DWIDTH 13 0
BBX 11 27 0 -6
BITMAP
FFE0
FFE0
FFE0
FFE0
FFE0
FFE0
FFE0
FFE0
FFE0
FFE0
FFE0
FFE0
FFE0
FFE0
FFE0
FFE0
FFE0
FFE0
FFE0
FFE0
FFE0
FFE0
FFE0
FFE0
FFE0
FFE0
FFE0
ENDCHAR
STARTCHAR 258A
ENCODING 9610
SWIDTH 624 0
DWIDTH 13 0
BBX 9 27 0 -6
BITMAP
FF80
FF80
FF80
FF80
FF80
FF80
FF80
FF80
FF80
FF80
FF80
FF80
FF80
FF80
FF80
FF80
FF80
FF80
FF80
FF80
FF80
FF80
FF80
FF80
FF80
FF80
FF80
ENDCHAR
STARTCHAR 258B
ENCODING 9611
SWIDTH 624 0
DWIDTH 13 0
BBX 8 27 0 -6
BITMAP
FF
FF
FF
FF
FF
FF
FF
FF
FF
FF
FF
FF
FF
FF
FF
FF
FF
FF
FF
FF
FF
FF
FF
FF
FF
FF
FF
ENDCHAR
STARTCHAR 258C
ENCODING 9612
SWIDTH 624 0
DWIDTH 13 0
BBX 6 27 0 -6
BITMAP
FC
FC
FC
FC
FC
FC
FC
FC
FC
FC
FC
FC
FC
FC
FC
FC
FC
FC
FC
FC
FC
FC
FC
FC
FC
FC
FC
ENDCHAR
STARTCHAR 258D
ENCODING 9613
SWIDTH 624 0
DWIDTH 13 0
BBX 4 27 0 -6
BITMAP
F0
F0
F0
F0
F0
F0
F0
F0
F0
F0
F0
F0
F0
F0
F0
F0
F0
F0
F0
F0
F0
F0
F0
F0
F0
F0
F0
ENDCHAR
STARTCHAR 258E
ENCODING 9614
SWIDTH 624 0
DWIDTH 13 0
BBX 3 27 0 -6
BITMAP
E0
E0
E0
E0
E0
E0
E0
E0
E0
E0
E0
E0
E0
E0
E0
E0
E0
E0
E0
E0
E0
E0
E0
E0
E0
E0
E0
ENDCHAR
STARTCHAR 258F
ENCODING 9615
SWIDTH 624 0
DWIDTH 13 0
BBX 2 27 0 -6
BITMAP
C0
C0
C0
C0
C0
C0
C0
C0
C0
C0
C0
C0
C0
C0
C0
C0
C0
C0
C0
C0
C0
C0
C0
C0
C0
C0
C0
ENDCHAR
STARTCHAR 2590
ENCODING 9616
SWIDTH 624 0
DWIDTH 13 0
BBX 7 27 6 -6
BITMAP
FE
FE
FE
FE
FE
FE
FE
FE
FE
FE
FE
FE
FE
FE
FE
FE
FE
FE
FE
FE
FE
FE
FE
FE
FE
FE
FE
ENDCHAR
STARTCHAR 2591
ENCODING 9617
SWIDTH 624 0
DWIDTH 13 0
BBX 12 24 1 -4
BITMAP
94B0
0000
94B0
94B0
0000
94B0
0000
0000
94B0
0000
94B0
0000
0000
94B0
0000
94B0
94B0
0000
94B0
0000
94B0
94B0
0000
94B0
ENDCHAR
STARTCHAR 2592
ENCODING 9618
SWIDTH 624 0
DWIDTH 13 0
BBX 13 26 0 -6
BITMAP
4A58
B5A0
4A58
4A58
B5A0
4A58
B5A0
B5A0
4A58
B5A0
4A58
B5A0
B5A0
4A58
B5A0
4A58
4A58
B5A0
4A58
B5A0
4A58
4A58
B5A0
4A58
B5A0
B5A0
ENDCHAR
STARTCHAR 2593
ENCODING 9619
SWIDTH 624 0
DWIDTH 13 0
BBX 13 26 0 -6
BITMAP
FFF8
B5A0
FFF8
FFF8
B5A0
FFF8
B5A0
B5A0
FFF8
B5A0
FFF8
B5A0
B5A0
FFF8
B5A0
FFF8
FFF8
B5A0
FFF8
B5A0
FFF8
FFF8
B5A0
FFF8
B5A0
B5A0
ENDCHAR
STARTCHAR 2594
ENCODING 9620
SWIDTH 624 0
DWIDTH 13 0
BBX 13 4 0 17
BITMAP
FFF8
FFF8
FFF8
FFF8
ENDCHAR
STARTCHAR 2595
ENCODING 9621
SWIDTH 624 0
DWIDTH 13 0
BBX 2 27 11 -6
BITMAP
C0
C0
C0
C0
C0
C0
C0
C0
C0
C0
C0
C0
C0
C0
C0
C0
C0
C0
C0
C0
C0
C0
C0
C0
C0
C0
C0
ENDCHAR
STARTCHAR 2596
ENCODING 9622
SWIDTH 624 0
DWIDTH 13 0
BBX 6 13 0 -6
BITMAP
FC
FC
FC
FC
FC
FC
FC
FC
FC
FC
FC
FC
FC
ENDCHAR
STARTCHAR 2597
ENCODING 9623
SWIDTH 624 0
DWIDTH 13 0
BBX 7 13 6 -6
BITMAP
FE
FE
FE
FE
FE
FE
FE
FE
FE
FE
FE
FE
FE
ENDCHAR
STARTCHAR 2598
ENCODING 9624
SWIDTH 624 0
DWIDTH 13 0
BBX 6 14 0 7
BITMAP
FC
FC
FC
FC
FC
FC
FC
FC
FC
FC
FC
FC
FC
FC
ENDCHAR
STARTCHAR 2599
ENCODING 9625
SWIDTH 624 0
DWIDTH 13 0
BBX 13 27 0 -6
BITMAP
FC00
FC00
FC00
FC00
FC00
FC00
FC00
FC00
FC00
FC00
FC00
FC00
FC00
FC00
FFF8
FFF8
FFF8
FFF8
FFF8
FFF8
FFF8
FFF8
FFF8
FFF8
FFF8
FFF8
FFF8
ENDCHAR
STARTCHAR 259A
ENCODING 9626
SWIDTH 624 0
DWIDTH 13 0
BBX 13 27 0 -6
BITMAP
FC00
FC00
FC00
FC00
FC00
FC00
FC00
FC00
FC00
FC00
FC00
FC00
FC00
FC00
03F8
03F8
03F8
03F8
03F8
03F8
03F8
03F8
03F8
03F8
03F8
03F8
03F8
ENDCHAR
STARTCHAR 259B
ENCODING 9627
SWIDTH 624 0
DWIDTH 13 0
BBX 13 27 0 -6
BITMAP
FFF8
FFF8
FFF8
FFF8
FFF8
FFF8
FFF8
FFF8
FFF8
FFF8
FFF8
FFF8
FFF8
FFF8
FC00
FC00
FC00
FC00
FC00
FC00
FC00
FC00
FC00
FC00
FC00
FC00
FC00
ENDCHAR
STARTCHAR 259C
ENCODING 9628
SWIDTH 624 0
DWIDTH 13 0
BBX 13 27 0 -6
BITMAP
FFF8
FFF8
FFF8
FFF8
FFF8
FFF8
FFF8
FFF8
FFF8
FFF8
FFF8
FFF8
FFF8
FFF8
03F8
03F8
03F8
03F8
03F8
03F8
03F8
03F8
03F8
03F8
03F8
03F8
03F8
ENDCHAR
STARTCHAR 259D
ENCODING 9629
SWIDTH 624 0
DWIDTH 13 0
BBX 7 14 6 7
BITMAP
FE
FE
FE
FE
FE
FE
FE
FE
FE
FE
FE
FE
FE
FE
ENDCHAR
STARTCHAR 259E
ENCODING 9630
SWIDTH 624 0
DWIDTH 13 0
BBX 13 27 0 -6
BITMAP
03F8
03F8
03F8
03F8
03F8
03F8
03F8
03F8
03F8
03F8
03F8
03F8
03F8
03F8
FC00
FC00
FC00
FC00
FC00
FC00
FC00
FC00
FC00
FC00
FC00
FC00
FC00
ENDCHAR
STARTCHAR 259F
ENCODING 9631
SWIDTH 624 0
DWIDTH 13 0
BBX 13 27 0 -6
BITMAP
03F8
03F8
03F8
03F8
03F8
03F8
03F8
03F8
03F8
03F8
03F8
03F8
03F8
03F8
FFF8
FFF8
FFF8
FFF8
FFF8
FFF8
FFF8
FFF8
FFF8
FFF8
FFF8
FFF8
FFF8
ENDCHAR
STARTCHAR 25A0
ENCODING 9632
SWIDTH 624 0
DWIDTH 13 0
BBX 12 13 0 1
BITMAP
FFF0
FFF0
FFF0
FFF0
FFF0
FFF0
FFF0
FFF0
FFF0
FFF0
FFF0
FFF0
FFF0
ENDCHAR
STARTCHAR 25B2
ENCODING 9650
SWIDTH 624 0
DWIDTH 13 0
BBX 13 12 0 2
BITMAP
0600
0600
0F00
0F00
1F80
1FC0
3FC0
3FE0
7FE0
7FF0
FFF0
FFF8
ENDCHAR
STARTCHAR 25B6
ENCODING 9654
SWIDTH 624 0
DWIDTH 13 0
BBX 13 13 0 1
BITMAP
8000
E000
F800
FE00
FF80
FFE0
FFF8
FFE0
FF80
FE00
F800
E000
8000
ENDCHAR
STARTCHAR 25BC
ENCODING 9660
SWIDTH 624 0
DWIDTH 13 0
BBX 13 12 0 1
BITMAP
FFF8
FFF0
7FF0
7FE0
3FE0
3FC0
1FC0
1F80
0F80
0F00
0600
0600
ENDCHAR
STARTCHAR 25C0
ENCODING 9664
SWIDTH 624 0
DWIDTH 13 0
BBX 12 11 0 2
BITMAP
0030
00F0
03F0
0FF0
3FF0
FFF0
3FF0
0FF0
03F0
00F0
0030
ENDCHAR
STARTCHAR 25C6
ENCODING 9670
SWIDTH 624 0
DWIDTH 13 0
BBX 13 13 0 1
BITMAP
0200
0700
0F80
1FC0
3FE0
7FF0
FFF8
7FF0
3FE0
1FC0
0F80
0700
0200
ENDCHAR
STARTCHAR 25CA
ENCODING 9674
SWIDTH 624 0
DWIDTH 13 0
BBX 10 15 1 0
BITMAP
1E00
1F00
3B00
3380
7180
61C0
E0C0
E0C0
E0C0
61C0
7180
3380
3B00
1F00
1E00
ENDCHAR
STARTCHAR 25CF
ENCODING 9679
SWIDTH 624 0
DWIDTH 13 0
BBX 13 13 0 1
BITMAP
0F80
3FC0
7FE0
FFF0
FFF0
FFF8
FFF8
FFF8
FFF0
FFF0
7FE0
3FC0
0F80
ENDCHAR
STARTCHAR 27E8
ENCODING 10216
SWIDTH 624 0
DWIDTH 13 0
BBX 7 19 3 -2
BITMAP
06
0C
18
18
30
70
60
C0
C0
80
C0
C0
60
60
30
38
18
0C
0E
ENDCHAR
STARTCHAR 27E9
ENCODING 10217
SWIDTH 624 0
DWIDTH 13 0
BBX 7 19 3 -2
BITMAP
C0
E0
60
30
30
18
1C
0C
06
06
06
0E
0C
18
38
30
60
60
C0
ENDCHAR
STARTCHAR 2B58
ENCODING 11096
SWIDTH 624 0
DWIDTH 13 0
BBX 13 13 0 0
BITMAP
0F80
3FC0
70E0
E030
C038
C018
C018
C018
C038
E030
7070
3FE0
1F80
ENDCHAR
STARTCHAR E000
ENCODING 57344
SWIDTH 624 0
DWIDTH 13 0
BBX 15 24 -2 -5
BITMAP
239E
62C2
A446
2444
2444
2444
244C
244C
2448
26C8
2BA8
0000
0000
1808
0FF8
3184
2CB4
24B4
21C4
3004
3F8C
1F38
0FF0
03C0
ENDCHAR
STARTCHAR E0A0
ENCODING 57504
SWIDTH 624 0
DWIDTH 13 0
BBX 10 26 2 -6
BITMAP
C000
C000
C000
C000
C300
C780
CFC0
C300
C300
C300
C300
8700
0F00
1E00
7800
7000
E000
C000
C000
C000
C000
C000
C000
C000
C000
C000
ENDCHAR
STARTCHAR E0A1
ENCODING 57505
SWIDTH 624 0
DWIDTH 13 0
BBX 8 23 2 -4
BITMAP
C0
C0
C0
C0
C0
C0
C0
C0
C0
FC
FC
00
00
71
71
79
69
69
6D
65
67
63
63
ENDCHAR
STARTCHAR E0A2
ENCODING 57506
SWIDTH 624 0
DWIDTH 13 0
BBX 10 20 1 -2
BITMAP
1F00
3380
2180
6180
6180
6180
6180
6180
FFC0
FFC0
F1C0
E1C0
E1C0
F3C0
F3C0
F3C0
F3C0
FFC0
FFC0
7FC0
ENDCHAR
STARTCHAR E0B0
ENCODING 57520
SWIDTH 624 0
DWIDTH 13 0
BBX 12 25 0 -6
BITMAP
8000
C000
E000
F000
F800
FC00
FC00
FE00
FF00
FF80
FFC0
FFE0
FFF0
FFF0
FFE0
FFC0
FF80
FF00
FE00
FC00
F800
F000
E000
C000
8000
ENDCHAR
STARTCHAR E0B1
ENCODING 57521
SWIDTH 624 0
DWIDTH 13 0
BBX 12 26 0 -6
BITMAP
6000
7000
3800
1800
0C00
0E00
0700
0300
0180
00C0
00E0
0070
0030
0070
0060
00C0
01C0
0380
0300
0600
0C00
1C00
3800
3000
6000
E000
ENDCHAR
STARTCHAR E0B2
ENCODING 57522
SWIDTH 624 0
DWIDTH 13 0
BBX 12 25 0 -6
BITMAP
0010
0010
0030
0070
00F0
01F0
03F0
07F0
0FF0
1FF0
3FF0
7FF0
FFF0
7FF0
3FF0
1FF0
0FF0
07F0
03F0
01F0
00F0
00F0
0070
0030
0010
ENDCHAR
STARTCHAR E0B3
ENCODING 57523
SWIDTH 624 0
DWIDTH 13 0
BBX 12 26 0 -6
BITMAP
0030
0060
00C0
01C0
0380
0300
0600
0C00
1C00
1800
3000
6000
E000
6000
7000
3800
1800
0C00
0E00
0700
0300
0180
00C0
00E0
0070
0030
ENDCHAR
STARTCHAR FEFF
ENCODING 65279
SWIDTH 0 0
DWIDTH 0 0
BBX 0 0 0 0
BITMAP
ENDCHAR
ENDFONT
